SplineFontDB: 3.0
FontName: Gubbi
FullName: Gubbi
FamilyName: Gubbi
Weight: Normal
Copyright: Gubbi - Kannada Unicode FONT\n\nCopyright (C) 2005-2010, Indian Institute of Science,Bangalore.\nCopyright (C) 2011-2012 Aravinda VK <hallimanearavind@gmail.com>\n\nThis Font Software is licensed under the SIL Open Font License, Version 1.1.\nThis license is copied below, and is also available with a FAQ at:\nhttp://scripts.sil.org/OFL
Version: 1.1
ItalicAngle: 0
UnderlinePosition: -288
UnderlineWidth: 64
Ascent: 1638
Descent: 410
LayerCount: 2
Layer: 0 1 "Back"  1
Layer: 1 1 "Fore"  0
FSType: 8
OS2Version: 0
OS2_WeightWidthSlopeOnly: 0
OS2_UseTypoMetrics: 1
CreationTime: 1062074370
ModificationTime: 1344622049
PfmFamily: 81
TTFWeight: 400
TTFWidth: 5
LineGap: 224
VLineGap: 0
Panose: 0 0 4 0 0 0 0 0 0 0
OS2TypoAscent: 12
OS2TypoAOffset: 1
OS2TypoDescent: -946
OS2TypoDOffset: 1
OS2TypoLinegap: 224
OS2WinAscent: -57
OS2WinAOffset: 1
OS2WinDescent: 332
OS2WinDOffset: 1
HheadAscent: -57
HheadAOffset: 1
HheadDescent: -332
HheadDOffset: 1
OS2SubXSize: 205
OS2SubYSize: 205
OS2SubXOff: 0
OS2SubYOff: 240
OS2SupXSize: 205
OS2SupYSize: 205
OS2SupXOff: 0
OS2SupYOff: 1360
OS2StrikeYSize: 102
OS2StrikeYPos: 400
OS2Vendor: '    '
OS2CodePages: 00000000.00000000
OS2UnicodeRanges: 00400000.00000000.00000000.00000000
Lookup: 4 0 0 "'rphf' Reph Form in Kannada lookup 0"  {"'rphf' Reph Form in Kannada lookup 0 subtable"  } ['rphf' ('knda' <'dflt' > ) ]
Lookup: 6 0 0 "'blws' Below Base Substitutions in Kannada lookup 1"  {"'blws' Below Base Substitutions in Kannada lookup 1 subtable"  } ['blws' ('knda' <'dflt' > ) ]
Lookup: 6 0 0 "'psts' Post Base Substitutions in Kannada lookup 2"  {"'psts' Post Base Substitutions in Kannada lookup 2 contextual 0"  "'psts' Post Base Substitutions in Kannada lookup 2 contextual 1"  } ['psts' ('knda' <'dflt' > ) ]
Lookup: 4 0 0 "'blwf' Below Base Forms in Kannada lookup 3"  {"'blwf' Below Base Forms in Kannada lookup 3 subtable"  } ['blwf' ('knda' <'dflt' > ) ]

StartChar: .notdef
Encoding: 108 -1 0
Width: 1024
GlyphClass: 2
Flags: W
LayerCount: 2
Fore
SplineSet
128 0 m 1,0,-1
 128 2048 l 1,1,-1
 896 2048 l 1,2,-1
 896 0 l 1,3,-1
 128 0 l 1,0,-1
256 128 m 1,4,-1
 768 128 l 1,5,-1
 768 1920 l 1,6,-1
 256 1920 l 1,7,-1
 256 128 l 1,4,-1
EndSplineSet
Validated: 1
EndChar

StartChar: U0021
Encoding: 1 33 4
Width: 709
GlyphClass: 2
Flags: W
LayerCount: 2
Fore
SplineSet
639 1335 m 2,0,-1
 551 393 l 1,1,-1
 489 393 l 1,2,-1
 406 1335 l 2,3,4
 401 1381 401 1381 437.5 1414.5 c 128,-1,5
 474 1448 474 1448 524 1448 c 0,6,7
 573 1448 573 1448 608 1414.5 c 128,-1,8
 643 1381 643 1381 639 1335 c 2,0,-1
659 127 m 0,9,10
 659 65 659 65 618 31.5 c 128,-1,11
 577 -2 577 -2 514 -2 c 0,12,13
 373 -2 373 -2 373 127 c 0,14,15
 373 194 373 194 417 234 c 0,16,17
 457 270 457 270 516 270 c 0,18,19
 574 270 574 270 615 234 c 0,20,21
 659 194 659 194 659 127 c 0,9,10
EndSplineSet
Validated: 33
EndChar

StartChar: U0022
Encoding: 2 34 5
Width: 614
GlyphClass: 2
Flags: W
LayerCount: 2
Fore
SplineSet
305 1368 m 1,0,1
 125 1242 125 1242 125 1073 c 1,2,3
 141 1076 141 1076 160 1076 c 0,4,5
 303 1076 303 1076 303 948 c 0,6,7
 303 884 303 884 261.5 845.5 c 128,-1,8
 220 807 220 807 164 807 c 0,9,10
 103 807 103 807 60 849 c 0,11,12
 12 896 12 896 12 981 c 0,13,14
 12 1259 12 1259 268 1401 c 1,15,-1
 305 1368 l 1,0,1
EndSplineSet
Validated: 1
EndChar

StartChar: U0025
Encoding: 4 37 7
Width: 1636
GlyphClass: 2
Flags: W
LayerCount: 2
Fore
SplineSet
1303 729 m 0,0,1
 1520 729 1520 729 1520 514 c 0,2,3
 1520 334 1520 334 1411 175 c 0,4,5
 1292 0 1292 0 1126 0 c 0,6,7
 883 0 883 0 883 270 c 0,8,9
 883 431 883 431 1011 577 c 0,10,11
 1144 729 1144 729 1303 729 c 0,0,1
1329 666 m 0,12,13
 1205 666 1205 666 1109 468 c 0,14,15
 1032 309 1032 309 1032 209 c 0,16,17
 1032 59 1032 59 1157 59 c 0,18,19
 1278 59 1278 59 1376 217 c 1,20,21
 1466 360 1466 360 1466 500 c 0,22,23
 1466 571 1466 571 1427.5 618.5 c 128,-1,24
 1389 666 1389 666 1329 666 c 0,12,13
1245 1329 m 1,25,-1
 489 -25 l 1,26,-1
 395 -25 l 1,27,-1
 1081 1196 l 1,28,-1
 1077 1202 l 1,29,30
 980 1145 980 1145 870 1145 c 0,31,32
 803 1145 803 1145 741 1165 c 1,33,34
 754 1125 754 1125 754 1077 c 0,35,36
 754 902 754 902 647 745 c 0,37,38
 526 567 526 567 348 567 c 0,39,40
 266 567 266 567 201 627 c 0,41,42
 121 701 121 701 121 836 c 0,43,44
 121 994 121 994 244 1143 c 0,45,46
 376 1303 376 1303 543 1303 c 0,47,48
 628 1303 628 1303 693.5 1248.5 c 128,-1,49
 759 1194 759 1194 860 1194 c 0,50,51
 971 1194 971 1194 1054 1239 c 0,52,53
 1100 1265 1100 1265 1169 1329 c 1,54,-1
 1245 1329 l 1,25,-1
391 635 m 0,55,56
 508 635 508 635 606.5 778 c 128,-1,57
 705 921 705 921 705 1085 c 0,58,59
 705 1130 705 1130 688 1180 c 1,60,61
 618 1198 618 1198 588 1224 c 0,62,63
 565 1243 565 1243 553 1243 c 0,64,65
 459 1243 459 1243 362 1073 c 0,66,67
 270 912 270 912 270 782 c 0,68,69
 270 635 270 635 391 635 c 0,55,56
EndSplineSet
Validated: 1
EndChar

StartChar: U0027
Encoding: 5 39 8
Width: 614
GlyphClass: 2
Flags: W
LayerCount: 2
Fore
SplineSet
565 1169 m 0,0,1
 565 892 565 892 309 752 c 1,2,-1
 272 784 l 1,3,4
 453 910 453 910 453 1079 c 1,5,6
 437 1077 437 1077 417 1077 c 0,7,8
 274 1077 274 1077 274 1202 c 0,9,10
 274 1268 274 1268 319 1309 c 1,11,12
 360 1348 360 1348 416 1348 c 0,13,14
 476 1348 476 1348 518 1304 c 0,15,16
 565 1255 565 1255 565 1169 c 0,0,1
EndSplineSet
Validated: 1
EndChar

StartChar: U0028
Encoding: 6 40 9
Width: 778
GlyphClass: 2
Flags: W
LayerCount: 2
Fore
SplineSet
561 1329 m 1,0,1
 221 871 221 871 221 369 c 0,2,3
 221 -154 221 -154 555 -561 c 1,4,-1
 537 -582 l 1,5,6
 404 -479 404 -479 309 -348 c 0,7,8
 82 -33 82 -33 82 369 c 0,9,10
 82 768 82 768 309 1094 c 0,11,12
 404 1229 404 1229 537 1339 c 1,13,-1
 561 1329 l 1,0,1
EndSplineSet
Validated: 1
EndChar

StartChar: U0029
Encoding: 7 41 10
Width: 778
GlyphClass: 2
Flags: W
LayerCount: 2
Fore
SplineSet
725 369 m 0,0,1
 725 -33 725 -33 499 -348 c 0,2,3
 404 -479 404 -479 272 -582 c 1,4,-1
 250 -561 l 1,5,6
 586 -154 586 -154 586 369 c 0,7,8
 586 871 586 871 246 1329 c 1,9,-1
 272 1339 l 1,10,11
 404 1229 404 1229 499 1094 c 1,12,13
 725 768 725 768 725 369 c 0,0,1
EndSplineSet
Validated: 1
EndChar

StartChar: U002A
Encoding: 8 42 11
Width: 983
GlyphClass: 2
Flags: W
LayerCount: 2
Fore
SplineSet
135 752 m 0,0,1
 135 820 135 820 236 842 c 1,2,3
 389 877 389 877 459 926 c 1,4,-1
 438 938 l 1,5,6
 395 964 395 964 236 1004 c 0,7,8
 135 1030 135 1030 135 1096 c 0,9,10
 135 1122 135 1122 154.5 1142.5 c 128,-1,11
 174 1163 174 1163 201 1163 c 0,12,13
 244 1163 244 1163 301 1097 c 0,14,15
 378 1008 378 1008 475 956 c 1,16,-1
 475 981 l 2,17,18
 475 1070 475 1070 450.5 1144 c 128,-1,19
 426 1218 426 1218 426 1253 c 0,20,21
 426 1329 426 1329 496 1329 c 0,22,23
 565 1329 565 1329 565 1253 c 0,24,25
 565 1233 565 1233 538.5 1147 c 128,-1,26
 512 1061 512 1061 512 1004 c 2,27,-1
 512 950 l 1,28,-1
 526 958 l 2,29,30
 588 993 588 993 671 1089 c 0,31,32
 738 1165 738 1165 776 1165 c 0,33,34
 848 1165 848 1165 848 1096 c 0,35,36
 848 1040 848 1040 810 1023 c 1,37,38
 755 1010 755 1010 700 997 c 0,39,40
 608 975 608 975 526 924 c 1,41,-1
 543 913 l 1,42,43
 609 872 609 872 756 842 c 0,44,45
 850 823 850 823 850 760 c 0,46,47
 850 688 850 688 778 688 c 0,48,49
 734 688 734 688 665 770 c 0,50,51
 585 865 585 865 526 889 c 1,52,-1
 512 897 l 1,53,-1
 512 883 l 2,54,55
 512 769 512 769 538.5 693 c 128,-1,56
 565 617 565 617 565 604 c 0,57,58
 565 572 565 572 546 548 c 0,59,60
 524 520 524 520 489 520 c 0,61,62
 463 520 463 520 441.5 541.5 c 128,-1,63
 420 563 420 563 420 598 c 0,64,65
 420 620 420 620 449 704.5 c 128,-1,66
 478 789 478 789 478 847 c 0,67,68
 478 865 478 865 475 883 c 1,69,-1
 471 897 l 1,70,71
 373 833 373 833 322 774 c 0,72,73
 275 721 275 721 270 716 c 0,74,75
 239 690 239 690 201 690 c 0,76,77
 135 690 135 690 135 752 c 0,0,1
EndSplineSet
Validated: 1
EndChar

StartChar: U002B
Encoding: 9 43 12
Width: 1108
GlyphClass: 2
Flags: W
LayerCount: 2
Fore
SplineSet
489 563 m 1,0,-1
 489 995 l 1,1,-1
 618 995 l 1,2,-1
 618 563 l 1,3,-1
 1049 563 l 1,4,-1
 1049 432 l 1,5,-1
 618 432 l 1,6,-1
 618 0 l 1,7,-1
 489 0 l 1,8,-1
 489 432 l 1,9,-1
 59 432 l 1,10,-1
 59 563 l 1,11,-1
 489 563 l 1,0,-1
EndSplineSet
Validated: 1
EndChar

StartChar: U002C
Encoding: 10 44 13
Width: 614
GlyphClass: 2
Flags: W
LayerCount: 2
Fore
SplineSet
565 94 m 0,0,1
 565 -185 565 -185 309 -328 c 1,2,-1
 272 -295 l 1,3,4
 453 -167 453 -167 453 2 c 1,5,6
 450 2 450 2 444 2 c 0,7,8
 432 1 432 1 421 1 c 0,9,10
 274 1 274 1 274 125 c 0,11,12
 274 193 274 193 319 232 c 0,13,14
 359 266 359 266 418 266 c 256,15,16
 477 266 477 266 518 224 c 0,17,18
 565 176 565 176 565 94 c 0,0,1
EndSplineSet
Validated: 1
EndChar

StartChar: U002D
Encoding: 11 45 14
Width: 860
GlyphClass: 2
Flags: W
LayerCount: 2
Fore
SplineSet
333 432 m 1,0,-1
 87 432 l 1,1,-1
 87 563 l 1,2,-1
 340 563 l 1,3,-1
 771 563 l 1,4,-1
 771 432 l 1,5,-1
 333 432 l 1,0,-1
EndSplineSet
EndChar

StartChar: U002E
Encoding: 12 46 15
Width: 614
GlyphClass: 2
Flags: W
LayerCount: 2
Fore
SplineSet
508 131 m 0,0,1
 508 69 508 69 466 33 c 0,2,3
 428 0 428 0 367 0 c 0,4,5
 225 0 225 0 225 131 c 0,6,7
 225 198 225 198 270 237 c 0,8,9
 310 272 310 272 369 272 c 0,10,11
 426 272 426 272 465 236 c 0,12,13
 508 197 508 197 508 131 c 0,0,1
EndSplineSet
Validated: 1
EndChar

StartChar: U002F
Encoding: 13 47 16
Width: 614
GlyphClass: 2
Flags: W
LayerCount: 2
Fore
SplineSet
573 1286 m 1,0,-1
 143 -145 l 1,1,-1
 70 -145 l 1,2,-1
 496 1286 l 1,3,-1
 573 1286 l 1,0,-1
EndSplineSet
Validated: 1
EndChar

StartChar: U0030
Encoding: 14 48 17
Width: 1229
GlyphClass: 2
Flags: W
LayerCount: 2
Fore
SplineSet
1059 651 m 0,0,1
 1059 407 1059 407 972 223 c 0,2,3
 854 -27 854 -27 614 -27 c 0,4,5
 375 -27 375 -27 257 223 c 0,6,7
 170 407 170 407 170 651 c 0,8,9
 170 892 170 892 257 1077 c 0,10,11
 376 1329 376 1329 614 1329 c 0,12,13
 853 1329 853 1329 972 1077 c 0,14,15
 1059 892 1059 892 1059 651 c 0,0,1
870 651 m 0,16,17
 870 1278 870 1278 614 1278 c 256,18,19
 358 1278 358 1278 358 651 c 0,20,21
 358 25 358 25 614 25 c 256,22,23
 870 25 870 25 870 651 c 0,16,17
EndSplineSet
Validated: 1
EndChar

StartChar: U0031
Encoding: 15 49 18
Width: 1229
GlyphClass: 2
Flags: W
LayerCount: 2
Fore
SplineSet
872 0 m 1,0,-1
 330 0 l 1,1,-1
 330 29 l 1,2,3
 434 34 434 34 466 53 c 0,4,5
 516 84 516 84 516 182 c 2,6,-1
 516 1073 l 2,7,8
 516 1165 516 1165 451 1165 c 0,9,10
 428 1165 428 1165 317 1122 c 1,11,-1
 317 1151 l 1,12,-1
 672 1329 l 1,13,-1
 686 1325 l 1,14,-1
 686 145 l 2,15,16
 686 75 686 75 723.5 52 c 128,-1,17
 761 29 761 29 872 29 c 1,18,-1
 872 0 l 1,0,-1
EndSplineSet
Validated: 1
EndChar

StartChar: U0032
Encoding: 16 50 19
Width: 1229
GlyphClass: 2
Flags: W
LayerCount: 2
Fore
SplineSet
1057 270 m 1,0,-1
 948 0 l 1,1,-1
 182 0 l 1,2,-1
 182 25 l 1,3,-1
 530 395 l 2,4,5
 786 668 786 668 786 901 c 0,6,7
 786 1006 786 1006 733 1081 c 0,8,9
 660 1184 660 1184 506 1184 c 0,10,11
 389 1184 389 1184 315 1096 c 0,12,13
 273 1047 273 1047 225 930 c 1,14,-1
 184 938 l 1,15,16
 226 1143 226 1143 350 1244 c 0,17,18
 455 1329 455 1329 600 1329 c 0,19,20
 741 1329 741 1329 845 1234 c 0,21,22
 956 1132 956 1132 956 975 c 0,23,24
 956 758 956 758 705 496 c 2,25,-1
 373 150 l 1,26,-1
 846 150 l 2,27,28
 906 150 906 150 937 168 c 1,29,30
 978 194 978 194 1032 281 c 1,31,-1
 1057 270 l 1,0,-1
EndSplineSet
Validated: 1
EndChar

StartChar: U0033
Encoding: 17 51 20
Width: 1229
GlyphClass: 2
Flags: W
LayerCount: 2
Fore
SplineSet
995 426 m 0,0,1
 995 220 995 220 839 94 c 0,2,3
 688 -27 688 -27 451 -27 c 0,4,5
 381 -27 381 -27 323 -9 c 0,6,7
 231 19 231 19 231 84 c 0,8,9
 231 152 231 152 309 152 c 0,10,11
 350 152 350 152 439.5 98.5 c 128,-1,12
 529 45 529 45 590 45 c 0,13,14
 718 45 718 45 789 140 c 0,15,16
 852 224 852 224 852 346 c 0,17,18
 852 406 852 406 825 469 c 0,19,20
 786 561 786 561 702 604 c 1,21,22
 607 654 607 654 446 649 c 1,23,-1
 446 674 l 1,24,25
 772 782 772 782 772 1008 c 0,26,27
 772 1089 772 1089 719 1147 c 1,28,29
 658 1212 658 1212 555 1212 c 0,30,31
 379 1212 379 1212 266 1004 c 1,32,-1
 236 1010 l 1,33,34
 334 1329 334 1329 623 1329 c 0,35,36
 788 1329 788 1329 871 1227 c 0,37,38
 930 1154 930 1154 930 1065 c 0,39,40
 930 908 930 908 745 788 c 1,41,42
 852 740 852 740 901 690 c 0,43,44
 995 593 995 593 995 426 c 0,0,1
EndSplineSet
Validated: 33
EndChar

StartChar: U0034
Encoding: 18 52 21
Width: 1229
GlyphClass: 2
Flags: W
LayerCount: 2
Fore
SplineSet
1053 455 m 1,0,-1
 1053 330 l 1,1,-1
 850 330 l 1,2,-1
 850 0 l 1,3,-1
 698 0 l 1,4,-1
 698 330 l 1,5,-1
 147 330 l 1,6,-1
 147 455 l 1,7,-1
 764 1329 l 1,8,-1
 850 1329 l 1,9,-1
 850 455 l 1,10,-1
 1053 455 l 1,0,-1
698 455 m 1,11,-1
 698 1122 l 1,12,-1
 692 1122 l 1,13,-1
 225 455 l 1,14,-1
 698 455 l 1,11,-1
EndSplineSet
Validated: 1
EndChar

StartChar: U0035
Encoding: 19 53 22
Width: 1229
GlyphClass: 2
Flags: W
LayerCount: 2
Fore
SplineSet
1008 1339 m 1,0,-1
 934 1165 l 1,1,2
 930 1145 930 1145 889 1145 c 2,3,-1
 504 1145 l 1,4,-1
 420 979 l 1,5,6
 590 948 590 948 665 921 c 0,7,8
 803 871 803 871 881 776 c 0,9,10
 948 694 948 694 968 623 c 0,11,12
 985 563 985 563 985 442 c 0,13,14
 985 244 985 244 838 110 c 0,15,16
 688 -27 688 -27 457 -27 c 0,17,18
 343 -27 343 -27 277 5 c 128,-1,19
 211 37 211 37 211 90 c 0,20,21
 211 168 211 168 291 168 c 0,22,23
 355 168 355 168 439 106.5 c 128,-1,24
 523 45 523 45 575 45 c 0,25,26
 682 45 682 45 759 130 c 0,27,28
 848 228 848 228 848 395 c 0,29,30
 848 606 848 606 647 718 c 0,31,32
 497 801 497 801 287 811 c 0,33,34
 268 812 268 812 274 836 c 1,35,-1
 489 1303 l 1,36,-1
 899 1303 l 2,37,38
 953 1303 953 1303 991 1352 c 1,39,-1
 1008 1339 l 1,0,-1
EndSplineSet
Validated: 1
EndChar

StartChar: U0036
Encoding: 20 54 23
Width: 1229
GlyphClass: 2
Flags: W
LayerCount: 2
Fore
SplineSet
1042 428 m 0,0,1
 1042 270 1042 270 964 147 c 0,2,3
 853 -27 853 -27 623 -27 c 0,4,5
 436 -27 436 -27 319 118 c 0,6,7
 188 279 188 279 188 573 c 0,8,9
 188 878 188 878 416 1102 c 0,10,11
 650 1333 650 1333 999 1343 c 1,12,-1
 1004 1313 l 1,13,14
 757 1274 757 1274 595 1102 c 0,15,16
 452 950 452 950 422 752 c 1,17,18
 505 804 505 804 542 818 c 0,19,20
 598 840 598 840 680 840 c 0,21,22
 841 840 841 840 940 733 c 1,23,24
 1042 621 1042 621 1042 428 c 0,0,1
864 352 m 0,25,26
 864 752 864 752 600 752 c 0,27,28
 479 752 479 752 414 688 c 0,29,30
 373 648 373 648 373 504 c 0,31,32
 373 268 373 268 457 141 c 0,33,34
 532 27 532 27 651 27 c 0,35,36
 749 27 749 27 805 106 c 1,37,38
 864 192 864 192 864 352 c 0,25,26
EndSplineSet
Validated: 1
EndChar

StartChar: U0037
Encoding: 21 55 24
Width: 1229
GlyphClass: 2
Flags: W
LayerCount: 2
Fore
SplineSet
1030 1270 m 1,0,-1
 614 -14 l 1,1,-1
 487 -14 l 1,2,-1
 874 1155 l 1,3,-1
 446 1155 l 2,4,5
 360 1155 360 1155 310 1114 c 0,6,7
 278 1088 278 1088 221 997 c 1,8,-1
 186 1012 l 1,9,-1
 270 1214 l 1,10,-1
 303 1303 l 1,11,-1
 1030 1303 l 1,12,-1
 1030 1270 l 1,0,-1
EndSplineSet
Validated: 1
EndChar

StartChar: U0038
Encoding: 22 56 25
Width: 1229
GlyphClass: 2
Flags: W
LayerCount: 2
Fore
SplineSet
997 295 m 0,0,1
 997 182 997 182 925 96 c 0,2,3
 822 -27 822 -27 606 -27 c 0,4,5
 435 -27 435 -27 329 72 c 0,6,7
 233 162 233 162 233 287 c 0,8,9
 233 404 233 404 296 483 c 0,10,11
 337 535 337 535 489 653 c 1,12,13
 344 781 344 781 305 833 c 0,14,15
 246 914 246 914 246 1024 c 0,16,17
 246 1165 246 1165 365 1252 c 0,18,19
 472 1329 472 1329 612 1329 c 0,20,21
 773 1329 773 1329 868 1246 c 0,22,23
 956 1168 956 1168 956 1049 c 0,24,25
 956 932 956 932 864 844 c 0,26,27
 812 794 812 794 692 729 c 1,28,29
 877 598 877 598 944 491 c 0,30,31
 997 407 997 407 997 295 c 0,0,1
821 1059 m 0,32,33
 821 1148 821 1148 767 1207 c 0,34,35
 707 1274 707 1274 600 1274 c 0,36,37
 498 1274 498 1274 440 1210 c 0,38,39
 391 1155 391 1155 391 1077 c 0,40,41
 391 925 391 925 637 764 c 1,42,43
 720 819 720 819 757 865 c 0,44,45
 821 946 821 946 821 1059 c 0,32,33
848 248 m 0,46,47
 848 349 848 349 779 425 c 0,48,49
 730 479 730 479 541 614 c 1,50,51
 469 557 469 557 438 509 c 0,52,53
 383 426 383 426 383 307 c 256,54,55
 383 188 383 188 447 110 c 0,56,57
 515 27 515 27 631 27 c 0,58,59
 727 27 727 27 787.5 86.5 c 128,-1,60
 848 146 848 146 848 248 c 0,46,47
EndSplineSet
Validated: 1
EndChar

StartChar: U0039
Encoding: 23 57 26
Width: 1229
GlyphClass: 2
Flags: W
LayerCount: 2
Fore
SplineSet
1024 778 m 0,0,1
 1024 452 1024 452 818 222 c 0,2,3
 600 -21 600 -21 238 -45 c 1,4,-1
 233 -4 l 1,5,6
 533 45 533 45 704 293 c 0,7,8
 790 418 790 418 827 569 c 1,9,-1
 825 575 l 1,10,11
 696 467 696 467 537 467 c 0,12,13
 357 467 357 467 260 600 c 0,14,15
 182 708 182 708 182 856 c 0,16,17
 182 1057 182 1057 293 1190 c 0,18,19
 408 1329 408 1329 594 1329 c 0,20,21
 778 1329 778 1329 900 1177 c 0,22,23
 1024 1021 1024 1021 1024 778 c 0,0,1
836 698 m 2,24,-1
 836 774 l 2,25,26
 836 1274 836 1274 573 1274 c 0,27,28
 365 1274 365 1274 365 930 c 0,29,30
 365 783 365 783 411 685 c 0,31,32
 475 551 475 551 614 551 c 0,33,34
 720 551 720 551 803 618 c 0,35,36
 836 645 836 645 836 698 c 2,24,-1
EndSplineSet
Validated: 1
EndChar

StartChar: U003A
Encoding: 24 58 27
Width: 545
GlyphClass: 2
Flags: W
LayerCount: 2
Fore
SplineSet
268 684 m 0,0,1
 229 684 229 684 198 709 c 0,2,3
 160 739 160 739 160 791 c 0,4,5
 160 836 160 836 192 868.5 c 128,-1,6
 224 901 224 901 268 901 c 0,7,8
 313 901 313 901 346 868 c 128,-1,9
 379 835 379 835 379 791 c 0,10,11
 379 740 379 740 339 710 c 1,12,13
 306 684 306 684 268 684 c 0,0,1
268 -23 m 0,14,15
 230 -23 230 -23 198 3 c 0,16,17
 160 34 160 34 160 84 c 0,18,19
 160 131 160 131 191.5 164 c 128,-1,20
 223 197 223 197 268 197 c 256,21,22
 313 197 313 197 346 163.5 c 128,-1,23
 379 130 379 130 379 84 c 0,24,25
 379 35 379 35 339 4 c 0,26,27
 305 -23 305 -23 268 -23 c 0,14,15
EndSplineSet
Validated: 1
EndChar

StartChar: U003B
Encoding: 25 59 28
Width: 545
GlyphClass: 2
Flags: W
LayerCount: 2
Fore
SplineSet
211 -279 m 1,0,-1
 193 -242 l 1,1,2
 354 -136 354 -136 354 -33 c 0,3,4
 354 -4 354 -4 328 -4 c 0,5,6
 317 -4 317 -4 309 -8 c 1,7,8
 297 -12 297 -12 281 -12 c 0,9,10
 158 -12 158 -12 158 86 c 0,11,12
 158 201 158 201 272 201 c 0,13,14
 325 201 325 201 367 168 c 0,15,16
 430 119 430 119 430 12 c 0,17,18
 430 -79 430 -79 344 -175 c 0,19,20
 274 -254 274 -254 211 -279 c 1,0,-1
268 684 m 0,21,22
 229 684 229 684 198 709 c 0,23,24
 160 739 160 739 160 791 c 0,25,26
 160 836 160 836 192 868.5 c 128,-1,27
 224 901 224 901 268 901 c 0,28,29
 313 901 313 901 346 868 c 128,-1,30
 379 835 379 835 379 791 c 0,31,32
 379 740 379 740 339 710 c 1,33,34
 306 684 306 684 268 684 c 0,21,22
EndSplineSet
Validated: 1
EndChar

StartChar: glyph29
Encoding: 26 61 29
Width: 1229
GlyphClass: 2
Flags: W
LayerCount: 2
Fore
SplineSet
1171 733 m 1,0,-1
 61 733 l 1,1,-1
 61 827 l 1,2,-1
 1171 827 l 1,3,-1
 1171 733 l 1,0,-1
1171 401 m 1,4,-1
 61 401 l 1,5,-1
 61 496 l 1,6,-1
 1171 496 l 1,7,-1
 1171 401 l 1,4,-1
EndSplineSet
Validated: 1
EndChar

StartChar: glyph30
Encoding: 27 62 30
Width: 737
GlyphClass: 2
Flags: W
LayerCount: 2
Fore
SplineSet
518 -111 m 1,0,-1
 369 0 l 1,1,-1
 369 1268 l 1,2,-1
 518 1157 l 1,3,-1
 518 -111 l 1,0,-1
EndSplineSet
Validated: 1
EndChar

StartChar: glyph31
Encoding: 28 63 31
Width: 1229
GlyphClass: 2
Flags: W
LayerCount: 2
Fore
SplineSet
1147 1083 m 0,0,1
 1147 959 1147 959 1053 857 c 0,2,3
 1019 819 1019 819 880 714 c 0,4,5
 786 642 786 642 786 594 c 0,6,7
 786 461 786 461 809 373 c 1,8,-1
 760 373 l 1,9,10
 711 468 711 468 711 592 c 0,11,12
 711 651 711 651 786 736 c 0,13,14
 855 814 855 814 925 893 c 1,15,16
 999 995 999 995 999 1096 c 0,17,18
 999 1198 999 1198 942 1266 c 1,19,20
 879 1339 879 1339 776 1339 c 0,21,22
 644 1339 644 1339 568 1264 c 1,23,24
 508 1203 508 1203 508 1133 c 0,25,26
 508 1075 508 1075 561 1020 c 1,27,28
 575 1128 575 1128 647 1128 c 0,29,30
 685 1128 685 1128 711 1100.5 c 128,-1,31
 737 1073 737 1073 737 1034 c 0,32,33
 737 931 737 931 629 926 c 0,34,35
 575 923 575 923 522 969 c 0,36,37
 453 1029 453 1029 453 1141 c 0,38,39
 453 1284 453 1284 564 1362 c 0,40,41
 658 1427 658 1427 797 1427 c 0,42,43
 952 1427 952 1427 1051 1328 c 1,44,45
 1147 1230 1147 1230 1147 1083 c 0,0,1
913 106 m 0,46,47
 913 54 913 54 876.5 15.5 c 128,-1,48
 840 -23 840 -23 788 -23 c 0,49,50
 738 -23 738 -23 700 15.5 c 128,-1,51
 662 54 662 54 662 106 c 0,52,53
 662 159 662 159 700 198.5 c 128,-1,54
 738 238 738 238 788 238 c 0,55,56
 841 238 841 238 877 199 c 128,-1,57
 913 160 913 160 913 106 c 0,46,47
EndSplineSet
Validated: 33
EndChar

StartChar: glyph32
Encoding: 111 -1 32
Width: 1782
GlyphClass: 2
Flags: W
LayerCount: 2
Fore
SplineSet
1561 131 m 0,0,1
 1561 69 1561 69 1520.5 34.5 c 128,-1,2
 1480 0 1480 0 1417 0 c 0,3,4
 1356 0 1356 0 1317 34.5 c 128,-1,5
 1278 69 1278 69 1278 131 c 0,6,7
 1278 198 1278 198 1323 237 c 0,8,9
 1363 272 1363 272 1421 272 c 0,10,11
 1477 272 1477 272 1517 236 c 0,12,13
 1561 197 1561 197 1561 131 c 0,0,1
1032 131 m 0,14,15
 1032 69 1032 69 991.5 34.5 c 128,-1,16
 951 0 951 0 889 0 c 0,17,18
 828 0 828 0 789 34.5 c 128,-1,19
 750 69 750 69 750 131 c 0,20,21
 750 198 750 198 794 237 c 1,22,23
 835 272 835 272 893 272 c 0,24,25
 949 272 949 272 989 236 c 0,26,27
 1032 197 1032 197 1032 131 c 0,14,15
504 131 m 0,28,29
 504 69 504 69 463.5 34.5 c 128,-1,30
 423 0 423 0 360 0 c 0,31,32
 300 0 300 0 262 33 c 0,33,34
 221 69 221 69 221 131 c 0,35,36
 221 198 221 198 266 237 c 0,37,38
 306 272 306 272 365 272 c 0,39,40
 421 272 421 272 460 236 c 1,41,42
 504 197 504 197 504 131 c 0,28,29
EndSplineSet
Validated: 1
EndChar

StartChar: glyph33
Encoding: 112 -1 33
Width: 1548
GlyphClass: 2
Flags: W
LayerCount: 2
Fore
SplineSet
1475 811 m 1,0,-1
 1364 662 l 1,1,-1
 74 662 l 1,2,-1
 186 811 l 1,3,-1
 1475 811 l 1,0,-1
EndSplineSet
Validated: 1
EndChar

StartChar: glyph34
Encoding: 113 -1 34
Width: 3101
GlyphClass: 2
Flags: W
LayerCount: 2
Fore
SplineSet
3027 811 m 1,0,-1
 2916 662 l 1,1,-1
 74 662 l 1,2,-1
 186 811 l 1,3,-1
 3027 811 l 1,0,-1
EndSplineSet
Validated: 1
EndChar

StartChar: glyph35
Encoding: 114 -1 35
Width: 1108
GlyphClass: 2
Flags: W
LayerCount: 2
Fore
SplineSet
696 852 m 0,0,1
 696 790 696 790 655.5 756.5 c 128,-1,2
 615 723 615 723 553 723 c 0,3,4
 414 723 414 723 414 852 c 0,5,6
 414 920 414 920 457 960 c 1,7,8
 497 995 497 995 555 995 c 256,9,10
 613 995 613 995 653 959 c 0,11,12
 696 919 696 919 696 852 c 0,0,1
1049 432 m 1,13,-1
 59 432 l 1,14,-1
 59 563 l 1,15,-1
 1049 563 l 1,16,-1
 1049 432 l 1,13,-1
696 131 m 0,17,18
 696 69 696 69 655 34.5 c 128,-1,19
 614 0 614 0 553 0 c 256,20,21
 492 0 492 0 453 34.5 c 128,-1,22
 414 69 414 69 414 131 c 0,23,24
 414 198 414 198 457 237 c 0,25,26
 497 272 497 272 555 272 c 256,27,28
 613 272 613 272 653 236 c 0,29,30
 696 197 696 197 696 131 c 0,17,18
EndSplineSet
Validated: 1
EndChar

StartChar: exclam
Encoding: 115 -1 36
Width: 860
GlyphClass: 2
Flags: W
LayerCount: 2
Fore
SplineSet
786 811 m 1,0,-1
 676 662 l 1,1,-1
 74 662 l 1,2,-1
 186 811 l 1,3,-1
 786 811 l 1,0,-1
EndSplineSet
Validated: 1
EndChar

StartChar: quotedbl
Encoding: 116 -1 37
Width: 1108
GlyphClass: 2
Flags: W
LayerCount: 2
Fore
SplineSet
463 500 m 1,0,-1
 156 803 l 1,1,-1
 248 897 l 1,2,-1
 553 590 l 1,3,-1
 858 895 l 1,4,-1
 948 801 l 1,5,-1
 643 500 l 1,6,-1
 950 193 l 1,7,-1
 858 100 l 1,8,-1
 553 406 l 1,9,-1
 248 100 l 1,10,-1
 158 195 l 1,11,-1
 463 500 l 1,0,-1
EndSplineSet
Validated: 1
EndChar

StartChar: numbersign
Encoding: 29 3202 38
Width: 1042
GlyphClass: 2
Flags: W
LayerCount: 2
Fore
SplineSet
920 555 m 0,0,1
 920 -14 920 -14 518 -14 c 0,2,3
 328 -14 328 -14 224 140 c 0,4,5
 123 290 123 290 123 555 c 0,6,7
 123 801 123 801 223 939 c 0,8,9
 326 1081 326 1081 516 1081 c 0,10,11
 920 1081 920 1081 920 555 c 0,0,1
864 539 m 0,12,13
 864 672 864 672 757.5 783.5 c 128,-1,14
 651 895 651 895 518 895 c 256,15,16
 385 895 385 895 281 790 c 0,17,18
 174 682 174 682 174 539 c 0,19,20
 174 376 174 376 281 280 c 0,21,22
 378 193 378 193 518 193 c 0,23,24
 666 193 666 193 758 271 c 0,25,26
 864 362 864 362 864 539 c 0,12,13
EndSplineSet
Validated: 1
EndChar

StartChar: dollar
Encoding: 30 3203 39
Width: 614
GlyphClass: 2
Flags: W
LayerCount: 2
Fore
SplineSet
504 852 m 0,0,1
 504 748 504 748 451 689 c 0,2,3
 404 637 404 637 332 637 c 0,4,5
 255 637 255 637 199 691 c 0,6,7
 137 752 137 752 137 852 c 0,8,9
 137 944 137 944 182 1005 c 0,10,11
 231 1071 231 1071 315 1071 c 0,12,13
 403 1071 403 1071 453.5 1010 c 128,-1,14
 504 949 504 949 504 852 c 0,0,1
504 209 m 0,15,16
 504 103 504 103 450 44 c 1,17,18
 401 -8 401 -8 328 -8 c 0,19,20
 252 -8 252 -8 197 48 c 0,21,22
 137 110 137 110 137 209 c 0,23,24
 137 300 137 300 182 361 c 0,25,26
 231 428 231 428 315 428 c 0,27,28
 402 428 402 428 453 366.5 c 128,-1,29
 504 305 504 305 504 209 c 0,15,16
469 850 m 0,30,31
 469 956 469 956 319 956 c 0,32,33
 260 956 260 956 220 929 c 0,34,35
 176 900 176 900 176 850 c 0,36,37
 176 805 176 805 223 778 c 0,38,39
 265 754 265 754 328 754 c 0,40,41
 386 754 386 754 427.5 780 c 128,-1,42
 469 806 469 806 469 850 c 0,30,31
469 209 m 0,43,44
 469 311 469 311 319 311 c 0,45,46
 260 311 260 311 220 286 c 0,47,48
 176 258 176 258 176 209 c 0,49,50
 176 162 176 162 222 136 c 0,51,52
 264 112 264 112 324 113 c 0,53,54
 383 113 383 113 424 137 c 0,55,56
 469 164 469 164 469 209 c 0,43,44
EndSplineSet
Validated: 33
EndChar

StartChar: percent
Encoding: 31 3205 40
Width: 1511
GlyphClass: 2
Flags: W
LayerCount: 2
Fore
SplineSet
1300.06 895 m 1,0,1
 1243.82 986.757 1243.82 986.757 1122 973 c 0,2,3
 1061.17 966.13 1061.17 966.13 1045.5 938 c 0,4,5
 1018.96 890.355 1018.96 890.355 1026 860 c 0,6,7
 1042.9 775.4 1042.9 775.4 1126.06 739 c 1,8,-1
 1126.06 583 l 1,9,-1
 631.9 583.4 l 1,10,-1
 631.9 754.4 l 1,11,-1
 1029 755 l 1,12,13
 989.423 795.771 989.423 795.771 973 864 c 0,14,15
 948.518 967.668 948.518 967.668 979.9 1039.4 c 0,16,17
 1021.9 1132.4 1021.9 1132.4 1120 1128 c 0,18,19
 1260.15 1119.65 1260.15 1119.65 1332 975 c 0,20,21
 1399 842 1399 842 1399 647 c 0,22,23
 1399 340 1399 340 1186 156 c 0,24,25
 996 -8 996 -8 733 -8 c 0,26,27
 476 -8 476 -8 308 159 c 0,28,29
 123 344 123 344 123 672 c 0,30,31
 123 843 123 843 197 976 c 0,32,33
 282 1128 282 1128 422 1128 c 0,34,35
 500 1128 500 1128 543 1061 c 0,36,37
 582 1002 582 1002 582 911 c 0,38,39
 582 806 582 806 532 728 c 1,40,41
 478 641 478 641 391 641 c 0,42,43
 235 641 235 641 219 827 c 1,44,45
 176 743 176 743 176 655 c 0,46,47
 176 426 176 426 349 299 c 1,48,49
 501 186 501 186 733 186 c 0,50,51
 987 186 987 186 1154 303 c 0,52,53
 1340.82 433.4 1340.82 433.4 1350 696 c 0,54,55
 1354.06 810 1354.06 810 1300.06 895 c 1,0,1
524 872 m 1,56,57
 527 913 527 913 497 943 c 128,-1,58
 467 973 467 973 416 973 c 0,59,60
 313 973 313 973 262 893 c 1,61,62
 277 760 277 760 395 760 c 0,63,64
 455 760 455 760 491 798 c 0,65,66
 522 830 522 830 524 872 c 1,56,57
EndSplineSet
Validated: 33
EndChar

StartChar: ampersand
Encoding: 32 3206 41
Width: 1511
GlyphClass: 2
Flags: W
LayerCount: 2
Fore
SplineSet
1403 889 m 0,0,1
 1403 666 1403 666 1255 614 c 1,2,3
 1329 556 1329 556 1329 410 c 0,4,5
 1329 221 1329 221 1160 102.5 c 128,-1,6
 991 -16 991 -16 733 -16 c 0,7,8
 473 -16 473 -16 310 141 c 0,9,10
 123 322 123 322 123 668 c 0,11,12
 123 842 123 842 193 975 c 0,13,14
 273 1128 273 1128 410 1128 c 0,15,16
 498 1128 498 1128 545 1060 c 0,17,18
 586 1002 586 1002 586 909 c 0,19,20
 586 804 586 804 531 724 c 0,21,22
 472 637 472 637 383 637 c 0,23,24
 311 637 311 637 268 690 c 128,-1,25
 225 743 225 743 225 821 c 1,26,27
 180 770 180 770 180 676 c 0,28,29
 180 421 180 421 349 294 c 0,30,31
 492 186 492 186 729 186 c 0,32,33
 952 186 952 186 1102 260 c 0,34,35
 1257 336 1257 336 1257 459 c 0,36,37
 1257 558 1257 558 1202 616 c 1,38,-1
 655 616 l 1,39,-1
 655 791 l 1,40,-1
 1061 791 l 1,41,42
 1010 877 1010 877 1010 983 c 0,43,44
 1010 1037 1010 1037 1051 1080 c 0,45,46
 1097 1128 1097 1128 1171 1128 c 0,47,48
 1284 1128 1284 1128 1347 1054 c 0,49,50
 1403 988 1403 988 1403 889 c 0,0,1
1341 870 m 0,51,52
 1341 973 1341 973 1225 973 c 0,53,54
 1102 973 1102 973 1102 850 c 0,55,56
 1102 816 1102 816 1120 786 c 1,57,58
 1142 784 1142 784 1167 784 c 0,59,60
 1341 784 1341 784 1341 870 c 0,51,52
518 870 m 0,61,62
 518 973 518 973 418 973 c 0,63,64
 351 973 351 973 314 942 c 1,65,66
 300 924 300 924 287 907 c 1,67,68
 276 760 276 760 397 760 c 0,69,70
 453 760 453 760 487 794 c 0,71,72
 518 826 518 826 518 870 c 0,61,62
EndSplineSet
Validated: 33
EndChar

StartChar: quotesingle
Encoding: 33 3207 42
Width: 1495
GlyphClass: 2
Flags: W
LayerCount: 2
Fore
SplineSet
1372 766 m 0,0,1
 1372 610 1372 610 1262 451 c 1,2,3
 1272 429 1272 429 1272 406 c 0,4,5
 1272 374 1272 374 1240 308 c 128,-1,6
 1208 242 1208 242 1208 201 c 0,7,8
 1208 139 1208 139 1264 139 c 0,9,10
 1324 139 1324 139 1329 229 c 1,11,-1
 1364 209 l 1,12,-1
 1364 139 l 2,13,14
 1364 77 1364 77 1323 41 c 1,15,16
 1286 10 1286 10 1231 8 c 0,17,18
 1173 6 1173 6 1130 44 c 0,19,20
 1083 86 1083 86 1083 156 c 0,21,22
 1083 177 1083 177 1118 257 c 0,23,24
 1155 343 1155 343 1159 367 c 1,25,26
 1055 309 1055 309 979 309 c 0,27,28
 881 309 881 309 819 369 c 0,29,30
 765 420 765 420 764 483 c 0,31,32
 763 547 763 547 821 592 c 0,33,34
 886 643 886 643 995 643 c 0,35,36
 1085 643 1085 643 1166 597 c 0,37,38
 1238 557 1238 557 1231 553 c 1,39,40
 1264 564 1264 564 1287.5 611 c 128,-1,41
 1311 658 1311 658 1311 711 c 0,42,43
 1311 808 1311 808 1233.5 884.5 c 128,-1,44
 1156 961 1156 961 1053 961 c 0,45,46
 932 961 932 961 861 903 c 0,47,48
 814 864 814 864 733 735 c 1,49,50
 659 961 659 961 434 961 c 0,51,52
 326 961 326 961 253 904.5 c 128,-1,53
 180 848 180 848 180 772 c 0,54,55
 180 610 180 610 422 610 c 1,56,57
 432 594 432 594 432 565 c 0,58,59
 432 502 432 502 360 502 c 0,60,61
 246 502 246 502 177 593 c 0,62,63
 113 677 113 677 113 799 c 0,64,65
 112 932 112 932 188 1024 c 0,66,67
 273 1128 273 1128 422 1128 c 0,68,69
 517 1128 517 1128 598 1055 c 0,70,71
 655 1004 655 1004 700 920 c 0,72,73
 733 859 733 859 733 850 c 1,74,75
 821 995 821 995 875 1048 c 1,76,77
 959 1128 959 1128 1071 1128 c 0,78,79
 1195 1128 1195 1128 1282 1030 c 1,80,81
 1372 927 1372 927 1372 766 c 0,0,1
1188 512 m 1,82,83
 1136 592 1136 592 1020 592 c 0,84,85
 967 592 967 592 934 566.5 c 128,-1,86
 901 541 901 541 901 508 c 0,87,88
 901 410 901 410 1016 410 c 0,89,90
 1119 410 1119 410 1188 512 c 1,82,83
EndSplineSet
Validated: 33
EndChar

StartChar: parenleft
Encoding: 34 3208 43
Width: 1942
GlyphClass: 2
Flags: W
LayerCount: 2
Fore
SplineSet
1835 764 m 0,0,1
 1835 571 1835 571 1688 508 c 1,2,3
 1829 367 1829 367 1829 229 c 0,4,5
 1829 132 1829 132 1775.5 66 c 128,-1,6
 1722 0 1722 0 1651 0 c 0,7,8
 1550 0 1550 0 1532 94 c 1,9,10
 1612 94 1612 94 1660 164 c 0,11,12
 1704 229 1704 229 1704 324 c 0,13,14
 1704 401 1704 401 1651 487 c 1,15,16
 1603 477 1603 477 1544 477 c 1,17,18
 1551 477 1551 477 1472 478 c 1,19,20
 1392 478 1392 478 1344 478 c 0,21,22
 1323 478 1323 478 1276 477 c 1,23,24
 1276 282 1276 282 1113 130 c 0,25,26
 957 -16 957 -16 774 -16 c 0,27,28
 586 -16 586 -16 436 130 c 0,29,30
 283 280 283 280 283 477 c 1,31,-1
 94 477 l 1,32,-1
 94 612 l 1,33,34
 316 610 316 610 311 612 c 1,35,36
 311 766 311 766 528 899 c 1,37,-1
 285 899 l 1,38,-1
 285 1071 l 1,39,-1
 967 1071 l 2,40,41
 1040 1071 1040 1071 1099 1119 c 128,-1,42
 1158 1167 1158 1167 1159 1227 c 0,43,44
 1161 1345 1161 1345 1073 1393 c 1,45,-1
 1128 1446 l 1,46,47
 1255 1378 1255 1378 1255 1176 c 0,48,49
 1255 1064 1255 1064 1201 985 c 0,50,51
 1142 899 1142 899 1044 899 c 1,52,53
 1253 763 1253 763 1253 612 c 1,54,55
 1329 611 1329 611 1532 612 c 1,56,57
 1448 714 1448 714 1448 850 c 0,58,59
 1448 936 1448 936 1501 986 c 0,60,61
 1549 1032 1549 1032 1620 1032 c 0,62,63
 1705 1032 1705 1032 1766 966 c 0,64,65
 1835 892 1835 892 1835 764 c 0,0,1
1155 612 m 1,66,67
 1155 724 1155 724 1081 808 c 0,68,69
 981 922 981 922 778 922 c 0,70,71
 599 922 599 922 491 808 c 0,72,73
 403 715 403 715 403 612 c 1,74,-1
 1155 612 l 1,66,67
1798 782 m 0,75,76
 1798 839 1798 839 1756 875 c 0,77,78
 1716 908 1716 908 1661 909 c 0,79,80
 1605 910 1605 910 1566 875 c 0,81,82
 1522 835 1522 835 1522 766 c 0,83,84
 1522 687 1522 687 1583 612 c 1,85,86
 1798 612 1798 612 1798 782 c 0,75,76
1151 477 m 1,87,-1
 406 477 l 1,88,89
 406 336 406 336 531 249 c 0,90,91
 639 174 639 174 774 174 c 0,92,93
 911 174 911 174 1022 249 c 0,94,95
 1151 336 1151 336 1151 477 c 1,87,-1
EndSplineSet
Validated: 33
EndChar

StartChar: parenright
Encoding: 35 3209 44
Width: 2089
GlyphClass: 2
Flags: W
LayerCount: 2
Fore
SplineSet
1993 504 m 0,0,1
 1993 291 1993 291 1895 144 c 0,2,3
 1789 -16 1789 -16 1614 -16 c 0,4,5
 1322 -16 1322 -16 1322 395 c 0,6,7
 1322 428 1322 428 1328 493 c 128,-1,8
 1334 558 1334 558 1334 591 c 0,9,10
 1334 755 1334 755 1259 863 c 0,11,12
 1189 963 1189 963 1098 963 c 0,13,14
 1008 963 1008 963 939.5 867 c 128,-1,15
 871 771 871 771 871 633 c 0,16,17
 871 580 871 580 883 526 c 0,18,19
 914 382 914 382 914 281 c 0,20,21
 914 -16 914 -16 625 -16 c 0,22,23
 400 -16 400 -16 254 208 c 0,24,25
 123 410 123 410 123 668 c 0,26,27
 123 858 123 858 190 984 c 0,28,29
 266 1126 266 1126 401 1126 c 0,30,31
 488 1126 488 1126 543 1026 c 0,32,33
 592 937 592 937 592 823 c 0,34,35
 592 713 592 713 547 638 c 0,36,37
 496 555 496 555 408 555 c 0,38,39
 261 555 261 555 201 770 c 1,40,41
 186 691 186 691 186 618 c 0,42,43
 186 186 186 186 582 186 c 0,44,45
 845 186 845 186 845 423 c 0,46,47
 845 490 845 490 825.5 581 c 128,-1,48
 806 672 806 672 806 754 c 0,49,50
 806 926 806 926 886 1031 c 1,51,52
 963 1130 963 1130 1083 1130 c 0,53,54
 1222 1130 1222 1130 1303 1009 c 0,55,56
 1387 884 1387 884 1387 659 c 0,57,58
 1387 586 1387 586 1378 506 c 0,59,60
 1376 488 1376 488 1376 469 c 0,61,62
 1376 352 1376 352 1453.5 269 c 128,-1,63
 1531 186 1531 186 1649 186 c 0,64,65
 1772 186 1772 186 1854 272 c 0,66,67
 1933 356 1933 356 1933 475 c 0,68,69
 1933 623 1933 623 1833 764 c 0,70,71
 1717 927 1717 927 1520 987 c 1,72,73
 1514 987 1514 987 1524 1025.5 c 128,-1,74
 1534 1064 1534 1064 1556 1091 c 0,75,76
 1586 1128 1586 1128 1633 1128 c 0,77,78
 1661 1128 1661 1128 1694 1114 c 0,79,80
 1836 1056 1836 1056 1919 866 c 0,81,82
 1993 699 1993 699 1993 504 c 0,0,1
543 811 m 0,83,84
 543 868 543 868 503 915 c 0,85,86
 456 971 456 971 383 971 c 0,87,88
 325 971 325 971 296 938 c 1,89,90
 273 900 273 900 250 862 c 1,91,92
 256 700 256 700 416 700 c 0,93,94
 477 700 477 700 511 734 c 0,95,96
 543 765 543 765 543 811 c 0,83,84
EndSplineSet
Validated: 1
EndChar

StartChar: asterisk
Encoding: 36 3210 45
Width: 2677
GlyphClass: 2
Flags: W
LayerCount: 2
Fore
SplineSet
2544 506 m 0,0,1
 2544 255 2544 255 2447 111 c 0,2,3
 2362 -16 2362 -16 2241 -16 c 0,4,5
 2134 -16 2134 -16 2055 70 c 0,6,7
 1970 161 1970 161 1970 297 c 0,8,9
 1970 592 1970 592 2175 592 c 0,10,11
 2245 592 2245 592 2295 553 c 0,12,13
 2349 511 2349 511 2349 444 c 0,14,15
 2349 391 2349 391 2316 359 c 0,16,17
 2287 330 2287 330 2247 330 c 0,18,19
 2162 330 2162 330 2152 403 c 0,20,21
 2146 450 2146 450 2175 475 c 0,22,23
 2198 495 2198 495 2230 495 c 0,24,25
 2238 495 2238 495 2245 494 c 1,26,27
 2245 526 2245 526 2165 526 c 0,28,29
 2111 526 2111 526 2068 484 c 0,30,31
 2019 436 2019 436 2019 360 c 0,32,33
 2019 278 2019 278 2084 230 c 0,34,35
 2142 186 2142 186 2228 186 c 0,36,37
 2340 186 2340 186 2415 262 c 0,38,39
 2503 351 2503 351 2503 516 c 0,40,41
 2503 691 2503 691 2380 820 c 0,42,43
 2263 942 2263 942 2122 942 c 0,44,45
 1999 942 1999 942 1919 843 c 0,46,47
 1830 734 1830 734 1830 543 c 0,48,49
 1830 472 1830 472 1843 393 c 0,50,51
 1851 343 1851 343 1851 298 c 0,52,53
 1851 148 1851 148 1769 60 c 1,54,55
 1696 -16 1696 -16 1595 -16 c 0,56,57
 1321 -16 1321 -16 1321 371 c 0,58,59
 1321 408 1321 408 1327.5 481 c 128,-1,60
 1334 554 1334 554 1334 591 c 0,61,62
 1334 755 1334 755 1259 863 c 0,63,64
 1189 963 1189 963 1098 963 c 0,65,66
 1008 963 1008 963 939.5 867 c 128,-1,67
 871 771 871 771 871 633 c 0,68,69
 871 580 871 580 883 526 c 0,70,71
 911 396 911 396 911 299 c 0,72,73
 911 -16 911 -16 604 -16 c 0,74,75
 370 -16 370 -16 237 208 c 0,76,77
 123 400 123 400 123 668 c 0,78,79
 123 858 123 858 190 984 c 0,80,81
 266 1126 266 1126 401 1126 c 0,82,83
 488 1126 488 1126 543 1026 c 0,84,85
 592 937 592 937 592 823 c 0,86,87
 592 713 592 713 547 638 c 0,88,89
 496 555 496 555 408 555 c 0,90,91
 261 555 261 555 201 770 c 1,92,93
 186 691 186 691 186 618 c 0,94,95
 186 186 186 186 582 186 c 0,96,97
 845 186 845 186 845 423 c 0,98,99
 845 478 845 478 826 584 c 128,-1,100
 807 690 807 690 807 745 c 0,101,102
 807 921 807 921 892 1028 c 0,103,104
 973 1130 973 1130 1096 1130 c 0,105,106
 1232 1130 1232 1130 1309 1012 c 0,107,108
 1388 890 1388 890 1388 668 c 0,109,110
 1388 592 1388 592 1378 506 c 0,111,112
 1375 477 1375 477 1375 450 c 0,113,114
 1375 334 1375 334 1429 264 c 0,115,116
 1488 186 1488 186 1597 186 c 0,117,118
 1800 186 1800 186 1800 404 c 0,119,120
 1800 448 1800 448 1789 534.5 c 128,-1,121
 1778 621 1778 621 1778 665 c 0,122,123
 1778 875 1778 875 1877 1006 c 0,124,125
 1970 1128 1970 1128 2105 1128 c 0,126,127
 2275 1128 2275 1128 2402 968 c 1,128,129
 2544 791 2544 791 2544 506 c 0,0,1
543 811 m 0,130,131
 543 868 543 868 503 915 c 0,132,133
 456 971 456 971 383 971 c 0,134,135
 325 971 325 971 296 938 c 1,136,137
 273 900 273 900 250 862 c 1,138,139
 256 700 256 700 416 700 c 0,140,141
 477 700 477 700 511 734 c 0,142,143
 543 765 543 765 543 811 c 0,130,131
EndSplineSet
Validated: 33
EndChar

StartChar: plus
Encoding: 37 3211 46
Width: 2482
GlyphClass: 2
Flags: W
LayerCount: 2
Fore
SplineSet
2384 487 m 0,0,1
 2384 275 2384 275 2297 139 c 0,2,3
 2198 -16 2198 -16 2015 -16 c 0,4,5
 1769 -16 1769 -16 1686 295 c 1,6,7
 1664 134 1664 134 1561 51 c 0,8,9
 1477 -16 1477 -16 1366 -16 c 0,10,11
 1235 -16 1235 -16 1118 81 c 0,12,13
 988 190 988 190 930 379 c 1,14,15
 903 262 903 262 849 179 c 0,16,17
 720 -20 720 -20 479 -20 c 0,18,19
 344 -20 344 -20 260 76 c 1,20,21
 184 161 184 161 184 274 c 0,22,23
 184 358 184 358 229 412 c 0,24,25
 278 471 278 471 365 471 c 0,26,27
 440 471 440 471 486 424 c 0,28,29
 528 381 528 381 528 319 c 1,30,31
 529 258 529 258 495 216 c 0,32,33
 457 170 457 170 391 170 c 0,34,35
 315 170 315 170 270 242 c 1,36,37
 267 228 267 228 267 213 c 0,38,39
 267 143 267 143 327.5 89 c 128,-1,40
 388 35 388 35 463 35 c 0,41,42
 604 35 604 35 689 192 c 0,43,44
 762 327 762 327 762 502 c 0,45,46
 762 1030 762 1030 481 1030 c 0,47,48
 410 1030 410 1030 363 990 c 1,49,50
 328 962 328 962 310 918 c 1,51,52
 304 899 304 899 299 881 c 1,53,54
 331 901 331 901 389 901 c 0,55,56
 448 901 448 901 491 863 c 0,57,58
 541 818 541 818 541 741 c 0,59,60
 541 669 541 669 494.5 629.5 c 128,-1,61
 448 590 448 590 383 592 c 0,62,63
 304 595 304 595 248 651 c 0,64,65
 184 714 184 714 184 815 c 0,66,67
 184 928 184 928 282 1006 c 0,68,69
 376 1081 376 1081 508 1081 c 0,70,71
 683 1081 683 1081 798 962 c 0,72,73
 936 819 936 819 936 541 c 1,74,75
 1053 186 1053 186 1317 186 c 0,76,77
 1426 186 1426 186 1495.5 251.5 c 128,-1,78
 1565 317 1565 317 1565 420 c 0,79,80
 1565 535 1565 535 1480 655 c 0,81,82
 1384 790 1384 790 1200 899 c 1,83,-1
 983 899 l 1,84,-1
 983 1071 l 1,85,-1
 1415 1071 l 2,86,87
 1515 1071 1515 1071 1566 1126 c 0,88,89
 1610 1172 1610 1172 1610 1245 c 0,90,91
 1610 1317 1610 1317 1524 1393 c 1,92,93
 1571 1441 1571 1441 1571 1438 c 1,94,95
 1704 1310 1704 1310 1704 1192 c 0,96,97
 1704 1078 1704 1078 1647 993 c 0,98,99
 1584 899 1584 899 1483 899 c 2,100,-1
 1276 899 l 1,101,102
 1694 680 1694 680 1694 391 c 0,103,104
 1694 354 1694 354 1692 336 c 1,105,106
 1771 186 1771 186 2032 186 c 0,107,108
 2151 186 2151 186 2236 253 c 0,109,110
 2335 331 2335 331 2335 465 c 0,111,112
 2335 779 2335 779 1892 901 c 0,113,114
 1804 926 1804 926 1804 998 c 0,115,116
 1804 1035 1804 1035 1830 1062.5 c 128,-1,117
 1856 1090 1856 1090 1896 1090 c 0,118,119
 2056 1090 2056 1090 2214 913 c 0,120,121
 2384 722 2384 722 2384 487 c 0,0,1
453 760 m 0,122,123
 453 833 453 833 371 846 c 1,124,125
 336 848 336 848 295 836 c 1,126,127
 285 784 285 784 285 786 c 1,128,129
 285 664 285 664 369 664 c 0,130,131
 400 664 400 664 424 688 c 0,132,133
 453 716 453 716 453 760 c 0,122,123
459 317 m 0,134,135
 459 426 459 426 369 426 c 0,136,137
 329 426 329 426 300.5 383 c 128,-1,138
 272 340 272 340 279 295 c 1,139,140
 286 237 286 237 373 236 c 1,141,142
 459 234 459 234 459 317 c 0,134,135
EndSplineSet
Validated: 33
EndChar

StartChar: hyphen
Encoding: 38 3214 48
Width: 1495
GlyphClass: 2
Flags: W
LayerCount: 2
Fore
SplineSet
1356 354 m 0,0,1
 1356 204 1356 204 1287 101 c 0,2,3
 1209 -16 1209 -16 1071 -16 c 0,4,5
 957 -16 957 -16 871 64 c 1,6,7
 810 123 810 123 768 215 c 1,8,9
 739 281 739 281 739 299 c 1,10,11
 739 282 739 282 710 215 c 1,12,13
 668 123 668 123 607 64 c 0,14,15
 523 -16 523 -16 414 -16 c 0,16,17
 266 -16 266 -16 184 98 c 0,18,19
 115 193 115 193 115 324 c 0,20,21
 115 469 115 469 190 546 c 0,22,23
 255 612 255 612 352 612 c 0,24,25
 431 612 431 612 490 564 c 128,-1,26
 549 516 549 516 549 444 c 0,27,28
 549 396 549 396 516 365 c 0,29,30
 488 340 488 340 457 340 c 1,31,32
 465 368 465 368 465 389 c 0,33,34
 465 435 465 435 426.5 461 c 128,-1,35
 388 487 388 487 334 487 c 0,36,37
 272 487 272 487 227 454 c 1,38,39
 176 418 176 418 176 358 c 0,40,41
 176 277 176 277 235 231.5 c 128,-1,42
 294 186 294 186 395 186 c 0,43,44
 662 186 662 186 739 440 c 1,45,46
 739 390 739 390 797 311 c 0,47,48
 888 186 888 186 1059 186 c 0,49,50
 1166 186 1166 186 1232 265 c 128,-1,51
 1298 344 1298 344 1298 477 c 0,52,53
 1298 644 1298 644 1103 792 c 0,54,55
 899 946 899 946 650 946 c 0,56,57
 581 946 581 946 514 932 c 0,58,59
 498 929 498 929 483 929 c 0,60,61
 395 929 395 929 395 1010 c 0,62,63
 395 1056 395 1056 448 1090 c 0,64,65
 509 1128 509 1128 614 1128 c 0,66,67
 853 1128 853 1128 1073 956 c 0,68,69
 1356 734 1356 734 1356 354 c 0,0,1
EndSplineSet
Validated: 1
EndChar

StartChar: period
Encoding: 39 3215 49
Width: 1495
GlyphClass: 2
Flags: W
LayerCount: 2
Fore
SplineSet
1360 469 m 0,0,1
 1360 262 1360 262 1279 131 c 0,2,3
 1190 -14 1190 -14 1030 -14 c 0,4,5
 813 -14 813 -14 735 297 c 1,6,7
 670 -14 670 -14 438 -14 c 0,8,9
 281 -14 281 -14 189 106 c 1,10,11
 113 207 113 207 113 340 c 0,12,13
 113 479 113 479 191 557 c 0,14,15
 261 626 261 626 356 623 c 0,16,17
 433 620 433 620 485 570 c 0,18,19
 541 517 541 517 541 432 c 0,20,21
 541 366 541 366 495 322 c 0,22,23
 456 285 456 285 410 285 c 0,24,25
 385 285 385 285 367 311 c 1,26,27
 455 329 455 329 455 422 c 0,28,29
 455 472 455 472 414 501 c 1,30,31
 378 528 378 528 324 528 c 0,32,33
 261 528 261 528 217 491 c 0,34,35
 168 450 168 450 168 379 c 0,36,37
 168 186 168 186 416 186 c 0,38,39
 650 186 650 186 741 428 c 1,40,41
 801 186 801 186 1044 186 c 0,42,43
 1174 186 1174 186 1242 287 c 0,44,45
 1303 377 1303 377 1303 526 c 0,46,47
 1303 746 1303 746 1155 931 c 0,48,49
 989 1139 989 1139 741 1139 c 1,50,51
 754 1056 754 1056 754 1024 c 0,52,53
 754 941 754 941 689 876 c 128,-1,54
 624 811 624 811 541 811 c 0,55,56
 412 811 412 811 337 901 c 0,57,58
 254 1000 254 1000 254 1188 c 2,59,-1
 254 1237 l 1,60,-1
 305 1237 l 1,61,62
 305 1118 305 1118 381 1044 c 0,63,64
 448 979 448 979 537 979 c 0,65,66
 598 979 598 979 636 1018 c 0,67,68
 678 1060 678 1060 678 1133 c 0,69,70
 678 1174 678 1174 655 1208 c 0,71,72
 638 1233 638 1233 635 1233 c 1,73,74
 971 1233 971 1233 1178 979 c 0,75,76
 1360 756 1360 756 1360 469 c 0,0,1
EndSplineSet
Validated: 33
EndChar

StartChar: slash
Encoding: 40 3216 50
Width: 1495
GlyphClass: 2
Flags: W
LayerCount: 2
Fore
SplineSet
1352 475 m 0,0,1
 1352 269 1352 269 1271 133 c 0,2,3
 1181 -16 1181 -16 1022 -16 c 0,4,5
 899 -16 899 -16 808 119 c 0,6,7
 741 219 741 219 741 258 c 1,8,9
 741 245 741 245 708 185 c 0,10,11
 663 104 663 104 603 54 c 0,12,13
 520 -16 520 -16 422 -16 c 0,14,15
 282 -16 282 -16 195 106 c 0,16,17
 119 214 119 214 119 352 c 0,18,19
 119 477 119 477 196 556 c 0,20,21
 265 627 265 627 358 627 c 0,22,23
 437 627 437 627 488 584 c 0,24,25
 545 536 545 536 545 446 c 0,26,27
 545 382 545 382 491 340 c 0,28,29
 446 305 446 305 397 305 c 0,30,31
 380 305 380 305 367 322 c 1,32,33
 457 344 457 344 457 430 c 0,34,35
 457 485 457 485 411 515 c 0,36,37
 371 541 371 541 311 541 c 0,38,39
 258 541 258 541 219 499 c 128,-1,40
 180 457 180 457 180 389 c 0,41,42
 180 186 180 186 416 186 c 0,43,44
 671 186 671 186 741 428 c 1,45,46
 753 395 753 395 764 363 c 1,47,48
 795 291 795 291 848 248 c 0,49,50
 923 186 923 186 1032 186 c 0,51,52
 1168 186 1168 186 1242 280 c 0,53,54
 1307 364 1307 364 1307 496 c 0,55,56
 1307 667 1307 667 1221 798 c 0,57,58
 1122 950 1122 950 956 950 c 0,59,60
 742 950 742 950 684 733 c 1,61,62
 608 948 608 948 391 948 c 0,63,64
 308 948 308 948 247 915.5 c 128,-1,65
 186 883 186 883 186 834 c 0,66,67
 186 793 186 793 207 748 c 1,68,69
 175 748 175 748 144 777 c 0,70,71
 100 818 100 818 100 893 c 0,72,73
 100 1002 100 1002 187 1067 c 0,74,75
 265 1126 265 1126 379 1126 c 0,76,77
 599 1126 599 1126 678 883 c 1,78,79
 721 1126 721 1126 934 1126 c 0,80,81
 1167 1126 1167 1126 1272 911 c 0,82,83
 1352 748 1352 748 1352 475 c 0,0,1
EndSplineSet
Validated: 1
EndChar

StartChar: zero
Encoding: 41 3218 51
Width: 1495
GlyphClass: 2
Flags: W
LayerCount: 2
Fore
SplineSet
1378 317 m 0,0,1
 1378 173 1378 173 1301 81 c 1,2,3
 1218 -16 1218 -16 1073 -16 c 0,4,5
 918 -16 918 -16 820 117 c 1,6,7
 754 209 754 209 754 254 c 1,8,9
 754 242 754 242 716 182 c 0,10,11
 667 103 667 103 605 53 c 0,12,13
 519 -16 519 -16 422 -16 c 0,14,15
 296 -16 296 -16 209.5 66.5 c 128,-1,16
 123 149 123 149 123 272 c 0,17,18
 123 396 123 396 212 496 c 1,19,20
 294 569 294 569 376 642 c 0,21,22
 465 722 465 722 465 795 c 0,23,24
 465 973 465 973 319 973 c 0,25,26
 180 973 180 973 180 836 c 0,27,28
 180 746 180 746 295 702 c 1,29,30
 258 696 258 696 248 696 c 0,31,32
 182 696 182 696 131 740 c 0,33,34
 70 792 70 792 70 885 c 0,35,36
 70 995 70 995 134 1061.5 c 128,-1,37
 198 1128 198 1128 303 1128 c 0,38,39
 411 1128 411 1128 484 1055 c 0,40,41
 561 979 561 979 561 858 c 0,42,43
 561 752 561 752 477 667 c 1,44,45
 398 600 398 600 320 533 c 1,46,47
 236 451 236 451 236 352 c 0,48,49
 236 186 236 186 463 186 c 0,50,51
 667 186 667 186 752 442 c 1,52,53
 745 436 745 436 767 375 c 0,54,55
 793 300 793 300 846 252 c 0,56,57
 919 186 919 186 1034 186 c 0,58,59
 1152 186 1152 186 1226 248 c 0,60,61
 1294 304 1294 304 1294 379 c 0,62,63
 1294 441 1294 441 1249 480 c 0,64,65
 1199 524 1199 524 1106 524 c 0,66,67
 1097 524 1097 524 1116.5 544.5 c 128,-1,68
 1136 565 1136 565 1169 565 c 0,69,70
 1269 565 1269 565 1327 487 c 0,71,72
 1378 418 1378 418 1378 317 c 0,0,1
EndSplineSet
Validated: 37
EndChar

StartChar: one
Encoding: 42 3219 52
Width: 1495
GlyphClass: 2
Flags: W
LayerCount: 2
Fore
SplineSet
1378 317 m 0,0,1
 1378 189 1378 189 1301 92 c 0,2,3
 1214 -16 1214 -16 1073 -16 c 0,4,5
 914 -16 914 -16 818 117 c 0,6,7
 754 207 754 207 754 254 c 1,8,9
 754 242 754 242 716 182 c 0,10,11
 667 103 667 103 605 53 c 0,12,13
 519 -16 519 -16 422 -16 c 0,14,15
 296 -16 296 -16 209.5 66.5 c 128,-1,16
 123 149 123 149 123 272 c 0,17,18
 123 396 123 396 212 496 c 1,19,20
 294 569 294 569 376 642 c 0,21,22
 465 722 465 722 465 795 c 0,23,24
 465 973 465 973 319 973 c 0,25,26
 180 973 180 973 180 836 c 0,27,28
 180 746 180 746 295 702 c 1,29,30
 258 696 258 696 248 696 c 0,31,32
 182 696 182 696 131 740 c 0,33,34
 70 792 70 792 70 885 c 0,35,36
 70 1046 70 1046 193 1104 c 1,37,38
 72 1167 72 1167 72 1282 c 0,39,40
 72 1438 72 1438 268 1438 c 0,41,42
 331 1438 331 1438 395 1401 c 1,43,44
 213 1389 213 1389 213 1262 c 0,45,46
 213 1163 213 1163 283 1128 c 1,47,-1
 303 1128 l 2,48,49
 411 1128 411 1128 484 1055 c 0,50,51
 561 979 561 979 561 858 c 0,52,53
 561 752 561 752 477 667 c 1,54,55
 398 600 398 600 320 533 c 1,56,57
 236 451 236 451 236 352 c 0,58,59
 236 186 236 186 463 186 c 0,60,61
 656 186 656 186 752 442 c 1,62,63
 746 436 746 436 769 375 c 0,64,65
 797 300 797 300 850 252 c 0,66,67
 924 186 924 186 1034 186 c 0,68,69
 1152 186 1152 186 1226 248 c 0,70,71
 1294 304 1294 304 1294 379 c 0,72,73
 1294 441 1294 441 1249 480 c 0,74,75
 1199 524 1199 524 1106 524 c 0,76,77
 1097 524 1097 524 1116.5 544.5 c 128,-1,78
 1136 565 1136 565 1169 565 c 0,79,80
 1269 565 1269 565 1327 487 c 0,81,82
 1378 418 1378 418 1378 317 c 0,0,1
EndSplineSet
Validated: 37
EndChar

StartChar: two
Encoding: 43 3220 53
Width: 1495
GlyphClass: 2
Flags: W
LayerCount: 2
Fore
SplineSet
1399 1053 m 0,0,1
 1399 895 1399 895 1318 791 c 1,2,3
 1230 676 1230 676 1079 676 c 0,4,5
 937 676 937 676 853 768 c 0,6,7
 778 850 778 850 778 967 c 0,8,9
 778 1066 778 1066 836 1134 c 0,10,11
 899 1208 899 1208 1004 1208 c 0,12,13
 1091 1208 1091 1208 1143 1145 c 1,14,15
 1188 1088 1188 1088 1188 1008 c 0,16,17
 1188 949 1188 949 1156 910 c 0,18,19
 1122 868 1122 868 1065 868 c 0,20,21
 948 868 948 868 948 958 c 0,22,23
 948 991 948 991 971 1016.5 c 128,-1,24
 994 1042 994 1042 1030 1042 c 0,25,26
 1093 1042 1093 1042 1128 999 c 1,27,28
 1128 1059 1128 1059 1095 1101 c 0,29,30
 1059 1147 1059 1147 999 1147 c 0,31,32
 926 1147 926 1147 879 1083 c 0,33,34
 838 1026 838 1026 838 950 c 0,35,36
 838 878 838 878 897 829 c 0,37,38
 964 774 964 774 1085 774 c 0,39,40
 1211 774 1211 774 1286 861 c 0,41,42
 1354 940 1354 940 1354 1053 c 0,43,44
 1354 1159 1354 1159 1272.5 1244 c 128,-1,45
 1191 1329 1191 1329 1079 1329 c 2,46,-1
 541 1329 l 1,47,48
 595 1272 595 1272 595 1206 c 0,49,50
 595 1150 595 1150 556.5 1111.5 c 128,-1,51
 518 1073 518 1073 459 1073 c 1,52,53
 561 999 561 999 561 858 c 0,54,55
 561 752 561 752 477 667 c 1,56,57
 398 600 398 600 320 533 c 1,58,59
 236 451 236 451 236 352 c 0,60,61
 236 186 236 186 463 186 c 0,62,63
 661 186 661 186 752 442 c 1,64,65
 746 437 746 437 769 375 c 0,66,67
 798 300 798 300 851 252 c 0,68,69
 925 186 925 186 1034 186 c 0,70,71
 1152 186 1152 186 1226 248 c 0,72,73
 1294 304 1294 304 1294 379 c 0,74,75
 1294 441 1294 441 1249 480 c 0,76,77
 1199 524 1199 524 1106 524 c 0,78,79
 1097 524 1097 524 1116.5 544.5 c 128,-1,80
 1136 565 1136 565 1169 565 c 0,81,82
 1269 565 1269 565 1327 487 c 0,83,84
 1378 418 1378 418 1378 317 c 0,85,86
 1378 189 1378 189 1301 92 c 0,87,88
 1214 -16 1214 -16 1073 -16 c 0,89,90
 926 -16 926 -16 825 117 c 0,91,92
 754 212 754 212 754 254 c 1,93,94
 754 243 754 243 714 182 c 0,95,96
 662 103 662 103 600 53 c 0,97,98
 514 -16 514 -16 422 -16 c 0,99,100
 296 -16 296 -16 209.5 66.5 c 128,-1,101
 123 149 123 149 123 272 c 0,102,103
 123 396 123 396 212 496 c 1,104,105
 294 569 294 569 376 642 c 0,106,107
 465 722 465 722 465 795 c 0,108,109
 465 973 465 973 319 973 c 0,110,111
 180 973 180 973 180 836 c 0,112,113
 180 746 180 746 295 702 c 1,114,115
 258 696 258 696 248 696 c 0,116,117
 182 696 182 696 131 740 c 0,118,119
 70 792 70 792 70 885 c 0,120,121
 70 1010 70 1010 150 1077 c 1,122,-1
 150 1167 l 1,123,-1
 463 1167 l 2,124,125
 518 1167 518 1167 518 1244 c 0,126,127
 518 1320 518 1320 475 1331 c 1,128,-1
 150 1331 l 1,129,-1
 150 1479 l 1,130,-1
 981 1479 l 2,131,132
 1183 1479 1183 1479 1298 1342 c 0,133,134
 1399 1222 1399 1222 1399 1053 c 0,0,1
EndSplineSet
Validated: 37
EndChar

StartChar: three
Encoding: 44 3221 54
Width: 995
GlyphClass: 2
Flags: W
LayerCount: 2
Fore
SplineSet
916 598 m 1,0,-1
 697 598 l 1,1,2
 752 567 752 567 797 500 c 0,3,4
 852 417 852 417 852 322 c 0,5,6
 852 159 852 159 747 66 c 0,7,8
 653 -16 653 -16 517 -16 c 0,9,10
 379 -16 379 -16 286 66 c 0,11,12
 181 158 181 158 181 322 c 0,13,14
 181 417 181 417 236 500 c 0,15,16
 281 567 281 567 336 598 c 1,17,-1
 103 598 l 1,18,-1
 103 733 l 1,19,-1
 498 733 l 1,20,21
 535 758 535 758 535 815 c 0,22,23
 535 866 535 866 494 899 c 1,24,-1
 103 899 l 1,25,-1
 103 1071 l 1,26,-1
 605 1071 l 2,27,28
 826 1071 826 1071 826 1245 c 0,29,30
 826 1317 826 1317 740 1393 c 1,31,-1
 783 1438 l 1,32,33
 916 1310 916 1310 916 1192 c 0,34,35
 916 1078 916 1078 860 993 c 0,36,37
 798 899 798 899 697 899 c 2,38,-1
 592 899 l 1,39,40
 635 865 635 865 635 815 c 0,41,42
 635 766 635 766 607 733 c 1,43,-1
 916 733 l 1,44,-1
 916 598 l 1,0,-1
752 391 m 0,45,46
 752 487 752 487 693 550 c 0,47,48
 628 618 628 618 517 618 c 0,49,50
 416 618 416 618 345.5 550.5 c 128,-1,51
 275 483 275 483 275 391 c 0,52,53
 275 286 275 286 350 228 c 0,54,55
 417 176 417 176 517 176 c 0,56,57
 613 176 613 176 678 228 c 0,58,59
 752 286 752 286 752 391 c 0,45,46
EndSplineSet
Substitution2: "Single Substitution lookup 17 subtable" glyph131
EndChar

StartChar: four
Encoding: 45 3222 55
Width: 1659
GlyphClass: 2
Flags: W
LayerCount: 2
Fore
SplineSet
1556 469 m 0,0,1
 1556 260 1556 260 1464 133 c 0,2,3
 1355 -16 1355 -16 1139 -16 c 0,4,5
 949 -16 949 -16 788 244 c 1,6,7
 609 -16 609 -16 383 -16 c 0,8,9
 262 -16 262 -16 188 75 c 0,10,11
 125 153 125 153 125 250 c 0,12,13
 125 352 125 352 190 419 c 0,14,15
 269 500 269 500 422 500 c 0,16,17
 591 500 591 500 752 356 c 1,18,19
 836 457 836 457 836 641 c 0,20,21
 836 769 836 769 763 861 c 1,22,23
 684 963 684 963 553 963 c 0,24,25
 344 963 344 963 344 821 c 0,26,27
 344 771 344 771 390 739 c 0,28,29
 431 711 431 711 479 711 c 1,30,31
 459 721 459 721 459 772 c 0,32,33
 459 806 459 806 484 827 c 128,-1,34
 509 848 509 848 543 848 c 0,35,36
 643 848 643 848 643 748 c 0,37,38
 643 690 643 690 599 656 c 0,39,40
 559 625 559 625 500 625 c 0,41,42
 414 625 414 625 344 695.5 c 128,-1,43
 274 766 274 766 274 846 c 0,44,45
 274 949 274 949 333 1025 c 0,46,47
 403 1116 403 1116 530 1116 c 0,48,49
 699 1116 699 1116 803 955 c 0,50,51
 895 814 895 814 895 629 c 0,52,53
 895 426 895 426 819 322 c 1,54,55
 927 188 927 188 1106 188 c 0,56,57
 1306 188 1306 188 1409 289 c 0,58,59
 1499 376 1499 376 1499 518 c 0,60,61
 1499 691 1499 691 1399 853.5 c 128,-1,62
 1299 1016 1299 1016 1171 1040 c 1,63,64
 1083 1046 1083 1046 963 1069 c 1,65,66
 923 1091 923 1091 923 1128 c 0,67,68
 923 1148 923 1148 936 1167 c 0,69,70
 965 1210 965 1210 1042 1210 c 0,71,72
 1079 1210 1079 1210 1133 1202 c 0,73,74
 1327 1173 1327 1173 1441 981 c 1,75,76
 1556 784 1556 784 1556 469 c 0,0,1
702 297 m 1,77,78
 567 442 567 442 406 442 c 0,79,80
 199 442 199 442 199 305 c 0,81,82
 199 264 199 264 232 229 c 0,83,84
 271 188 271 188 336 188 c 0,85,86
 556 188 556 188 702 297 c 1,77,78
EndSplineSet
Validated: 1
Substitution2: "Single Substitution lookup 17 subtable" glyph132
EndChar

StartChar: five
Encoding: 46 3223 56
Width: 1212
GlyphClass: 2
Flags: W
LayerCount: 2
Fore
SplineSet
1116 0 m 1,0,-1
 946 0 l 1,1,2
 946 455 946 455 869 671 c 0,3,4
 788 899 788 899 610 899 c 0,5,6
 270 899 270 899 270 0 c 1,7,-1
 100 0 l 1,8,9
 100 380 100 380 168 559 c 0,10,11
 225 709 225 709 416 899 c 1,12,-1
 100 899 l 1,13,-1
 100 1071 l 1,14,-1
 801 1071 l 2,15,16
 1022 1071 1022 1071 1022 1245 c 0,17,18
 1022 1317 1022 1317 936 1393 c 1,19,-1
 981 1438 l 1,20,21
 1114 1310 1114 1310 1114 1192 c 0,22,23
 1114 899 1114 899 803 899 c 1,24,25
 993 709 993 709 1049 559 c 0,26,27
 1116 381 1116 381 1116 0 c 1,0,-1
EndSplineSet
Validated: 1
Substitution2: "Single Substitution lookup 17 subtable" glyph133
EndChar

StartChar: six
Encoding: 47 3224 57
Width: 1741
GlyphClass: 2
Flags: W
LayerCount: 2
Fore
SplineSet
1563 1192 m 0,0,1
 1563 899 1563 899 1251 899 c 2,2,-1
 98 899 l 1,3,-1
 98 1071 l 1,4,-1
 1251 1071 l 2,5,6
 1473 1071 1473 1071 1473 1245 c 0,7,8
 1473 1317 1473 1317 1386 1393 c 1,9,-1
 1430 1438 l 1,10,11
 1563 1310 1563 1310 1563 1192 c 0,0,1
811 690 m 0,12,13
 811 641 811 641 776 607 c 128,-1,14
 741 573 741 573 690 573 c 0,15,16
 641 573 641 573 607 607 c 128,-1,17
 573 641 573 641 573 690 c 0,18,19
 573 741 573 741 607 776 c 128,-1,20
 641 811 641 811 690 811 c 0,21,22
 741 811 741 811 776 776 c 128,-1,23
 811 741 811 741 811 690 c 0,12,13
1450 838 m 0,24,25
 1565 751 1565 751 1565 615 c 0,26,27
 1565 470 1565 470 1421 469 c 0,28,29
 1355 468 1355 468 1288 516 c 1,30,31
 1316 452 1316 452 1316 367 c 0,32,33
 1316 218 1316 218 1239 109 c 0,34,35
 1150 -16 1150 -16 999 -16 c 0,36,37
 882 -16 882 -16 777 102 c 1,38,39
 734 161 734 161 692 221 c 1,40,41
 597 -14 597 -14 393 -14 c 0,42,43
 233 -14 233 -14 149 118 c 0,44,45
 82 223 82 223 82 371 c 0,46,47
 82 499 82 499 158 574 c 0,48,49
 225 641 225 641 320 641 c 0,50,51
 402 641 402 641 456 590 c 1,52,53
 517 534 517 534 516 438 c 0,54,55
 516 380 516 380 462 337 c 1,56,57
 415 301 415 301 367 301 c 0,58,59
 328 301 328 301 328 330 c 1,60,61
 419 356 419 356 418 434 c 0,62,63
 417 483 417 483 376 515 c 0,64,65
 338 544 338 544 285 544 c 0,66,67
 227 544 227 544 188 506 c 0,68,69
 143 462 143 462 143 381 c 0,70,71
 143 193 143 193 389 193 c 0,72,73
 563 193 563 193 642 301 c 0,74,75
 688 364 688 364 688 416 c 1,76,77
 688 371 688 371 744 302 c 0,78,79
 834 193 834 193 1004 193 c 0,80,81
 1221 193 1221 193 1221 333 c 0,82,83
 1221 445 1221 445 1065 575 c 0,84,85
 1001 629 1001 629 1001 679 c 0,86,87
 1001 708 1001 708 1023 728 c 0,88,89
 1042 746 1042 746 1065 745 c 0,90,91
 1114 744 1114 744 1185 672 c 128,-1,92
 1256 600 1256 600 1366 598 c 0,93,94
 1466 596 1466 596 1466 651 c 0,95,96
 1466 700 1466 700 1386 797 c 0,97,98
 1382 802 1382 802 1382 808 c 0,99,100
 1382 821 1382 821 1397.5 832.5 c 128,-1,101
 1413 844 1413 844 1430 844 c 0,102,103
 1441 844 1441 844 1450 838 c 0,24,25
823 -295 m 0,104,105
 823 -353 823 -353 787 -386 c 0,106,107
 755 -414 755 -414 709 -414 c 256,108,109
 663 -414 663 -414 632 -385 c 0,110,111
 598 -353 598 -353 598 -303 c 0,112,113
 598 -246 598 -246 709 -4 c 1,114,115
 823 -242 823 -242 823 -295 c 0,104,105
EndSplineSet
Validated: 33
Substitution2: "Single Substitution lookup 17 subtable" glyph134
EndChar

StartChar: seven
Encoding: 48 3225 58
Width: 1460
GlyphClass: 2
Flags: W
LayerCount: 2
Fore
SplineSet
920 690 m 256,0,1
 920 642 920 642 886 608.5 c 128,-1,2
 852 575 852 575 803 575 c 0,3,4
 755 575 755 575 721.5 609 c 128,-1,5
 688 643 688 643 688 690 c 0,6,7
 688 738 688 738 721.5 772.5 c 128,-1,8
 755 807 755 807 803 807 c 0,9,10
 852 807 852 807 886 772.5 c 128,-1,11
 920 738 920 738 920 690 c 256,0,1
1378 317 m 0,12,13
 1378 189 1378 189 1301 92 c 0,14,15
 1214 -16 1214 -16 1073 -16 c 0,16,17
 914 -16 914 -16 818 117 c 0,18,19
 754 207 754 207 754 254 c 1,20,21
 754 242 754 242 718 182 c 0,22,23
 670 103 670 103 608 53 c 0,24,25
 522 -16 522 -16 422 -16 c 0,26,27
 296 -16 296 -16 209.5 66.5 c 128,-1,28
 123 149 123 149 123 272 c 0,29,30
 123 396 123 396 212 496 c 1,31,32
 294 569 294 569 376 642 c 0,33,34
 465 722 465 722 465 795 c 0,35,36
 465 973 465 973 319 973 c 0,37,38
 180 973 180 973 180 836 c 0,39,40
 180 746 180 746 295 702 c 1,41,42
 258 696 258 696 248 696 c 0,43,44
 182 696 182 696 131 740 c 0,45,46
 70 792 70 792 70 885 c 0,47,48
 70 995 70 995 134 1061.5 c 128,-1,49
 198 1128 198 1128 303 1128 c 0,50,51
 406 1128 406 1128 481 1062 c 0,52,53
 561 992 561 992 561 883 c 1,54,55
 805 1126 805 1126 1028 1126 c 0,56,57
 1194 1126 1194 1126 1280 1036 c 0,58,59
 1352 961 1352 961 1352 848 c 0,60,61
 1352 765 1352 765 1311 710 c 128,-1,62
 1270 655 1270 655 1212 655 c 1,63,64
 1239 715 1239 715 1239 774 c 0,65,66
 1239 971 1239 971 967 971 c 0,67,68
 743 971 743 971 549 776 c 1,69,70
 525 705 525 705 441 634 c 0,71,72
 307 519 307 519 304 515 c 0,73,74
 236 442 236 442 236 352 c 0,75,76
 236 188 236 188 463 188 c 0,77,78
 661 188 661 188 752 442 c 1,79,80
 746 436 746 436 768 376 c 0,81,82
 796 301 796 301 849 254 c 0,83,84
 922 188 922 188 1034 188 c 0,85,86
 1152 188 1152 188 1226 249 c 0,87,88
 1294 304 1294 304 1294 379 c 0,89,90
 1294 441 1294 441 1249 480 c 0,91,92
 1199 524 1199 524 1106 524 c 0,93,94
 1097 524 1097 524 1116.5 544.5 c 128,-1,95
 1136 565 1136 565 1169 565 c 0,96,97
 1269 565 1269 565 1327 487 c 0,98,99
 1378 418 1378 418 1378 317 c 0,12,13
EndSplineSet
Validated: 37
Substitution2: "Single Substitution lookup 17 subtable" glyph135
EndChar

StartChar: eight
Encoding: 49 3226 59
Width: 1460
GlyphClass: 2
Flags: W
LayerCount: 2
Fore
SplineSet
1403 592 m 1,0,-1
 1204 592 l 2,1,2
 1247 592 1247 592 1310 501 c 0,3,4
 1378 403 1378 403 1378 317 c 0,5,6
 1378 189 1378 189 1301 92 c 0,7,8
 1214 -16 1214 -16 1073 -16 c 0,9,10
 906 -16 906 -16 814 117 c 0,11,12
 754 203 754 203 754 254 c 1,13,14
 754 243 754 243 715 182 c 0,15,16
 665 103 665 103 603 53 c 0,17,18
 518 -16 518 -16 422 -16 c 0,19,20
 296 -16 296 -16 209.5 66.5 c 128,-1,21
 123 149 123 149 123 272 c 0,22,23
 123 396 123 396 212 496 c 1,24,25
 294 569 294 569 376 642 c 0,26,27
 465 722 465 722 465 795 c 0,28,29
 465 973 465 973 319 973 c 0,30,31
 180 973 180 973 180 836 c 0,32,33
 180 746 180 746 295 702 c 1,34,35
 258 696 258 696 248 696 c 0,36,37
 182 696 182 696 131 740 c 0,38,39
 70 792 70 792 70 885 c 0,40,41
 70 995 70 995 134 1061.5 c 128,-1,42
 198 1128 198 1128 303 1128 c 0,43,44
 411 1128 411 1128 484 1055 c 0,45,46
 561 979 561 979 561 858 c 0,47,48
 561 752 561 752 477 667 c 1,49,50
 398 600 398 600 320 533 c 1,51,52
 236 451 236 451 236 352 c 0,53,54
 236 186 236 186 463 186 c 0,55,56
 674 186 674 186 752 442 c 1,57,58
 745 436 745 436 766 375 c 0,59,60
 792 300 792 300 845 252 c 0,61,62
 919 186 919 186 1034 186 c 0,63,64
 1152 186 1152 186 1226 248 c 0,65,66
 1294 304 1294 304 1294 379 c 0,67,68
 1294 430 1294 430 1222 514 c 0,69,70
 1155 592 1155 592 1128 592 c 2,71,-1
 852 592 l 1,72,-1
 852 764 l 1,73,-1
 1147 764 l 2,74,75
 1214 764 1214 764 1214 833 c 0,76,77
 1214 899 1214 899 1155 899 c 2,78,-1
 860 899 l 1,79,-1
 860 1071 l 1,80,-1
 1092 1071 l 2,81,82
 1313 1071 1313 1071 1313 1245 c 0,83,84
 1313 1317 1313 1317 1227 1393 c 1,85,-1
 1270 1438 l 1,86,87
 1403 1310 1403 1310 1403 1192 c 0,88,89
 1403 986 1403 986 1243 924 c 1,90,91
 1299 854 1299 854 1299 802 c 0,92,93
 1299 781 1299 781 1290 764 c 1,94,-1
 1403 764 l 1,95,-1
 1403 592 l 1,0,-1
EndSplineSet
Validated: 37
Substitution2: "Single Substitution lookup 17 subtable" glyph136
EndChar

StartChar: nine
Encoding: 50 3227 60
Width: 1460
GlyphClass: 2
Flags: W
LayerCount: 2
Fore
SplineSet
1374 365 m 0,0,1
 1373 205 1373 205 1303 99 c 0,2,3
 1226 -16 1226 -16 1096 -16 c 256,4,5
 966 -16 966 -16 851 118 c 0,6,7
 777 203 777 203 760 256 c 1,8,9
 632 -16 632 -16 440 -16 c 0,10,11
 284 -16 284 -16 191 163 c 1,12,13
 109 325 109 325 109 555 c 0,14,15
 109 774 109 774 183 922 c 0,16,17
 265 1085 265 1085 408 1085 c 0,18,19
 502 1085 502 1085 556 1004 c 0,20,21
 604 932 604 932 604 823 c 0,22,23
 604 717 604 717 556 644 c 0,24,25
 502 563 502 563 410 563 c 0,26,27
 339 563 339 563 295 612 c 0,28,29
 264 646 264 646 248 702 c 0,30,31
 235 747 235 747 236 748 c 1,32,33
 157 653 157 653 160 504 c 0,34,35
 162 372 162 372 230 287 c 0,36,37
 309 188 309 188 455 188 c 0,38,39
 683 188 683 188 760 393 c 1,40,41
 771 366 771 366 782 339 c 1,42,43
 815 279 815 279 866 241 c 0,44,45
 938 188 938 188 1040 188 c 0,46,47
 1186 188 1186 188 1248.5 233 c 128,-1,48
 1311 278 1311 278 1311 383 c 0,49,50
 1311 667 1311 667 1081 812 c 0,51,52
 986 872 986 872 852 899 c 1,53,-1
 852 1071 l 1,54,-1
 1061 1071 l 2,55,56
 1282 1071 1282 1071 1282 1245 c 0,57,58
 1282 1317 1282 1317 1196 1393 c 1,59,-1
 1241 1438 l 1,60,61
 1374 1310 1374 1310 1374 1192 c 0,62,63
 1374 899 1374 899 1061 899 c 2,64,-1
 1020 899 l 1,65,66
 1187 864 1187 864 1286 699 c 0,67,68
 1375 549 1375 549 1374 365 c 0,0,1
846 -297 m 0,69,70
 846 -355 846 -355 810 -387 c 1,71,72
 779 -417 779 -417 733 -416 c 0,73,74
 686 -415 686 -415 654 -387 c 0,75,76
 618 -356 618 -356 618 -305 c 0,77,78
 618 -246 618 -246 729 -4 c 1,79,80
 846 -246 846 -246 846 -297 c 0,69,70
549 827 m 0,81,82
 549 869 549 869 520 899 c 1,83,84
 488 930 488 930 438 930 c 0,85,86
 317 930 317 930 285 844 c 1,87,88
 285 717 285 717 408 717 c 0,89,90
 475 717 475 717 514 752 c 0,91,92
 549 783 549 783 549 827 c 0,81,82
EndSplineSet
Validated: 37
Substitution2: "Single Substitution lookup 17 subtable" glyph137
EndChar

StartChar: colon
Encoding: 51 3228 61
Width: 1460
GlyphClass: 2
Flags: W
LayerCount: 2
Fore
SplineSet
1378 317 m 0,0,1
 1378 189 1378 189 1301 92 c 0,2,3
 1214 -16 1214 -16 1073 -16 c 0,4,5
 926 -16 926 -16 825 117 c 0,6,7
 754 212 754 212 754 254 c 1,8,9
 754 243 754 243 714 182 c 0,10,11
 662 103 662 103 600 53 c 0,12,13
 514 -16 514 -16 422 -16 c 0,14,15
 296 -16 296 -16 209.5 66.5 c 128,-1,16
 123 149 123 149 123 272 c 0,17,18
 123 396 123 396 212 496 c 1,19,20
 294 569 294 569 376 642 c 0,21,22
 465 722 465 722 465 795 c 0,23,24
 465 973 465 973 319 973 c 0,25,26
 180 973 180 973 180 836 c 0,27,28
 180 746 180 746 295 702 c 1,29,30
 258 696 258 696 248 696 c 0,31,32
 182 696 182 696 131 740 c 0,33,34
 70 792 70 792 70 885 c 0,35,36
 70 995 70 995 134 1061.5 c 128,-1,37
 198 1128 198 1128 303 1128 c 0,38,39
 464 1128 464 1128 530 985 c 1,40,41
 628 901 628 901 665 876 c 0,42,43
 786 797 786 797 895 797 c 0,44,45
 1040 797 1040 797 1130 892 c 0,46,47
 1208 974 1208 974 1208 1072 c 0,48,49
 1208 1112 1208 1112 1192 1139 c 1,50,51
 1300 1084 1300 1084 1300 971 c 0,52,53
 1300 844 1300 844 1207.5 748.5 c 128,-1,54
 1115 653 1115 653 987 653 c 0,55,56
 871 653 871 653 719 759 c 0,57,58
 686 783 686 783 557 893 c 1,59,60
 561 883 561 883 561 858 c 0,61,62
 561 752 561 752 477 667 c 1,63,64
 398 600 398 600 320 533 c 1,65,66
 236 451 236 451 236 352 c 0,67,68
 236 186 236 186 463 186 c 0,69,70
 661 186 661 186 752 442 c 1,71,72
 746 437 746 437 769 375 c 0,73,74
 798 300 798 300 851 252 c 0,75,76
 925 186 925 186 1034 186 c 0,77,78
 1152 186 1152 186 1226 248 c 0,79,80
 1294 304 1294 304 1294 379 c 0,81,82
 1294 441 1294 441 1249 480 c 0,83,84
 1199 524 1199 524 1106 524 c 0,85,86
 1097 524 1097 524 1116.5 544.5 c 128,-1,87
 1136 565 1136 565 1169 565 c 0,88,89
 1269 565 1269 565 1327 487 c 0,90,91
 1378 418 1378 418 1378 317 c 0,0,1
EndSplineSet
Validated: 37
Substitution2: "Single Substitution lookup 17 subtable" glyph138
EndChar

StartChar: semicolon
Encoding: 52 3229 62
Width: 2570
GlyphClass: 2
Flags: W
LayerCount: 2
Fore
SplineSet
2472 487 m 0,0,1
 2472 275 2472 275 2385 139 c 0,2,3
 2286 -16 2286 -16 2103 -16 c 0,4,5
 1845 -16 1845 -16 1772 311 c 1,6,7
 1699 -16 1699 -16 1421 -16 c 0,8,9
 1268 -16 1268 -16 1174 112 c 0,10,11
 1110 200 1110 200 1083 330 c 1,12,13
 1035 179 1035 179 906 83.5 c 128,-1,14
 777 -12 777 -12 614 -12 c 0,15,16
 411 -12 411 -12 267 132.5 c 128,-1,17
 123 277 123 277 123 481 c 0,18,19
 123 735 123 735 348 899 c 1,20,-1
 121 899 l 1,21,-1
 121 1071 l 1,22,-1
 795 1071 l 2,23,24
 1016 1071 1016 1071 1016 1245 c 0,25,26
 1016 1317 1016 1317 930 1393 c 1,27,-1
 973 1438 l 1,28,29
 1106 1310 1106 1310 1106 1192 c 0,30,31
 1106 951 1106 951 870 899 c 1,32,33
 1108 782 1108 782 1108 481 c 0,34,35
 1108 417 1108 417 1092 348 c 1,36,37
 1167 186 1167 186 1438 186 c 0,38,39
 1556 186 1556 186 1641 253 c 0,40,41
 1741 331 1741 331 1741 465 c 0,42,43
 1741 780 1741 780 1298 901 c 0,44,45
 1209 926 1209 926 1209 998 c 0,46,47
 1209 1034 1209 1034 1235.5 1062 c 128,-1,48
 1262 1090 1262 1090 1303 1090 c 0,49,50
 1462 1090 1462 1090 1620 913 c 0,51,52
 1790 722 1790 722 1790 487 c 0,53,54
 1790 436 1790 436 1778 342 c 1,55,56
 1855 186 1855 186 2122 186 c 0,57,58
 2239 186 2239 186 2324 253 c 0,59,60
 2423 331 2423 331 2423 465 c 0,61,62
 2423 780 2423 780 1980 901 c 0,63,64
 1892 925 1892 925 1892 998 c 0,65,66
 1892 1034 1892 1034 1918.5 1062 c 128,-1,67
 1945 1090 1945 1090 1987 1090 c 0,68,69
 2146 1090 2146 1090 2303 913 c 0,70,71
 2472 722 2472 722 2472 487 c 0,0,1
1894 -315 m 0,72,73
 1894 -378 1894 -378 1859 -413 c 0,74,75
 1828 -444 1828 -444 1780 -444 c 0,76,77
 1734 -444 1734 -444 1703 -412 c 0,78,79
 1669 -377 1669 -377 1669 -315 c 0,80,81
 1669 -243 1669 -243 1780 45 c 1,82,83
 1894 -243 1894 -243 1894 -315 c 0,72,73
991 539 m 0,84,85
 991 694 991 694 882 796.5 c 128,-1,86
 773 899 773 899 614 899 c 0,87,88
 458 899 458 899 350 796.5 c 128,-1,89
 242 694 242 694 242 539 c 256,90,91
 242 384 242 384 350 280 c 128,-1,92
 458 176 458 176 614 176 c 0,93,94
 772 176 772 176 881.5 280.5 c 128,-1,95
 991 385 991 385 991 539 c 0,84,85
EndSplineSet
Validated: 1
Substitution2: "Single Substitution lookup 17 subtable" glyph139
EndChar

StartChar: less
Encoding: 53 3230 63
Width: 2060
GlyphClass: 2
Flags: W
LayerCount: 2
Fore
SplineSet
1962 819 m 0,0,1
 1962 695 1962 695 1897 600.5 c 128,-1,2
 1832 506 1832 506 1743 506 c 0,3,4
 1668 506 1668 506 1668 571 c 0,5,6
 1668 585 1668 585 1671 590 c 1,7,8
 1784 590 1784 590 1848 649 c 1,9,10
 1903 702 1903 702 1903 778 c 0,11,12
 1903 850 1903 850 1841 900 c 0,13,14
 1775 954 1775 954 1669 954 c 0,15,16
 1479 954 1479 954 1376 741 c 1,17,18
 1376 585 1376 585 1282 475 c 1,19,20
 1294 449 1294 449 1294 421 c 0,21,22
 1294 379 1294 379 1256.5 292 c 128,-1,23
 1219 205 1219 205 1219 156 c 0,24,25
 1219 128 1219 128 1250 110 c 0,26,27
 1276 94 1276 94 1303 94 c 0,28,29
 1332 94 1332 94 1368.5 129.5 c 128,-1,30
 1405 165 1405 165 1405 209 c 1,31,32
 1438 192 1438 192 1438 186 c 2,33,-1
 1438 145 l 2,34,35
 1438 85 1438 85 1375 35 c 0,36,37
 1318 -10 1318 -10 1264 -10 c 0,38,39
 1202 -10 1202 -10 1153 26 c 0,40,41
 1096 67 1096 67 1096 135 c 0,42,43
 1096 206 1096 206 1196 391 c 1,44,45
 1068 293 1068 293 987 293 c 0,46,47
 886 293 886 293 828 344 c 1,48,49
 774 390 774 390 774 459 c 0,50,51
 774 533 774 533 832 584 c 0,52,53
 896 641 896 641 1006 641 c 0,54,55
 1070 641 1070 641 1134 616 c 0,56,57
 1178 598 1178 598 1220 568 c 0,58,59
 1256 543 1256 543 1253 543 c 1,60,61
 1272 572 1272 572 1286 600 c 0,62,63
 1318 665 1318 665 1319 709 c 0,64,65
 1321 803 1321 803 1235 878.5 c 128,-1,66
 1149 954 1149 954 1047 954 c 0,67,68
 943 954 943 954 851 901 c 0,69,70
 739 836 739 836 739 733 c 1,71,72
 739 770 739 770 683 843 c 0,73,74
 596 956 596 956 444 956 c 0,75,76
 338 956 338 956 261 893 c 0,77,78
 188 833 188 833 188 760 c 0,79,80
 188 606 188 606 432 606 c 1,81,82
 442 588 442 588 442 561 c 0,83,84
 442 500 442 500 371 500 c 0,85,86
 255 500 255 500 186 592 c 0,87,88
 123 677 123 677 123 799 c 0,89,90
 123 930 123 930 199 1022 c 0,91,92
 285 1126 285 1126 432 1126 c 0,93,94
 629 1126 629 1126 739 883 c 1,95,96
 739 1000 739 1000 852 1069 c 0,97,98
 944 1126 944 1126 1055 1126 c 0,99,100
 1164 1126 1164 1126 1262 1058 c 1,101,102
 1372 980 1372 980 1372 870 c 1,103,104
 1470 1128 1470 1128 1679 1128 c 0,105,106
 1808 1128 1808 1128 1887 1034 c 0,107,108
 1962 945 1962 945 1962 819 c 0,0,1
1212 477 m 1,109,110
 1149 590 1149 590 1032 590 c 0,111,112
 979 590 979 590 946.5 559 c 128,-1,113
 914 528 914 528 913 487 c 0,114,115
 911 393 911 393 1024 393 c 0,116,117
 1130 393 1130 393 1212 477 c 1,109,110
EndSplineSet
Validated: 37
Substitution2: "Single Substitution lookup 17 subtable" glyph140
EndChar

StartChar: equal
Encoding: 54 3231 64
Width: 1460
GlyphClass: 2
Flags: W
LayerCount: 2
Fore
SplineSet
1374 379 m 0,0,1
 1374 221 1374 221 1288 108 c 1,2,3
 1192 -16 1192 -16 1034 -16 c 0,4,5
 935 -16 935 -16 859 51 c 0,6,7
 805 98 805 98 767 175 c 1,8,9
 753 210 753 210 739 244 c 1,10,11
 725 210 725 210 711 175 c 1,12,13
 672 98 672 98 619 51 c 0,14,15
 545 -16 545 -16 453 -16 c 0,16,17
 267 -16 267 -16 179 128 c 0,18,19
 109 244 109 244 109 434 c 0,20,21
 109 575 109 575 159 685 c 0,22,23
 216 809 216 809 307 809 c 1,24,25
 289 809 289 809 227 864 c 0,26,27
 145 938 145 938 145 1030 c 1,28,29
 146 1111 146 1111 208 1157 c 0,30,31
 261 1196 261 1196 336 1196 c 0,32,33
 417 1196 417 1196 444 1155 c 1,34,35
 444 1157 444 1157 404 1149 c 0,36,37
 357 1139 357 1139 328 1114 c 0,38,39
 287 1080 287 1080 287 1018 c 0,40,41
 287 892 287 892 422 823 c 1,42,43
 551 765 551 765 551 612 c 0,44,45
 551 525 551 525 507 461 c 0,46,47
 460 393 460 393 389 393 c 0,48,49
 320 393 320 393 276.5 441.5 c 128,-1,50
 233 490 233 490 233 567 c 0,51,52
 233 624 233 624 231 623 c 0,53,54
 164 549 164 549 164 428 c 0,55,56
 164 324 164 324 229 260 c 0,57,58
 302 188 302 188 438 188 c 0,59,60
 654 188 654 188 739 416 c 1,61,62
 837 188 837 188 1036 188 c 0,63,64
 1170 188 1170 188 1246 260 c 0,65,66
 1315 325 1315 325 1315 420 c 0,67,68
 1315 504 1315 504 1254 561 c 0,69,70
 1187 625 1187 625 1073 625 c 2,71,-1
 938 625 l 1,72,-1
 938 754 l 1,73,-1
 1085 754 l 2,74,75
 1118 754 1118 754 1146 779 c 0,76,77
 1180 810 1180 810 1180 864 c 0,78,79
 1180 940 1180 940 1118 991 c 128,-1,80
 1056 1042 1056 1042 956 1042 c 0,81,82
 893 1042 893 1042 873 1063 c 0,83,84
 858 1078 858 1078 858 1116 c 0,85,86
 858 1196 858 1196 995 1196 c 0,87,88
 1117 1196 1117 1196 1188 1117 c 0,89,90
 1249 1049 1249 1049 1249 954 c 0,91,92
 1249 842 1249 842 1199 769 c 0,93,94
 1165 721 1165 721 1153 721 c 1,95,96
 1254 721 1254 721 1318 604 c 0,97,98
 1374 503 1374 503 1374 379 c 0,0,1
500 618 m 0,99,100
 501 659 501 659 472 688 c 0,101,102
 440 721 440 721 385 721 c 0,103,104
 316 721 316 721 281 674 c 1,105,106
 277 658 277 658 277 637 c 0,107,108
 277 524 277 524 373 524 c 0,109,110
 433 524 433 524 468 554 c 0,111,112
 499 581 499 581 500 618 c 0,99,100
EndSplineSet
Validated: 37
Substitution2: "Single Substitution lookup 17 subtable" glyph141
EndChar

StartChar: greater
Encoding: 55 3232 65
Width: 1204
GlyphClass: 2
Flags: W
LayerCount: 2
Fore
SplineSet
1108 481 m 0,0,1
 1108 277 1108 277 963.5 132.5 c 128,-1,2
 819 -12 819 -12 614 -12 c 0,3,4
 411 -12 411 -12 267 132.5 c 128,-1,5
 123 277 123 277 123 481 c 0,6,7
 123 735 123 735 348 899 c 1,8,-1
 121 899 l 1,9,-1
 121 1071 l 1,10,-1
 795 1071 l 2,11,12
 1016 1071 1016 1071 1016 1245 c 0,13,14
 1016 1317 1016 1317 930 1393 c 1,15,-1
 973 1438 l 1,16,17
 1106 1310 1106 1310 1106 1192 c 0,18,19
 1106 951 1106 951 870 899 c 1,20,21
 1108 782 1108 782 1108 481 c 0,0,1
991 539 m 0,22,23
 991 694 991 694 882 796.5 c 128,-1,24
 773 899 773 899 614 899 c 0,25,26
 458 899 458 899 350 796.5 c 128,-1,27
 242 694 242 694 242 539 c 256,28,29
 242 384 242 384 350 280 c 128,-1,30
 458 176 458 176 614 176 c 0,31,32
 772 176 772 176 881.5 280.5 c 128,-1,33
 991 385 991 385 991 539 c 0,22,23
733 563 m 256,34,35
 733 516 733 516 698 483.5 c 128,-1,36
 663 451 663 451 614 451 c 0,37,38
 567 451 567 451 533.5 483.5 c 128,-1,39
 500 516 500 516 500 563 c 0,40,41
 500 611 500 611 533.5 644.5 c 128,-1,42
 567 678 567 678 614 678 c 0,43,44
 662 678 662 678 697.5 644 c 128,-1,45
 733 610 733 610 733 563 c 256,34,35
EndSplineSet
Validated: 1
Substitution2: "Single Substitution lookup 17 subtable" glyph142
EndChar

StartChar: question
Encoding: 56 3233 66
Width: 1460
GlyphClass: 2
Flags: W
LayerCount: 2
Fore
SplineSet
1350 344 m 0,0,1
 1350 192 1350 192 1282 96 c 1,2,3
 1201 -16 1201 -16 1044 -16 c 0,4,5
 873 -16 873 -16 733 229 c 1,6,7
 625 -16 625 -16 442 -16 c 0,8,9
 314 -16 314 -16 224 79 c 0,10,11
 123 186 123 186 123 369 c 0,12,13
 123 576 123 576 236 721 c 0,14,15
 331 842 331 842 487 899 c 1,16,-1
 145 899 l 1,17,-1
 145 1071 l 1,18,-1
 1036 1071 l 2,19,20
 1257 1071 1257 1071 1257 1245 c 0,21,22
 1257 1317 1257 1317 1171 1393 c 1,23,-1
 1217 1438 l 1,24,25
 1350 1310 1350 1310 1350 1192 c 0,26,27
 1350 899 1350 899 1047 899 c 1,28,29
 1128 863 1128 863 1186.5 789.5 c 128,-1,30
 1245 716 1245 716 1245 653 c 0,31,32
 1245 612 1245 612 1253 604 c 1,33,34
 1276 604 1276 604 1312 512 c 0,35,36
 1350 416 1350 416 1350 344 c 0,0,1
1184 614 m 1,37,38
 1121 655 1121 655 1049 655 c 0,39,40
 989 655 989 655 951 629 c 128,-1,41
 913 603 913 603 913 567 c 0,42,43
 913 492 913 492 1010 492 c 0,44,45
 1126 492 1126 492 1184 614 c 1,37,38
1278 389 m 0,46,47
 1278 441 1278 441 1267 495 c 0,48,49
 1253 561 1253 561 1233 561 c 1,50,51
 1144 414 1144 414 993 414 c 0,52,53
 916 414 916 414 870.5 456 c 128,-1,54
 825 498 825 498 825 555 c 0,55,56
 825 618 825 618 870 661 c 0,57,58
 921 711 921 711 1010 711 c 0,59,60
 1079 711 1079 711 1137 686 c 0,61,62
 1180 667 1180 667 1180 664 c 1,63,64
 1180 754 1180 754 1056 824 c 0,65,66
 923 899 923 899 729 899 c 0,67,68
 501 899 501 899 367 787 c 0,69,70
 223 667 223 667 223 444 c 0,71,72
 223 188 223 188 467 188 c 0,73,74
 634 188 634 188 733 401 c 1,75,76
 838 188 838 188 1024 188 c 0,77,78
 1278 188 1278 188 1278 389 c 0,46,47
EndSplineSet
Validated: 1
Substitution2: "Single Substitution lookup 17 subtable" glyph143
EndChar

StartChar: at
Encoding: 57 3234 67
Width: 1460
GlyphClass: 2
Flags: W
LayerCount: 2
Fore
SplineSet
1350 344 m 0,0,1
 1350 192 1350 192 1282 96 c 1,2,3
 1201 -16 1201 -16 1044 -16 c 0,4,5
 873 -16 873 -16 733 229 c 1,6,7
 625 -16 625 -16 442 -16 c 0,8,9
 314 -16 314 -16 224 79 c 0,10,11
 123 186 123 186 123 369 c 0,12,13
 123 576 123 576 236 721 c 0,14,15
 331 842 331 842 487 899 c 1,16,-1
 145 899 l 1,17,-1
 145 1071 l 1,18,-1
 1036 1071 l 2,19,20
 1257 1071 1257 1071 1257 1245 c 0,21,22
 1257 1317 1257 1317 1171 1393 c 1,23,-1
 1217 1438 l 1,24,25
 1350 1310 1350 1310 1350 1192 c 0,26,27
 1350 899 1350 899 1047 899 c 1,28,29
 1128 863 1128 863 1186.5 789.5 c 128,-1,30
 1245 716 1245 716 1245 653 c 0,31,32
 1245 612 1245 612 1253 604 c 1,33,34
 1276 604 1276 604 1312 512 c 0,35,36
 1350 416 1350 416 1350 344 c 0,0,1
850 -295 m 0,37,38
 853 -354 853 -354 816 -387 c 0,39,40
 784 -416 784 -416 735 -414 c 1,41,42
 689 -411 689 -411 658 -383 c 0,43,44
 624 -353 624 -353 625 -303 c 0,45,46
 626 -246 626 -246 735 -4 c 1,47,48
 768 -73 768 -73 792 -128 c 0,49,50
 848 -259 848 -259 850 -295 c 0,37,38
1184 614 m 1,51,52
 1121 655 1121 655 1049 655 c 0,53,54
 989 655 989 655 951 629 c 128,-1,55
 913 603 913 603 913 567 c 0,56,57
 913 492 913 492 1010 492 c 0,58,59
 1126 492 1126 492 1184 614 c 1,51,52
1278 389 m 0,60,61
 1278 441 1278 441 1267 495 c 0,62,63
 1253 561 1253 561 1233 561 c 1,64,65
 1144 414 1144 414 993 414 c 0,66,67
 916 414 916 414 870.5 456 c 128,-1,68
 825 498 825 498 825 555 c 0,69,70
 825 618 825 618 870 661 c 0,71,72
 921 711 921 711 1010 711 c 0,73,74
 1079 711 1079 711 1137 686 c 0,75,76
 1180 667 1180 667 1180 664 c 1,77,78
 1180 754 1180 754 1056 824 c 0,79,80
 923 899 923 899 729 899 c 0,81,82
 501 899 501 899 367 787 c 0,83,84
 223 667 223 667 223 444 c 0,85,86
 223 188 223 188 467 188 c 0,87,88
 634 188 634 188 733 401 c 1,89,90
 838 188 838 188 1024 188 c 0,91,92
 1278 188 1278 188 1278 389 c 0,60,61
EndSplineSet
Validated: 33
Substitution2: "Single Substitution lookup 17 subtable" glyph144
EndChar

StartChar: A
Encoding: 58 3235 68
Width: 1597
GlyphClass: 2
Flags: W
LayerCount: 2
Fore
SplineSet
1499 518 m 0,0,1
 1499 -16 1499 -16 1153 -16 c 0,2,3
 1020 -16 1020 -16 930 66 c 0,4,5
 836 152 836 152 836 287 c 0,6,7
 836 412 836 412 905 476 c 0,8,9
 966 532 966 532 1069 532 c 0,10,11
 1143 532 1143 532 1192 489 c 0,12,13
 1245 443 1245 443 1245 369 c 0,14,15
 1245 301 1245 301 1203 268 c 0,16,17
 1170 242 1170 242 1126 242 c 0,18,19
 1104 242 1104 242 1083 250 c 1,20,21
 1159 292 1159 292 1159 356 c 0,22,23
 1159 402 1159 402 1128 428.5 c 128,-1,24
 1097 455 1097 455 1053 455 c 0,25,26
 911 455 911 455 911 285 c 0,27,28
 911 205 911 205 987 147 c 1,29,30
 1060 90 1060 90 1153 90 c 0,31,32
 1290 90 1290 90 1367 213 c 0,33,34
 1442 331 1442 331 1442 526 c 0,35,36
 1442 742 1442 742 1346 832 c 0,37,38
 1267 905 1267 905 1104 905 c 0,39,40
 805 905 805 905 754 647 c 1,41,42
 708 899 708 899 494 899 c 0,43,44
 394 899 394 899 317 846 c 0,45,46
 233 789 233 789 233 705 c 0,47,48
 233 531 233 531 483 475 c 1,49,50
 233 429 233 429 233 229 c 0,51,52
 233 154 233 154 294 112 c 0,53,54
 348 74 348 74 432 74 c 0,55,56
 510 74 510 74 580 158 c 1,57,58
 580 163 580 163 581 152.5 c 128,-1,59
 582 142 582 142 582 133 c 1,60,61
 541 -4 541 -4 418 -4 c 0,62,63
 292 -4 292 -4 206 60 c 0,64,65
 111 130 111 130 111 248 c 0,66,67
 111 384 111 384 218 443 c 0,68,69
 276 475 276 475 328 475 c 1,70,71
 300 487 300 487 273 499 c 1,72,73
 212 533 212 533 175 593 c 0,74,75
 123 675 123 675 123 797 c 0,76,77
 123 927 123 927 218.5 1002 c 128,-1,78
 314 1077 314 1077 477 1077 c 0,79,80
 717 1077 717 1077 754 797 c 1,81,82
 823 1077 823 1077 1116 1077 c 0,83,84
 1320 1077 1320 1077 1418 902 c 0,85,86
 1499 758 1499 758 1499 518 c 0,0,1
EndSplineSet
Validated: 1
Substitution2: "Single Substitution lookup 17 subtable" glyph145
EndChar

StartChar: B
Encoding: 59 3236 69
Width: 1229
GlyphClass: 2
Flags: W
LayerCount: 2
Fore
SplineSet
1130 389 m 0,0,1
 1130 194 1130 194 975 83 c 0,2,3
 837 -16 837 -16 631 -16 c 0,4,5
 431 -16 431 -16 290 78 c 0,6,7
 137 181 137 181 137 346 c 0,8,9
 137 467 137 467 223 514 c 1,10,-1
 223 434 l 2,11,12
 223 311 223 311 360 241 c 0,13,14
 479 180 479 180 651 180 c 0,15,16
 821 180 821 180 928 239 c 0,17,18
 1055 308 1055 308 1055 442 c 0,19,20
 1055 490 1055 490 1022 540 c 0,21,22
 999 576 999 576 987 582 c 1,23,24
 840 395 840 395 629 395 c 0,25,26
 526 395 526 395 459 450 c 0,27,28
 395 502 395 502 395 573 c 0,29,30
 395 653 395 653 459 709 c 0,31,32
 534 774 534 774 668 774 c 0,33,34
 738 774 738 774 816 754 c 0,35,36
 881 738 881 738 881 737 c 1,37,38
 884 747 884 747 884 759 c 0,39,40
 884 808 884 808 843 851 c 0,41,42
 798 899 798 899 735 899 c 2,43,-1
 145 899 l 1,44,-1
 145 1071 l 1,45,-1
 815 1071 l 2,46,47
 1036 1071 1036 1071 1036 1245 c 0,48,49
 1036 1317 1036 1317 950 1393 c 1,50,-1
 995 1438 l 1,51,52
 1128 1310 1128 1310 1128 1192 c 0,53,54
 1128 934 1128 934 874 899 c 1,55,56
 999 811 999 811 999 664 c 1,57,58
 999 667 999 667 1033 636 c 0,59,60
 1073 599 1073 599 1097 549 c 0,61,62
 1130 479 1130 479 1130 389 c 0,0,1
874 666 m 1,63,64
 865 675 865 675 827 690 c 0,65,66
 767 713 767 713 700 713 c 0,67,68
 622 713 622 713 572 680 c 0,69,70
 528 652 528 652 524 612 c 0,71,72
 521 579 521 579 546 552 c 0,73,74
 575 520 575 520 625 520 c 0,75,76
 741 520 741 520 819 591 c 0,77,78
 883 649 883 649 874 666 c 1,63,64
EndSplineSet
Validated: 33
Substitution2: "Single Substitution lookup 17 subtable" glyph146
EndChar

StartChar: C
Encoding: 60 3237 70
Width: 1460
GlyphClass: 2
Flags: W
LayerCount: 2
Fore
SplineSet
1360 342 m 0,0,1
 1360 188 1360 188 1284 90 c 0,2,3
 1201 -16 1201 -16 1057 -16 c 0,4,5
 865 -16 865 -16 729 242 c 1,6,7
 654 -16 654 -16 428 -16 c 0,8,9
 272 -16 272 -16 187 91 c 0,10,11
 111 187 111 187 111 342 c 0,12,13
 111 520 111 520 212 675 c 0,14,15
 324 845 324 845 508 899 c 1,16,-1
 123 899 l 1,17,-1
 123 1071 l 1,18,-1
 1047 1071 l 2,19,20
 1268 1071 1268 1071 1268 1245 c 0,21,22
 1268 1317 1268 1317 1182 1393 c 1,23,-1
 1227 1438 l 1,24,25
 1360 1310 1360 1310 1360 1192 c 0,26,27
 1360 899 1360 899 1047 899 c 2,28,-1
 979 899 l 1,29,30
 1161 818 1161 818 1265 656 c 0,31,32
 1360 507 1360 507 1360 342 c 0,0,1
846 -305 m 0,33,34
 846 -357 846 -357 809 -387 c 0,35,36
 776 -414 776 -414 729 -414 c 0,37,38
 684 -414 684 -414 653 -386 c 1,39,40
 618 -356 618 -356 618 -305 c 0,41,42
 618 -246 618 -246 729 -4 c 1,43,44
 846 -246 846 -246 846 -305 c 0,33,34
1245 430 m 0,45,46
 1245 610 1245 610 1123 743 c 0,47,48
 980 899 980 899 729 899 c 0,49,50
 500 899 500 899 356 743 c 0,51,52
 229 605 229 605 229 430 c 0,53,54
 229 323 229 323 283 259 c 0,55,56
 342 188 342 188 451 188 c 0,57,58
 639 188 639 188 729 393 c 1,59,60
 821 186 821 186 1004 186 c 0,61,62
 1114 186 1114 186 1181 257 c 0,63,64
 1245 324 1245 324 1245 430 c 0,45,46
846 614 m 256,65,66
 846 566 846 566 812 531 c 128,-1,67
 778 496 778 496 729 496 c 0,68,69
 682 496 682 496 648 531 c 128,-1,70
 614 566 614 566 614 614 c 256,71,72
 614 662 614 662 647.5 695.5 c 128,-1,73
 681 729 681 729 729 729 c 0,74,75
 778 729 778 729 812 695.5 c 128,-1,76
 846 662 846 662 846 614 c 256,65,66
EndSplineSet
Validated: 1
Substitution2: "Single Substitution lookup 17 subtable" glyph147
EndChar

StartChar: D
Encoding: 61 3238 71
Width: 1460
GlyphClass: 2
Flags: W
LayerCount: 2
Fore
SplineSet
1360 342 m 0,0,1
 1360 188 1360 188 1284 90 c 0,2,3
 1201 -16 1201 -16 1057 -16 c 0,4,5
 865 -16 865 -16 729 242 c 1,6,7
 654 -16 654 -16 428 -16 c 0,8,9
 272 -16 272 -16 187 91 c 0,10,11
 111 187 111 187 111 342 c 0,12,13
 111 520 111 520 212 675 c 0,14,15
 324 845 324 845 508 899 c 1,16,-1
 123 899 l 1,17,-1
 123 1071 l 1,18,-1
 1047 1071 l 2,19,20
 1268 1071 1268 1071 1268 1245 c 0,21,22
 1268 1317 1268 1317 1182 1393 c 1,23,-1
 1227 1438 l 1,24,25
 1360 1310 1360 1310 1360 1192 c 0,26,27
 1360 899 1360 899 1047 899 c 2,28,-1
 979 899 l 1,29,30
 1161 818 1161 818 1265 656 c 0,31,32
 1360 507 1360 507 1360 342 c 0,0,1
1245 430 m 0,33,34
 1245 610 1245 610 1123 743 c 0,35,36
 980 899 980 899 729 899 c 0,37,38
 500 899 500 899 356 743 c 0,39,40
 229 605 229 605 229 430 c 0,41,42
 229 323 229 323 283 259 c 0,43,44
 342 188 342 188 451 188 c 0,45,46
 639 188 639 188 729 393 c 1,47,48
 821 186 821 186 1004 186 c 0,49,50
 1114 186 1114 186 1181 257 c 0,51,52
 1245 324 1245 324 1245 430 c 0,33,34
EndSplineSet
Validated: 1
Substitution2: "Single Substitution lookup 17 subtable" glyph148
EndChar

StartChar: E
Encoding: 62 3239 72
Width: 1460
GlyphClass: 2
Flags: W
LayerCount: 2
Fore
SplineSet
1360 342 m 0,0,1
 1360 188 1360 188 1284 90 c 0,2,3
 1201 -16 1201 -16 1057 -16 c 0,4,5
 865 -16 865 -16 729 242 c 1,6,7
 654 -16 654 -16 428 -16 c 0,8,9
 272 -16 272 -16 187 91 c 0,10,11
 111 187 111 187 111 342 c 0,12,13
 111 520 111 520 212 675 c 0,14,15
 324 845 324 845 508 899 c 1,16,-1
 123 899 l 1,17,-1
 123 1071 l 1,18,-1
 1047 1071 l 2,19,20
 1268 1071 1268 1071 1268 1245 c 0,21,22
 1268 1317 1268 1317 1182 1393 c 1,23,-1
 1227 1438 l 1,24,25
 1360 1310 1360 1310 1360 1192 c 0,26,27
 1360 899 1360 899 1047 899 c 2,28,-1
 979 899 l 1,29,30
 1161 818 1161 818 1265 656 c 0,31,32
 1360 507 1360 507 1360 342 c 0,0,1
846 -305 m 0,33,34
 846 -357 846 -357 809 -387 c 0,35,36
 776 -414 776 -414 729 -414 c 0,37,38
 684 -414 684 -414 653 -386 c 1,39,40
 618 -356 618 -356 618 -305 c 0,41,42
 618 -246 618 -246 729 -4 c 1,43,44
 846 -246 846 -246 846 -305 c 0,33,34
1245 430 m 0,45,46
 1245 610 1245 610 1123 743 c 0,47,48
 980 899 980 899 729 899 c 0,49,50
 500 899 500 899 356 743 c 0,51,52
 229 605 229 605 229 430 c 0,53,54
 229 323 229 323 283 259 c 0,55,56
 342 188 342 188 451 188 c 0,57,58
 639 188 639 188 729 393 c 1,59,60
 821 186 821 186 1004 186 c 0,61,62
 1114 186 1114 186 1181 257 c 0,63,64
 1245 324 1245 324 1245 430 c 0,45,46
EndSplineSet
Validated: 1
Substitution2: "Single Substitution lookup 17 subtable" glyph149
EndChar

StartChar: F
Encoding: 63 3240 73
Width: 1231
GlyphClass: 2
Flags: W
LayerCount: 2
Fore
SplineSet
1155 348 m 0,0,1
 1155 178 1155 178 1070 78 c 0,2,3
 991 -16 991 -16 870 -16 c 0,4,5
 746 -16 746 -16 674 95 c 0,6,7
 653 127 653 127 582 309 c 0,8,9
 530 440 530 440 379 440 c 0,10,11
 295 440 295 440 231 394 c 0,12,13
 164 345 164 345 164 272 c 0,14,15
 164 182 164 182 231 135 c 0,16,17
 244 125 244 125 355 78 c 0,18,19
 422 49 422 49 422 4 c 0,20,21
 422 -59 422 -59 346 -59 c 0,22,23
 255 -59 255 -59 181 68 c 0,24,25
 110 191 110 191 106 336 c 1,26,27
 104 457 104 457 158 530 c 0,28,29
 221 614 221 614 346 614 c 0,30,31
 538 614 538 614 598 401 c 128,-1,32
 658 188 658 188 874 188 c 0,33,34
 962 188 962 188 1020 249 c 0,35,36
 1083 314 1083 314 1083 422 c 0,37,38
 1083 596 1083 596 968 720 c 0,39,40
 884 810 884 810 705 899 c 1,41,-1
 115 899 l 1,42,-1
 115 1071 l 1,43,-1
 844 1071 l 2,44,45
 1065 1071 1065 1071 1065 1245 c 0,46,47
 1065 1317 1065 1317 979 1393 c 1,48,-1
 1022 1438 l 1,49,50
 1155 1310 1155 1310 1155 1192 c 0,51,52
 1155 899 1155 899 844 899 c 2,53,-1
 811 899 l 1,54,55
 1155 700 1155 700 1155 348 c 0,0,1
EndSplineSet
Validated: 33
Substitution2: "Single Substitution lookup 17 subtable" glyph150
EndChar

StartChar: G
Encoding: 64 3242 74
Width: 1460
GlyphClass: 2
Flags: W
LayerCount: 2
Fore
SplineSet
1360 1192 m 0,0,1
 1360 899 1360 899 1047 899 c 2,2,-1
 143 899 l 1,3,-1
 143 1071 l 1,4,-1
 1047 1071 l 2,5,6
 1268 1071 1268 1071 1268 1245 c 0,7,8
 1268 1317 1268 1317 1182 1393 c 1,9,-1
 1227 1438 l 1,10,11
 1360 1310 1360 1310 1360 1192 c 0,0,1
850 696 m 0,12,13
 850 646 850 646 815.5 610.5 c 128,-1,14
 781 575 781 575 733 575 c 0,15,16
 682 575 682 575 647 610.5 c 128,-1,17
 612 646 612 646 612 696 c 256,18,19
 612 746 612 746 647.5 780.5 c 128,-1,20
 683 815 683 815 733 815 c 0,21,22
 781 815 781 815 815.5 780 c 128,-1,23
 850 745 850 745 850 696 c 0,12,13
1360 440 m 0,24,25
 1363 252 1363 252 1291 128 c 1,26,27
 1206 -16 1206 -16 1042 -16 c 0,28,29
 925 -16 925 -16 818 104 c 0,30,31
 733 199 733 199 733 229 c 1,32,33
 733 191 733 191 666 104 c 0,34,35
 573 -16 573 -16 438 -16 c 0,36,37
 277 -16 277 -16 191 121 c 0,38,39
 123 230 123 230 123 379 c 0,40,41
 123 504 123 504 198 579 c 0,42,43
 265 646 265 646 358 647 c 0,44,45
 442 648 442 648 499 597 c 1,46,47
 561 540 561 540 561 442 c 0,48,49
 561 385 561 385 506 343 c 0,50,51
 458 307 458 307 409 307 c 0,52,53
 369 307 369 307 369 336 c 1,54,55
 463 372 463 372 463 442 c 0,56,57
 463 490 463 490 423 520.5 c 128,-1,58
 383 551 383 551 332 551 c 0,59,60
 272 551 272 551 232 514 c 0,61,62
 186 471 186 471 186 389 c 0,63,64
 186 188 186 188 432 188 c 0,65,66
 603 188 603 188 685 302 c 0,67,68
 733 369 733 369 733 422 c 1,69,70
 733 371 733 371 783 304 c 0,71,72
 868 188 868 188 1047 188 c 0,73,74
 1173 188 1173 188 1238 250 c 0,75,76
 1296 305 1296 305 1292 395 c 0,77,78
 1287 534 1287 534 1169 655 c 0,79,80
 1111 715 1111 715 1111 767 c 0,81,82
 1111 801 1111 801 1135 824 c 0,83,84
 1156 844 1156 844 1178 844 c 0,85,86
 1251 844 1251 844 1304.5 721.5 c 128,-1,87
 1358 599 1358 599 1360 440 c 0,24,25
EndSplineSet
Validated: 33
Substitution2: "Single Substitution lookup 17 subtable" glyph151
EndChar

StartChar: H
Encoding: 65 3243 75
Width: 1460
GlyphClass: 2
Flags: W
LayerCount: 2
Fore
SplineSet
1360 1192 m 0,0,1
 1360 899 1360 899 1047 899 c 2,2,-1
 143 899 l 1,3,-1
 143 1071 l 1,4,-1
 1047 1071 l 2,5,6
 1268 1071 1268 1071 1268 1245 c 0,7,8
 1268 1317 1268 1317 1182 1393 c 1,9,-1
 1227 1438 l 1,10,11
 1360 1310 1360 1310 1360 1192 c 0,0,1
850 696 m 0,12,13
 850 646 850 646 815.5 610.5 c 128,-1,14
 781 575 781 575 733 575 c 0,15,16
 682 575 682 575 647 610.5 c 128,-1,17
 612 646 612 646 612 696 c 256,18,19
 612 746 612 746 647.5 780.5 c 128,-1,20
 683 815 683 815 733 815 c 0,21,22
 781 815 781 815 815.5 780 c 128,-1,23
 850 745 850 745 850 696 c 0,12,13
1360 440 m 0,24,25
 1363 252 1363 252 1291 128 c 1,26,27
 1206 -16 1206 -16 1042 -16 c 0,28,29
 925 -16 925 -16 818 104 c 0,30,31
 733 199 733 199 733 229 c 1,32,33
 733 191 733 191 666 104 c 0,34,35
 573 -16 573 -16 438 -16 c 0,36,37
 277 -16 277 -16 191 121 c 0,38,39
 123 230 123 230 123 379 c 0,40,41
 123 504 123 504 198 579 c 0,42,43
 265 646 265 646 358 647 c 0,44,45
 442 648 442 648 499 597 c 1,46,47
 561 540 561 540 561 442 c 0,48,49
 561 385 561 385 506 343 c 0,50,51
 458 307 458 307 409 307 c 0,52,53
 369 307 369 307 369 336 c 1,54,55
 463 372 463 372 463 442 c 0,56,57
 463 490 463 490 423 520.5 c 128,-1,58
 383 551 383 551 332 551 c 0,59,60
 272 551 272 551 232 514 c 0,61,62
 186 471 186 471 186 389 c 0,63,64
 186 188 186 188 432 188 c 0,65,66
 603 188 603 188 685 302 c 0,67,68
 733 369 733 369 733 422 c 1,69,70
 733 371 733 371 783 304 c 0,71,72
 868 188 868 188 1047 188 c 0,73,74
 1173 188 1173 188 1238 250 c 0,75,76
 1296 305 1296 305 1292 395 c 0,77,78
 1287 534 1287 534 1169 655 c 0,79,80
 1111 715 1111 715 1111 767 c 0,81,82
 1111 801 1111 801 1135 824 c 0,83,84
 1156 844 1156 844 1178 844 c 0,85,86
 1251 844 1251 844 1304.5 721.5 c 128,-1,87
 1358 599 1358 599 1360 440 c 0,24,25
848 -293 m 0,88,89
 848 -349 848 -349 811 -381 c 1,90,91
 779 -410 779 -410 733 -410 c 0,92,93
 688 -410 688 -410 655.5 -379 c 128,-1,94
 623 -348 623 -348 623 -297 c 0,95,96
 623 -240 623 -240 733 0 c 1,97,98
 848 -238 848 -238 848 -293 c 0,88,89
EndSplineSet
Validated: 33
Substitution2: "Single Substitution lookup 17 subtable" glyph152
EndChar

StartChar: I
Encoding: 66 3244 76
Width: 1460
GlyphClass: 2
Flags: W
LayerCount: 2
Fore
SplineSet
1389 432 m 0,0,1
 1389 241 1389 241 1312 120 c 0,2,3
 1226 -16 1226 -16 1069 -16 c 0,4,5
 848 -16 848 -16 752 254 c 1,6,7
 752 243 752 243 712 182 c 0,8,9
 661 103 661 103 599 53 c 0,10,11
 514 -16 514 -16 422 -16 c 0,12,13
 296 -16 296 -16 209.5 66.5 c 128,-1,14
 123 149 123 149 123 272 c 0,15,16
 123 396 123 396 212 496 c 1,17,18
 294 569 294 569 376 642 c 0,19,20
 465 722 465 722 465 795 c 0,21,22
 465 973 465 973 319 973 c 0,23,24
 180 973 180 973 180 836 c 0,25,26
 180 746 180 746 295 702 c 1,27,28
 258 696 258 696 248 696 c 0,29,30
 182 696 182 696 131 740 c 0,31,32
 70 792 70 792 70 885 c 0,33,34
 70 995 70 995 134 1061.5 c 128,-1,35
 198 1128 198 1128 303 1128 c 0,36,37
 411 1128 411 1128 484 1055 c 0,38,39
 561 979 561 979 561 858 c 0,40,41
 561 752 561 752 477 667 c 1,42,43
 398 600 398 600 320 533 c 1,44,45
 236 451 236 451 236 352 c 0,46,47
 236 186 236 186 463 186 c 0,48,49
 659 186 659 186 752 442 c 1,50,51
 818 186 818 186 1030 186 c 0,52,53
 1168 186 1168 186 1251 298 c 1,54,55
 1325 400 1325 400 1325 543 c 0,56,57
 1325 682 1325 682 1244 784 c 0,58,59
 1153 899 1153 899 999 899 c 0,60,61
 951 899 951 899 906 898 c 128,-1,62
 861 897 861 897 846 897 c 0,63,64
 810 897 810 897 787 926 c 1,65,66
 765 952 765 952 765 988 c 0,67,68
 765 1077 765 1077 860 1077 c 0,69,70
 1102 1077 1102 1077 1248 891 c 0,71,72
 1389 711 1389 711 1389 432 c 0,0,1
EndSplineSet
Validated: 1
Substitution2: "Single Substitution lookup 17 subtable" glyph153
EndChar

StartChar: J
Encoding: 67 3245 77
Width: 1460
GlyphClass: 2
Flags: W
LayerCount: 2
Fore
SplineSet
1403 442 m 0,0,1
 1403 242 1403 242 1332 121 c 0,2,3
 1252 -16 1252 -16 1096 -16 c 0,4,5
 991 -16 991 -16 903 53 c 0,6,7
 841 102 841 102 792 182 c 1,8,9
 773 218 773 218 754 254 c 1,10,11
 754 243 754 243 714 182 c 0,12,13
 662 103 662 103 600 53 c 0,14,15
 514 -16 514 -16 422 -16 c 0,16,17
 296 -16 296 -16 209.5 66.5 c 128,-1,18
 123 149 123 149 123 272 c 0,19,20
 123 396 123 396 212 496 c 1,21,22
 294 569 294 569 376 642 c 0,23,24
 465 722 465 722 465 795 c 0,25,26
 465 973 465 973 319 973 c 0,27,28
 180 973 180 973 180 836 c 0,29,30
 180 746 180 746 295 702 c 1,31,32
 258 696 258 696 248 696 c 0,33,34
 182 696 182 696 131 740 c 0,35,36
 70 792 70 792 70 885 c 0,37,38
 70 995 70 995 134 1061.5 c 128,-1,39
 198 1128 198 1128 303 1128 c 0,40,41
 411 1128 411 1128 484 1055 c 0,42,43
 561 979 561 979 561 858 c 0,44,45
 561 752 561 752 477 667 c 1,46,47
 398 600 398 600 320 533 c 1,48,49
 236 451 236 451 236 352 c 0,50,51
 236 188 236 188 463 188 c 0,52,53
 661 188 661 188 752 444 c 1,54,55
 827 188 827 188 1057 188 c 0,56,57
 1205 188 1205 188 1282 266 c 0,58,59
 1352 337 1352 337 1352 459 c 0,60,61
 1352 654 1352 654 1269 783 c 0,62,63
 1195 899 1195 899 1106 899 c 2,64,-1
 924 899 l 1,65,-1
 924 1071 l 1,66,-1
 1092 1071 l 2,67,68
 1313 1071 1313 1071 1313 1245 c 0,69,70
 1313 1317 1313 1317 1227 1393 c 1,71,-1
 1270 1438 l 1,72,73
 1403 1310 1403 1310 1403 1192 c 0,74,75
 1403 967 1403 967 1212 913 c 1,76,77
 1304 847 1304 847 1357 704 c 0,78,79
 1403 578 1403 578 1403 442 c 0,0,1
868 -297 m 0,80,81
 868 -354 868 -354 831 -387 c 0,82,83
 799 -416 799 -416 752 -416 c 0,84,85
 707 -416 707 -416 676 -387 c 1,86,87
 641 -356 641 -356 641 -305 c 0,88,89
 641 -246 641 -246 752 -4 c 1,90,91
 868 -246 868 -246 868 -297 c 0,80,81
EndSplineSet
Validated: 1
Substitution2: "Single Substitution lookup 17 subtable" glyph154
EndChar

StartChar: K
Encoding: 68 3246 78
Width: 2138
GlyphClass: 2
Flags: W
LayerCount: 2
Fore
SplineSet
2040 487 m 0,0,1
 2040 275 2040 275 1953 139 c 0,2,3
 1854 -16 1854 -16 1671 -16 c 0,4,5
 1438 -16 1438 -16 1352 266 c 1,6,7
 1336 141 1336 141 1261 65 c 0,8,9
 1180 -16 1180 -16 1053 -16 c 0,10,11
 958 -16 958 -16 880 58 c 0,12,13
 824 111 824 111 782 197 c 1,14,15
 766 234 766 234 750 272 c 1,16,17
 661 -16 661 -16 440 -16 c 0,18,19
 300 -16 300 -16 207 114 c 0,20,21
 125 228 125 228 125 356 c 0,22,23
 125 492 125 492 201 563 c 0,24,25
 266 625 266 625 365 625 c 0,26,27
 444 625 444 625 500 573 c 1,28,29
 561 518 561 518 561 432 c 0,30,31
 561 372 561 372 506 330 c 0,32,33
 457 292 457 292 407 292 c 0,34,35
 367 292 367 292 367 322 c 1,36,37
 463 347 463 347 463 418 c 0,38,39
 463 476 463 476 426 510 c 0,40,41
 393 541 393 541 344 541 c 0,42,43
 285 541 285 541 241 498 c 1,44,45
 193 449 193 449 193 369 c 0,46,47
 193 188 193 188 440 188 c 0,48,49
 628 188 628 188 707 303 c 0,50,51
 750 364 750 364 750 422 c 1,52,53
 759 391 759 391 769 360 c 1,54,55
 798 291 798 291 852 248 c 0,56,57
 928 188 928 188 1044 188 c 0,58,59
 1155 188 1155 188 1218 252 c 0,60,61
 1278 312 1278 312 1278 410 c 0,62,63
 1278 549 1278 549 1165 680 c 0,64,65
 1037 828 1037 828 815 899 c 1,66,-1
 113 899 l 1,67,-1
 113 1071 l 1,68,-1
 1042 1071 l 2,69,70
 1264 1071 1264 1071 1264 1245 c 0,71,72
 1264 1317 1264 1317 1178 1393 c 1,73,-1
 1221 1438 l 1,74,75
 1354 1310 1354 1310 1354 1192 c 0,76,77
 1354 899 1354 899 1042 899 c 2,78,-1
 956 899 l 1,79,80
 1152 817 1152 817 1258 650 c 0,81,82
 1354 500 1354 500 1354 324 c 1,83,84
 1447 186 1447 186 1688 186 c 0,85,86
 1807 186 1807 186 1892 253 c 0,87,88
 1991 331 1991 331 1991 465 c 0,89,90
 1991 779 1991 779 1548 901 c 0,91,92
 1459 926 1459 926 1459 998 c 0,93,94
 1459 1035 1459 1035 1485.5 1062.5 c 128,-1,95
 1512 1090 1512 1090 1552 1090 c 0,96,97
 1712 1090 1712 1090 1870 913 c 0,98,99
 2040 722 2040 722 2040 487 c 0,0,1
EndSplineSet
Validated: 1
Substitution2: "Single Substitution lookup 17 subtable" glyph155
EndChar

StartChar: L
Encoding: 69 3247 79
Width: 2400
GlyphClass: 2
Flags: W
LayerCount: 2
Fore
SplineSet
2302 487 m 0,0,1
 2302 274 2302 274 2216 139 c 0,2,3
 2118 -16 2118 -16 1933 -16 c 0,4,5
 1699 -16 1699 -16 1612 270 c 1,6,7
 1592 143 1592 143 1507 66 c 0,8,9
 1415 -16 1415 -16 1268 -16 c 0,10,11
 1148 -16 1148 -16 1051 78 c 0,12,13
 981 146 981 146 930 254 c 0,14,15
 893 334 893 334 893 352 c 1,16,17
 893 285 893 285 824 165 c 0,18,19
 720 -16 720 -16 543 -16 c 0,20,21
 337 -16 337 -16 216 183 c 0,22,23
 109 359 109 359 109 604 c 0,24,25
 109 809 109 809 198 946 c 0,26,27
 296 1096 296 1096 463 1096 c 0,28,29
 690 1096 690 1096 817 863 c 0,30,31
 913 687 913 687 913 496 c 1,32,33
 991 193 991 193 1249 193 c 0,34,35
 1368 193 1368 193 1432 269 c 0,36,37
 1490 337 1490 337 1491 451 c 0,38,39
 1493 614 1493 614 1388 750 c 0,40,41
 1274 899 1274 899 1106 899 c 2,42,-1
 950 899 l 1,43,-1
 950 1071 l 1,44,-1
 1305 1071 l 2,45,46
 1526 1071 1526 1071 1526 1245 c 0,47,48
 1526 1317 1526 1317 1440 1393 c 1,49,-1
 1485 1438 l 1,50,51
 1618 1310 1618 1310 1618 1192 c 0,52,53
 1618 899 1618 899 1305 899 c 2,54,-1
 1286 899 l 1,55,56
 1381 841 1381 841 1449 764 c 0,57,58
 1613 580 1613 580 1618 336 c 1,59,60
 1618 336 1618 336 1618 324 c 1,61,62
 1711 186 1711 186 1952 186 c 0,63,64
 2069 186 2069 186 2154 253 c 0,65,66
 2253 331 2253 331 2253 465 c 0,67,68
 2253 780 2253 780 1810 901 c 0,69,70
 1722 925 1722 925 1722 998 c 0,71,72
 1722 1034 1722 1034 1748.5 1062 c 128,-1,73
 1775 1090 1775 1090 1817 1090 c 0,74,75
 1976 1090 1976 1090 2133 913 c 0,76,77
 2302 722 2302 722 2302 487 c 0,0,1
856 518 m 0,78,79
 856 708 856 708 744 822 c 0,80,81
 643 924 643 924 500 924 c 0,82,83
 362 924 362 924 268 832 c 0,84,85
 164 730 164 730 164 553 c 0,86,87
 164 409 164 409 250 307 c 0,88,89
 347 193 347 193 506 193 c 0,90,91
 691 193 691 193 783 303 c 0,92,93
 856 390 856 390 856 518 c 0,78,79
EndSplineSet
Validated: 33
Substitution2: "Single Substitution lookup 17 subtable" glyph156
EndChar

StartChar: M
Encoding: 70 3248 80
Width: 1204
GlyphClass: 2
Flags: W
LayerCount: 2
Fore
SplineSet
1108 481 m 0,0,1
 1108 277 1108 277 963.5 132.5 c 128,-1,2
 819 -12 819 -12 614 -12 c 0,3,4
 411 -12 411 -12 267 132.5 c 128,-1,5
 123 277 123 277 123 481 c 0,6,7
 123 735 123 735 348 899 c 1,8,-1
 121 899 l 1,9,-1
 121 1071 l 1,10,-1
 795 1071 l 2,11,12
 1016 1071 1016 1071 1016 1245 c 0,13,14
 1016 1317 1016 1317 930 1393 c 1,15,-1
 973 1438 l 1,16,17
 1106 1310 1106 1310 1106 1192 c 0,18,19
 1106 951 1106 951 870 899 c 1,20,21
 1108 782 1108 782 1108 481 c 0,0,1
991 539 m 0,22,23
 991 694 991 694 882 796.5 c 128,-1,24
 773 899 773 899 614 899 c 0,25,26
 458 899 458 899 350 796.5 c 128,-1,27
 242 694 242 694 242 539 c 256,28,29
 242 384 242 384 350 280 c 128,-1,30
 458 176 458 176 614 176 c 0,31,32
 772 176 772 176 881.5 280.5 c 128,-1,33
 991 385 991 385 991 539 c 0,22,23
EndSplineSet
Validated: 1
Substitution2: "Single Substitution lookup 17 subtable" glyph157
EndChar

StartChar: N
Encoding: 71 3249 81
Width: 1460
GlyphClass: 2
Flags: W
LayerCount: 2
Fore
SplineSet
1356 592 m 0,0,1
 1356 346 1356 346 1268 177 c 0,2,3
 1169 -14 1169 -14 993 -14 c 0,4,5
 816 -14 816 -14 733 242 c 1,6,7
 652 -16 652 -16 444 -16 c 0,8,9
 279 -16 279 -16 185 182 c 0,10,11
 102 355 102 355 102 604 c 0,12,13
 102 810 102 810 177 950 c 1,14,15
 254 1096 254 1096 377 1096 c 0,16,17
 551 1096 551 1096 551 819 c 2,18,-1
 551 770 l 1,19,-1
 924 770 l 1,20,21
 918 791 918 791 918 844 c 0,22,23
 918 1098 918 1098 1083 1098 c 0,24,25
 1208 1098 1208 1098 1285 942 c 0,26,27
 1356 797 1356 797 1356 592 c 0,0,1
1204 807 m 1,28,29
 1188 938 1188 938 1079 938 c 0,30,31
 1030 938 1030 938 1002.5 906.5 c 128,-1,32
 975 875 975 875 975 831 c 0,33,34
 975 785 975 785 1006 752 c 0,35,36
 1040 715 1040 715 1098 715 c 0,37,38
 1197 715 1197 715 1204 807 c 1,28,29
496 844 m 0,39,40
 496 946 496 946 391 946 c 0,41,42
 345 946 345 946 313 899 c 0,43,44
 286 861 286 861 279 809 c 1,45,46
 289 715 289 715 377 715 c 0,47,48
 432 715 432 715 465 756 c 0,49,50
 496 793 496 793 496 844 c 0,39,40
1311 516 m 0,51,52
 1311 619 1311 619 1262 733 c 1,53,-1
 1182 639 l 1,54,-1
 262 639 l 1,55,-1
 219 760 l 1,56,57
 156 676 156 676 156 543 c 0,58,59
 156 401 156 401 221 303 c 1,60,61
 299 188 299 188 442 188 c 0,62,63
 650 188 650 188 733 410 c 1,64,65
 821 188 821 188 1010 188 c 0,66,67
 1162 188 1162 188 1242 289 c 0,68,69
 1311 376 1311 376 1311 516 c 0,51,52
EndSplineSet
Validated: 1
Substitution2: "Single Substitution lookup 17 subtable" glyph158
EndChar

StartChar: O
Encoding: 72 3250 82
Width: 1436
GlyphClass: 2
Flags: W
LayerCount: 2
Fore
SplineSet
1366 580 m 0,0,1
 1366 309 1366 309 1177 144 c 0,2,3
 997 -14 997 -14 723 -14 c 0,4,5
 468 -14 468 -14 300 131 c 0,6,7
 113 293 113 293 113 580 c 0,8,9
 113 820 113 820 225 965 c 0,10,11
 326 1096 326 1096 467 1096 c 0,12,13
 574 1096 574 1096 645 1025 c 0,14,15
 721 949 721 949 721 819 c 0,16,17
 721 698 721 698 655 627 c 1,18,19
 597 563 597 563 516 563 c 256,20,21
 435 563 435 563 382 619 c 0,22,23
 324 680 324 680 324 786 c 0,24,25
 324 874 324 874 340 883 c 1,26,27
 314 883 314 883 257 813 c 1,28,29
 176 716 176 716 176 578 c 0,30,31
 176 377 176 377 337 276 c 0,32,33
 479 186 479 186 723 186 c 0,34,35
 980 186 980 186 1140 286 c 0,36,37
 1311 392 1311 392 1311 578 c 0,38,39
 1311 742 1311 742 1209 846 c 0,40,41
 1125 932 1125 932 1034 932 c 0,42,43
 950 932 950 932 950 1015 c 0,44,45
 950 1102 950 1102 1042 1102 c 0,46,47
 1182 1102 1182 1102 1274 952 c 128,-1,48
 1366 802 1366 802 1366 580 c 0,0,1
668 819 m 0,49,50
 668 927 668 927 516 930 c 0,51,52
 468 931 468 931 416 913 c 1,53,54
 381 882 381 882 381 815 c 0,55,56
 381 765 381 765 418 734 c 0,57,58
 452 705 452 705 504 705 c 0,59,60
 567 705 567 705 615 734 c 0,61,62
 668 767 668 767 668 819 c 0,49,50
EndSplineSet
Validated: 33
Substitution2: "Single Substitution lookup 17 subtable" glyph159
EndChar

StartChar: P
Encoding: 73 3251 83
Width: 1229
GlyphClass: 2
Flags: W
LayerCount: 2
Fore
SplineSet
1143 639 m 0,0,1
 1143 534 1143 534 1063 459 c 0,2,3
 990 390 990 390 887 379 c 1,4,5
 795 379 795 379 795 379 c 2,6,7
 802 379 802 379 839 332 c 0,8,9
 889 270 889 270 889 205 c 0,10,11
 889 98 889 98 819 32 c 0,12,13
 756 -27 756 -27 672 -27 c 0,14,15
 584 -27 584 -27 523 24 c 0,16,17
 455 81 455 81 455 180 c 0,18,19
 455 285 455 285 549 358 c 1,20,21
 456 358 456 358 422 367 c 0,22,23
 273 402 273 402 206 479 c 0,24,25
 123 573 123 573 123 758 c 0,26,27
 123 915 123 915 210 1011 c 0,28,29
 287 1096 287 1096 389 1096 c 0,30,31
 463 1096 463 1096 512 1045 c 0,32,33
 565 989 565 989 565 893 c 0,34,35
 565 792 565 792 514 736 c 1,36,37
 470 686 470 686 403 686 c 0,38,39
 342 686 342 686 297 726 c 0,40,41
 248 769 248 769 248 838 c 0,42,43
 248 862 248 862 244 885 c 1,44,45
 180 844 180 844 180 727 c 0,46,47
 180 620 180 620 278 578 c 0,48,49
 323 559 323 559 496 532 c 1,50,51
 573 521 573 521 607 509 c 1,52,53
 664 491 664 491 721 446 c 1,54,55
 738 463 738 463 756 475 c 0,56,57
 799 506 799 506 840 516 c 0,58,59
 927 537 927 537 995 593 c 0,60,61
 1069 655 1069 655 1069 723 c 0,62,63
 1069 769 1069 769 1037 824 c 128,-1,64
 1005 879 1005 879 967 899 c 1,65,-1
 700 899 l 1,66,-1
 700 1071 l 1,67,-1
 831 1071 l 2,68,69
 1053 1071 1053 1071 1053 1245 c 0,70,71
 1053 1317 1053 1317 967 1393 c 1,72,-1
 1010 1438 l 1,73,74
 1143 1310 1143 1310 1143 1192 c 0,75,76
 1143 1003 1143 1003 1004 936 c 1,77,78
 1143 811 1143 811 1143 639 c 0,0,1
514 860 m 0,79,80
 514 905 514 905 477 933 c 0,81,82
 443 958 443 958 395 958 c 0,83,84
 328 958 328 958 293 924 c 0,85,86
 291 922 291 922 291 883 c 0,87,88
 291 834 291 834 326 805 c 0,89,90
 358 778 358 778 403 778 c 256,91,92
 448 778 448 778 479 799 c 0,93,94
 514 822 514 822 514 860 c 0,79,80
819 231 m 0,95,96
 819 349 819 349 676 371 c 1,97,98
 553 340 553 340 553 229 c 0,99,100
 553 170 553 170 593 134 c 0,101,102
 630 102 630 102 684 102 c 0,103,104
 737 102 737 102 776 135 c 0,105,106
 819 172 819 172 819 231 c 0,95,96
EndSplineSet
Validated: 1
Substitution2: "Single Substitution lookup 17 subtable" glyph160
EndChar

StartChar: Q
Encoding: 74 3253 84
Width: 1460
GlyphClass: 2
Flags: W
LayerCount: 2
Fore
SplineSet
1354 322 m 0,0,1
 1354 175 1354 175 1277 83 c 0,2,3
 1195 -16 1195 -16 1053 -16 c 0,4,5
 958 -16 958 -16 880 58 c 0,6,7
 824 111 824 111 782 197 c 1,8,9
 766 234 766 234 750 272 c 1,10,11
 661 -16 661 -16 440 -16 c 0,12,13
 300 -16 300 -16 207 114 c 0,14,15
 125 228 125 228 125 356 c 0,16,17
 125 492 125 492 201 563 c 0,18,19
 266 625 266 625 365 625 c 0,20,21
 444 625 444 625 500 573 c 1,22,23
 561 518 561 518 561 432 c 0,24,25
 561 372 561 372 506 330 c 0,26,27
 457 292 457 292 407 292 c 0,28,29
 367 292 367 292 367 322 c 1,30,31
 463 347 463 347 463 418 c 0,32,33
 463 476 463 476 426 510 c 0,34,35
 393 541 393 541 344 541 c 0,36,37
 285 541 285 541 241 498 c 1,38,39
 193 449 193 449 193 369 c 0,40,41
 193 188 193 188 440 188 c 0,42,43
 628 188 628 188 707 303 c 0,44,45
 750 364 750 364 750 422 c 1,46,47
 759 391 759 391 769 360 c 1,48,49
 798 291 798 291 852 248 c 0,50,51
 928 188 928 188 1044 188 c 0,52,53
 1155 188 1155 188 1218 252 c 0,54,55
 1278 312 1278 312 1278 410 c 0,56,57
 1278 549 1278 549 1165 680 c 0,58,59
 1037 828 1037 828 815 899 c 1,60,-1
 113 899 l 1,61,-1
 113 1071 l 1,62,-1
 1042 1071 l 2,63,64
 1264 1071 1264 1071 1264 1245 c 0,65,66
 1264 1317 1264 1317 1178 1393 c 1,67,-1
 1221 1438 l 1,68,69
 1354 1310 1354 1310 1354 1192 c 0,70,71
 1354 899 1354 899 1042 899 c 2,72,-1
 956 899 l 1,73,74
 1152 818 1152 818 1258 649 c 1,75,76
 1354 498 1354 498 1354 322 c 0,0,1
EndSplineSet
Validated: 1
Substitution2: "Single Substitution lookup 17 subtable" glyph161
EndChar

StartChar: R
Encoding: 75 3254 85
Width: 1229
GlyphClass: 2
Flags: W
LayerCount: 2
Fore
SplineSet
1139 459 m 0,0,1
 1139 -16 1139 -16 512 -16 c 0,2,3
 330 -16 330 -16 223 54 c 1,4,5
 109 130 109 130 109 270 c 0,6,7
 109 405 109 405 193 454 c 0,8,9
 252 488 252 488 388 488 c 0,10,11
 405 488 405 488 439 488 c 0,12,13
 474 487 474 487 492 487 c 0,14,15
 596 487 596 487 658 562 c 0,16,17
 711 625 711 625 713 709 c 0,18,19
 714 788 714 788 668 841 c 1,20,21
 616 899 616 899 524 899 c 0,22,23
 445 899 445 899 399.5 859.5 c 128,-1,24
 354 820 354 820 354 764 c 0,25,26
 354 717 354 717 386 682 c 128,-1,27
 418 647 418 647 465 647 c 0,28,29
 493 647 493 647 528 692 c 1,30,31
 444 692 444 692 444 759 c 0,32,33
 444 827 444 827 512 827 c 0,34,35
 604 827 604 827 604 735 c 0,36,37
 604 685 604 685 567 646 c 0,38,39
 525 602 525 602 459 602 c 0,40,41
 384 602 384 602 332 649 c 0,42,43
 283 693 283 693 283 754 c 0,44,45
 283 855 283 855 358 899 c 1,46,-1
 125 899 l 1,47,-1
 125 1071 l 1,48,-1
 825 1071 l 2,49,50
 1047 1071 1047 1071 1047 1245 c 0,51,52
 1047 1317 1047 1317 961 1393 c 1,53,-1
 1006 1438 l 1,54,55
 1139 1310 1139 1310 1139 1192 c 0,56,57
 1139 899 1139 899 827 899 c 1,58,59
 927 871 927 871 1018 770 c 0,60,61
 1139 636 1139 636 1139 459 c 0,0,1
1030 545 m 0,62,63
 1030 690 1030 690 916 793 c 0,64,65
 816 884 816 884 686 899 c 1,66,67
 721 875 721 875 750 823 c 0,68,69
 784 761 784 761 784 696 c 0,70,71
 784 579 784 579 704.5 503.5 c 128,-1,72
 625 428 625 428 506 428 c 0,73,74
 347 428 347 428 297 414 c 0,75,76
 219 392 219 392 219 315 c 0,77,78
 219 158 219 158 518 158 c 0,79,80
 793 158 793 158 904 233 c 0,81,82
 1030 318 1030 318 1030 545 c 0,62,63
EndSplineSet
Validated: 33
Substitution2: "Single Substitution lookup 17 subtable" glyph162
EndChar

StartChar: S
Encoding: 76 3255 86
Width: 1460
GlyphClass: 2
Flags: W
LayerCount: 2
Fore
SplineSet
1360 1192 m 0,0,1
 1360 899 1360 899 1047 899 c 2,2,-1
 125 899 l 1,3,-1
 125 1071 l 1,4,-1
 1047 1071 l 2,5,6
 1268 1071 1268 1071 1268 1245 c 0,7,8
 1268 1317 1268 1317 1182 1393 c 1,9,-1
 1227 1438 l 1,10,11
 1360 1310 1360 1310 1360 1192 c 0,0,1
850 696 m 0,12,13
 850 646 850 646 815.5 610.5 c 128,-1,14
 781 575 781 575 733 575 c 0,15,16
 682 575 682 575 647 610.5 c 128,-1,17
 612 646 612 646 612 696 c 256,18,19
 612 746 612 746 647.5 780.5 c 128,-1,20
 683 815 683 815 733 815 c 0,21,22
 781 815 781 815 815.5 780 c 128,-1,23
 850 745 850 745 850 696 c 0,12,13
1430 -2 m 0,24,25
 1446 -17 1446 -17 1446 -40 c 0,26,27
 1446 -65 1446 -65 1427 -86 c 128,-1,28
 1408 -107 1408 -107 1383 -107 c 0,29,30
 1350 -107 1350 -107 1319 -78 c 0,31,32
 1300 -60 1300 -60 1219 41 c 1,33,34
 1145 -16 1145 -16 1042 -16 c 0,35,36
 925 -16 925 -16 818 104 c 0,37,38
 733 199 733 199 733 229 c 1,39,40
 733 191 733 191 666 104 c 0,41,42
 573 -16 573 -16 438 -16 c 0,43,44
 277 -16 277 -16 191 121 c 0,45,46
 123 230 123 230 123 379 c 0,47,48
 123 504 123 504 198 579 c 0,49,50
 265 646 265 646 358 647 c 0,51,52
 442 648 442 648 499 597 c 1,53,54
 561 540 561 540 561 442 c 0,55,56
 561 385 561 385 506 343 c 0,57,58
 458 307 458 307 409 307 c 0,59,60
 369 307 369 307 369 336 c 1,61,62
 463 372 463 372 463 442 c 0,63,64
 463 490 463 490 423 520.5 c 128,-1,65
 383 551 383 551 332 551 c 0,66,67
 272 551 272 551 232 514 c 0,68,69
 186 471 186 471 186 389 c 0,70,71
 186 188 186 188 432 188 c 0,72,73
 603 188 603 188 685 302 c 0,74,75
 733 369 733 369 733 422 c 1,76,77
 733 371 733 371 783 304 c 0,78,79
 868 188 868 188 1047 188 c 0,80,81
 1079 188 1079 188 1094 193 c 1,82,-1
 807 541 l 1,83,-1
 844 565 l 1,84,-1
 1200 223 l 1,85,86
 1292 275 1292 275 1292 395 c 0,87,88
 1292 529 1292 529 1169 655 c 0,89,90
 1111 715 1111 715 1111 767 c 0,91,92
 1111 801 1111 801 1135 824 c 0,93,94
 1156 844 1156 844 1178 844 c 0,95,96
 1252 844 1252 844 1306 721 c 128,-1,97
 1360 598 1360 598 1360 440 c 0,98,99
 1360 257 1360 257 1292 133 c 1,100,101
 1358 69 1358 69 1430 -2 c 0,24,25
EndSplineSet
Validated: 33
Substitution2: "Single Substitution lookup 17 subtable" glyph163
EndChar

StartChar: T
Encoding: 77 3256 87
Width: 1229
GlyphClass: 2
Flags: W
LayerCount: 2
Fore
SplineSet
1118 1192 m 0,0,1
 1118 899 1118 899 807 899 c 2,2,-1
 145 899 l 1,3,-1
 145 1071 l 1,4,-1
 807 1071 l 2,5,6
 1028 1071 1028 1071 1028 1245 c 0,7,8
 1028 1317 1028 1317 942 1393 c 1,9,-1
 985 1438 l 1,10,11
 1118 1310 1118 1310 1118 1192 c 0,0,1
643 711 m 0,12,13
 643 663 643 663 608 627.5 c 128,-1,14
 573 592 573 592 524 592 c 0,15,16
 474 592 474 592 438.5 627.5 c 128,-1,17
 403 663 403 663 403 711 c 0,18,19
 403 760 403 760 438.5 795.5 c 128,-1,20
 474 831 474 831 524 831 c 0,21,22
 573 831 573 831 608 795.5 c 128,-1,23
 643 760 643 760 643 711 c 0,12,13
1118 379 m 0,24,25
 1118 234 1118 234 1056 114 c 0,26,27
 989 -16 989 -16 893 -16 c 0,28,29
 834 -16 834 -16 802 80 c 0,30,31
 756 222 756 222 729 258 c 0,32,33
 659 354 659 354 506 354 c 0,34,35
 210 354 210 354 210 72 c 0,36,37
 210 44 210 44 213.5 14.5 c 128,-1,38
 217 -15 217 -15 217 -12 c 1,39,40
 125 46 125 46 125 181 c 256,41,42
 125 316 125 316 216 417 c 0,43,44
 319 532 319 532 489 532 c 0,45,46
 646 532 646 532 731 440 c 0,47,48
 783 384 783 384 820 269 c 0,49,50
 850 176 850 176 872 176 c 0,51,52
 940 176 940 176 981 258 c 0,53,54
 1018 331 1018 331 1018 432 c 0,55,56
 1018 530 1018 530 980 661 c 128,-1,57
 942 792 942 792 942 776 c 1,58,59
 1019 776 1019 776 1072 627 c 1,60,61
 1118 501 1118 501 1118 379 c 0,24,25
EndSplineSet
Validated: 37
Substitution2: "Single Substitution lookup 17 subtable" exclamdown
EndChar

StartChar: U
Encoding: 78 3257 88
Width: 1526
GlyphClass: 2
Flags: W
LayerCount: 2
Fore
SplineSet
1446 346 m 0,0,1
 1446 204 1446 204 1354 99 c 0,2,3
 1254 -16 1254 -16 1096 -16 c 0,4,5
 886 -16 886 -16 774 201 c 1,6,7
 686 -16 686 -16 442 -16 c 0,8,9
 284 -16 284 -16 191 94 c 0,10,11
 106 194 106 194 106 336 c 0,12,13
 106 475 106 475 191 571 c 0,14,15
 285 678 285 678 444 678 c 0,16,17
 590 678 590 678 686 591 c 0,18,19
 752 532 752 532 752 508 c 1,20,21
 752 611 752 611 692 725 c 0,22,23
 600 899 600 899 420 899 c 2,24,-1
 94 899 l 1,25,-1
 94 1071 l 1,26,-1
 1133 1071 l 2,27,28
 1354 1071 1354 1071 1354 1245 c 0,29,30
 1354 1317 1354 1317 1268 1393 c 1,31,-1
 1313 1438 l 1,32,33
 1446 1310 1446 1310 1446 1192 c 0,34,35
 1446 899 1446 899 1133 899 c 2,36,-1
 586 899 l 2,37,38
 673 899 673 899 749 748 c 1,39,40
 813 618 813 618 813 528 c 1,41,42
 813 543 813 543 878 598 c 0,43,44
 969 676 969 676 1090 676 c 0,45,46
 1261 676 1261 676 1358 574 c 1,47,48
 1446 483 1446 483 1446 346 c 0,0,1
1319 391 m 0,49,50
 1319 484 1319 484 1261 547 c 0,51,52
 1197 616 1197 616 1085 616 c 0,53,54
 884 616 884 616 823 389 c 1,55,56
 823 340 823 340 867 274 c 1,57,58
 939 162 939 162 1090 162 c 0,59,60
 1198 162 1198 162 1262 234 c 0,61,62
 1319 299 1319 299 1319 391 c 0,49,50
748 377 m 1,63,64
 673 625 673 625 457 625 c 0,65,66
 346 625 346 625 282 552 c 0,67,68
 225 488 225 488 225 395 c 0,69,70
 225 304 225 304 285 237 c 0,71,72
 351 164 351 164 459 164 c 0,73,74
 587 164 587 164 680 269 c 0,75,76
 748 345 748 345 748 377 c 1,63,64
EndSplineSet
Validated: 1
Substitution2: "Single Substitution lookup 17 subtable" cent
EndChar

StartChar: V
Encoding: 79 3262 89
Width: 797
GlyphClass: 4
Flags: W
LayerCount: 2
Fore
SplineSet
713 455 m 0,0,1
 713 258 713 258 623 127 c 0,2,3
 525 -16 525 -16 358 -16 c 0,4,5
 61 -16 61 -16 61 332 c 0,6,7
 61 457 61 457 131 527 c 0,8,9
 195 592 195 592 299 592 c 0,10,11
 375 592 375 592 422 537 c 1,12,13
 463 487 463 487 463 420 c 0,14,15
 463 369 463 369 433 336 c 0,16,17
 400 299 400 299 346 299 c 0,18,19
 250 299 250 299 250 389 c 0,20,21
 250 420 250 420 272 442.5 c 128,-1,22
 294 465 294 465 328 465 c 0,23,24
 353 465 353 465 376 455 c 0,25,26
 391 449 391 449 391 451 c 0,27,28
 400 530 400 530 295 530 c 0,29,30
 228 530 228 530 175 481 c 0,31,32
 119 429 119 429 119 352 c 0,33,34
 119 267 119 267 164 210 c 0,35,36
 226 131 226 131 360 131 c 0,37,38
 505 131 505 131 588 229 c 0,39,40
 664 318 664 318 664 453 c 0,41,42
 664 618 664 618 535 756 c 0,43,44
 400 899 400 899 223 899 c 2,45,-1
 -469 899 l 1,46,-1
 -469 1071 l 1,47,-1
 145 1071 l 2,48,49
 380 1071 380 1071 550 873 c 1,50,51
 713 686 713 686 713 455 c 0,0,1
EndSplineSet
Validated: 33
EndChar

StartChar: W
Encoding: 80 3263 90
Width: 838
GlyphClass: 4
Flags: W
LayerCount: 2
Fore
SplineSet
-137 1151 m 0,0,1
 -137 1043 -137 1043 -194 974 c 0,2,3
 -257 897 -257 897 -373 897 c 0,4,5
 -442 897 -442 897 -495 927 c 0,6,7
 -555 960 -555 960 -555 1012 c 0,8,9
 -555 1042 -555 1042 -532 1057 c 1,10,11
 -495 981 -495 981 -371 981 c 0,12,13
 -286 981 -286 981 -238 1036 c 0,14,15
 -197 1084 -197 1084 -197 1153 c 0,16,17
 -197 1231 -197 1231 -209 1249 c 1,18,19
 -204 1240 -204 1240 -258 1185 c 0,20,21
 -323 1118 -323 1118 -408 1118 c 0,22,23
 -496 1118 -496 1118 -552 1181 c 0,24,25
 -602 1238 -602 1238 -602 1317 c 0,26,27
 -602 1395 -602 1395 -557 1446 c 0,28,29
 -506 1503 -506 1503 -418 1503 c 0,30,31
 -288 1503 -288 1503 -208 1389 c 0,32,33
 -137 1288 -137 1288 -137 1151 c 0,0,1
-246 1317 m 1,34,35
 -287 1389 -287 1389 -379 1389 c 0,36,37
 -439 1389 -439 1389 -477.5 1350.5 c 128,-1,38
 -516 1312 -516 1312 -516 1264 c 0,39,40
 -516 1176 -516 1176 -408 1176 c 0,41,42
 -290 1176 -290 1176 -246 1317 c 1,34,35
EndSplineSet
Validated: 33
EndChar

StartChar: X
Encoding: 81 3264 91
Width: 838
GlyphClass: 4
Flags: W
LayerCount: 2
Fore
SplineSet
739 0 m 1,0,-1
 401 0 l 1,1,2
 258 91 258 91 180 268 c 0,3,4
 109 429 109 429 109 614 c 0,5,6
 109 817 109 817 191 950 c 0,7,8
 280 1094 280 1094 432 1094 c 0,9,10
 549 1094 549 1094 611 1016 c 0,11,12
 666 947 666 947 666 844 c 0,13,14
 665 737 665 737 609 659 c 1,15,16
 549 573 549 573 457 573 c 0,17,18
 366 573 366 573 316 647 c 0,19,20
 272 712 272 712 272 813 c 0,21,22
 272 836 272 836 274 877 c 1,23,24
 170 772 170 772 170 614 c 0,25,26
 170 429 170 429 307 265 c 0,27,28
 463 79 463 79 739 0 c 1,0,-1
-137 1151 m 0,29,30
 -137 1043 -137 1043 -194 974 c 0,31,32
 -257 897 -257 897 -373 897 c 0,33,34
 -442 897 -442 897 -495 927 c 0,35,36
 -555 960 -555 960 -555 1012 c 0,37,38
 -555 1042 -555 1042 -532 1057 c 1,39,40
 -495 981 -495 981 -371 981 c 0,41,42
 -286 981 -286 981 -238 1036 c 0,43,44
 -197 1084 -197 1084 -197 1153 c 0,45,46
 -197 1231 -197 1231 -209 1249 c 1,47,48
 -204 1240 -204 1240 -258 1185 c 0,49,50
 -323 1118 -323 1118 -408 1118 c 0,51,52
 -496 1118 -496 1118 -552 1181 c 0,53,54
 -602 1238 -602 1238 -602 1317 c 0,55,56
 -602 1395 -602 1395 -557 1446 c 0,57,58
 -506 1503 -506 1503 -418 1503 c 0,59,60
 -288 1503 -288 1503 -208 1389 c 0,61,62
 -137 1288 -137 1288 -137 1151 c 0,29,30
612 836 m 0,63,64
 612 958 612 958 463 958 c 0,65,66
 391 958 391 958 322 913 c 1,67,68
 322 711 322 711 477 711 c 0,69,70
 535 711 535 711 575 750 c 0,71,72
 612 787 612 787 612 836 c 0,63,64
-246 1317 m 1,73,74
 -287 1389 -287 1389 -379 1389 c 0,75,76
 -439 1389 -439 1389 -477.5 1350.5 c 128,-1,77
 -516 1312 -516 1312 -516 1264 c 0,78,79
 -516 1176 -516 1176 -408 1176 c 0,80,81
 -290 1176 -290 1176 -246 1317 c 1,73,74
EndSplineSet
Validated: 33
EndChar

StartChar: Y
Encoding: 118 -1 92
Width: 324
GlyphClass: 4
Flags: W
LayerCount: 2
Fore
SplineSet
201 346 m 0,0,1
 201 54 201 54 104 -135 c 1,2,3
 -10 -360 -10 -360 -231 -360 c 0,4,5
 -375 -360 -375 -360 -499 -236 c 0,6,7
 -614 -121 -614 -121 -668 49 c 1,8,9
 -483 -197 -483 -197 -283 -197 c 0,10,11
 -115 -197 -115 -197 0 -56 c 128,-1,12
 115 85 115 85 115 295 c 0,13,14
 115 559 115 559 -74 815 c 0,15,16
 -89 836 -89 836 -89 863 c 0,17,18
 -89 942 -89 942 -12 942 c 0,19,20
 76 942 76 942 140 759 c 0,21,22
 201 582 201 582 201 346 c 0,0,1
EndSplineSet
Validated: 1
EndChar

StartChar: Z
Encoding: 83 3266 93
Width: 1425
GlyphClass: 4
Flags: W
LayerCount: 2
Fore
SplineSet
1303 483 m 0,0,1
 1303 217 1303 217 1214.5 100.5 c 128,-1,2
 1126 -16 1126 -16 934 -16 c 0,3,4
 799 -16 799 -16 712 110 c 0,5,6
 631 226 631 226 631 383 c 0,7,8
 631 498 631 498 694 562 c 0,9,10
 747 616 747 616 825 618 c 1,11,12
 894 621 894 621 946 578 c 128,-1,13
 998 535 998 535 997 465 c 0,14,15
 997 410 997 410 963 379 c 1,16,17
 934 351 934 351 892 351 c 0,18,19
 803 351 803 351 803 434 c 0,20,21
 803 484 803 484 852 518 c 1,22,23
 834 532 834 532 806 532 c 0,24,25
 760 532 760 532 726 500 c 0,26,27
 686 462 686 462 686 395 c 0,28,29
 686 311 686 311 759.5 246.5 c 128,-1,30
 833 182 833 182 930 182 c 0,31,32
 1051 182 1051 182 1148 266 c 0,33,34
 1253 357 1253 357 1253 487 c 0,35,36
 1253 724 1253 724 1118 855 c 0,37,38
 996 973 996 973 803 973 c 0,39,40
 654 973 654 973 547 864 c 0,41,42
 438 752 438 752 438 591 c 0,43,44
 438 561 438 561 442 530 c 0,45,46
 479 269 479 269 479 266 c 0,47,48
 479 148 479 148 421 72 c 0,49,50
 355 -14 355 -14 231 -14 c 0,51,52
 74 -14 74 -14 -34 127 c 0,53,54
 -125 247 -125 247 -125 367 c 1,55,56
 -23 182 -23 182 164 182 c 0,57,58
 289 182 289 182 343 215 c 1,59,60
 408 253 408 253 408 355 c 0,61,62
 408 397 408 397 397 453 c 0,63,64
 379 546 379 546 379 632 c 0,65,66
 379 859 379 859 497 996 c 0,67,68
 609 1126 609 1126 784 1126 c 0,69,70
 1006 1126 1006 1126 1151 955 c 0,71,72
 1303 775 1303 775 1303 483 c 0,0,1
EndSplineSet
Validated: 33
Substitution2: "Single Substitution lookup 19 subtable" w
EndChar

StartChar: bracketleft
Encoding: 84 3267 94
Width: 406
GlyphClass: 4
Flags: W
LayerCount: 2
Fore
SplineSet
332 -223 m 0,0,1
 332 -430 332 -430 258 -554 c 0,2,3
 172 -700 172 -700 -4 -700 c 0,4,5
 -146 -700 -146 -700 -230 -598 c 0,6,7
 -303 -508 -303 -508 -303 -383 c 0,8,9
 -303 -287 -303 -287 -253 -221 c 0,10,11
 -198 -150 -198 -150 -109 -150 c 0,12,13
 -46 -150 -46 -150 -7 -191 c 0,14,15
 29 -230 29 -230 29 -283 c 0,16,17
 29 -346 29 -346 -4 -391 c 0,18,19
 -42 -442 -42 -442 -106 -442 c 0,20,21
 -187 -442 -187 -442 -246 -360 c 1,22,23
 -246 -467 -246 -467 -178 -533 c 0,24,25
 -117 -592 -117 -592 -35 -592 c 0,26,27
 111 -592 111 -592 188 -472 c 0,28,29
 258 -364 258 -364 258 -186 c 0,30,31
 258 120 258 120 84 336 c 1,32,33
 106 359 106 359 129 359 c 0,34,35
 136 359 136 359 143 356 c 0,36,37
 214 320 214 320 272 146 c 0,38,39
 332 -33 332 -33 332 -223 c 0,0,1
-16 -305 m 0,40,41
 -16 -270 -16 -270 -42.5 -243.5 c 128,-1,42
 -69 -217 -69 -217 -111 -217 c 0,43,44
 -160 -217 -160 -217 -196 -250 c 0,45,46
 -229 -279 -229 -279 -229 -311 c 0,47,48
 -229 -324 -229 -324 -204 -353 c 1,49,50
 -169 -391 -169 -391 -121 -391 c 0,51,52
 -16 -391 -16 -391 -16 -305 c 0,40,41
EndSplineSet
Validated: 1
EndChar

StartChar: backslash
Encoding: 85 3268 95
Width: 279
GlyphClass: 4
Flags: W
LayerCount: 2
Fore
SplineSet
274 -422 m 1,0,1
 275 -524 275 -524 222 -600 c 0,2,3
 166 -680 166 -680 84 -680 c 0,4,5
 -78 -680 -78 -680 -78 -489 c 0,6,7
 -78 -396 -78 -396 -8 -293 c 1,8,9
 -203 -292 -203 -292 -395 -293 c 1,10,11
 -235 -389 -235 -389 -231 -678 c 0,12,13
 -230 -803 -230 -803 -293 -882 c 1,14,15
 -364 -969 -364 -969 -494 -969 c 0,16,17
 -630 -969 -630 -969 -713 -866 c 0,18,19
 -787 -774 -787 -774 -788 -647 c 1,20,21
 -790 -545 -790 -545 -746 -479 c 0,22,23
 -698 -406 -698 -406 -610 -406 c 0,24,25
 -547 -406 -547 -406 -509 -452 c 0,26,27
 -475 -493 -475 -493 -475 -553 c 0,28,29
 -475 -614 -475 -614 -510 -656 c 0,30,31
 -548 -702 -548 -702 -614 -702 c 0,32,33
 -696 -702 -696 -702 -741 -612 c 1,34,35
 -753 -850 -753 -850 -508 -850 c 0,36,37
 -406 -850 -406 -850 -345 -789 c 0,38,39
 -288 -731 -288 -731 -287 -639 c 0,40,41
 -285 -391 -285 -391 -496 -274 c 1,42,-1
 -496 -152 l 1,43,44
 -494 -150 -494 -150 -14 -152 c 0,45,46
 130 -152 130 -152 207 -238 c 1,47,48
 274 -311 274 -311 274 -422 c 1,0,1
127 -291 m 2,49,-1
 35 -291 l 1,50,51
 -13 -342 -13 -342 -13 -419 c 0,52,53
 -13 -551 -13 -551 109 -551 c 0,54,55
 167 -551 167 -551 199 -510 c 0,56,57
 228 -473 228 -473 228 -420 c 0,58,59
 228 -368 228 -368 202 -331 c 0,60,61
 173 -291 173 -291 127 -291 c 2,49,-1
-612 -475 m 0,62,63
 -694 -475 -694 -475 -723 -561 c 1,64,65
 -687 -639 -687 -639 -623 -639 c 0,66,67
 -574 -639 -574 -639 -545 -612 c 0,68,69
 -519 -588 -519 -588 -519 -553 c 0,70,71
 -519 -475 -519 -475 -612 -475 c 0,62,63
EndSplineSet
Validated: 33
EndChar

StartChar: bracketright
Encoding: 86 3270 96
Width: 20
GlyphClass: 4
Flags: W
LayerCount: 2
Fore
SplineSet
-66 1202 m 0,0,1
 -66 1055 -66 1055 -165 970 c 0,2,3
 -248 899 -248 899 -352 899 c 2,4,-1
 -496 899 l 1,5,-1
 -496 1071 l 1,6,-1
 -352 1071 l 2,7,8
 -264 1071 -264 1071 -208 1117.5 c 128,-1,9
 -152 1164 -152 1164 -152 1239 c 0,10,11
 -152 1320 -152 1320 -202 1369 c 0,12,13
 -248 1413 -248 1413 -311 1413 c 0,14,15
 -373 1413 -373 1413 -414 1384 c 0,16,17
 -459 1353 -459 1353 -459 1298 c 0,18,19
 -459 1230 -459 1230 -401 1233 c 1,20,21
 -401 1319 -401 1319 -344 1319 c 0,22,23
 -283 1319 -283 1319 -283 1249 c 0,24,25
 -283 1176 -283 1176 -389 1176 c 0,26,27
 -496 1176 -496 1176 -496 1294 c 0,28,29
 -496 1377 -496 1377 -434 1424 c 0,30,31
 -378 1466 -378 1466 -295 1466 c 0,32,33
 -203 1466 -203 1466 -138 1400 c 0,34,35
 -66 1327 -66 1327 -66 1202 c 0,0,1
EndSplineSet
Validated: 33
EndChar

StartChar: asciicircum
Encoding: 87 3271 97
Width: 838
GlyphClass: 4
Flags: W
LayerCount: 2
Fore
SplineSet
739 0 m 1,0,-1
 401 0 l 1,1,2
 258 91 258 91 180 268 c 0,3,4
 109 429 109 429 109 614 c 0,5,6
 109 817 109 817 191 950 c 0,7,8
 280 1094 280 1094 432 1094 c 0,9,10
 549 1094 549 1094 611 1016 c 0,11,12
 666 947 666 947 666 844 c 0,13,14
 665 737 665 737 609 659 c 1,15,16
 549 573 549 573 457 573 c 0,17,18
 366 573 366 573 316 647 c 0,19,20
 272 712 272 712 272 813 c 0,21,22
 272 836 272 836 274 877 c 1,23,24
 170 772 170 772 170 614 c 0,25,26
 170 429 170 429 307 265 c 0,27,28
 463 79 463 79 739 0 c 1,0,-1
-66 1202 m 0,29,30
 -66 1055 -66 1055 -165 970 c 0,31,32
 -248 899 -248 899 -352 899 c 2,33,-1
 -496 899 l 1,34,-1
 -496 1071 l 1,35,-1
 -352 1071 l 2,36,37
 -264 1071 -264 1071 -208 1117.5 c 128,-1,38
 -152 1164 -152 1164 -152 1239 c 0,39,40
 -152 1320 -152 1320 -202 1369 c 0,41,42
 -248 1413 -248 1413 -311 1413 c 0,43,44
 -373 1413 -373 1413 -414 1384 c 0,45,46
 -459 1353 -459 1353 -459 1298 c 0,47,48
 -459 1230 -459 1230 -401 1233 c 1,49,50
 -401 1319 -401 1319 -344 1319 c 0,51,52
 -283 1319 -283 1319 -283 1249 c 0,53,54
 -283 1176 -283 1176 -389 1176 c 0,55,56
 -496 1176 -496 1176 -496 1294 c 0,57,58
 -496 1377 -496 1377 -434 1424 c 0,59,60
 -378 1466 -378 1466 -295 1466 c 0,61,62
 -203 1466 -203 1466 -138 1400 c 0,63,64
 -66 1327 -66 1327 -66 1202 c 0,29,30
612 836 m 0,65,66
 612 958 612 958 463 958 c 0,67,68
 391 958 391 958 322 913 c 1,69,70
 322 711 322 711 477 711 c 0,71,72
 535 711 535 711 575 750 c 0,73,74
 612 787 612 787 612 836 c 0,65,66
EndSplineSet
Validated: 33
EndChar

StartChar: underscore
Encoding: 88 3272 98
Width: 377
GlyphClass: 4
Flags: W
LayerCount: 2
Fore
SplineSet
-66 1202 m 0,0,1
 -66 1055 -66 1055 -165 970 c 0,2,3
 -248 899 -248 899 -352 899 c 2,4,-1
 -496 899 l 1,5,-1
 -496 1071 l 1,6,-1
 -352 1071 l 2,7,8
 -264 1071 -264 1071 -208 1117.5 c 128,-1,9
 -152 1164 -152 1164 -152 1239 c 0,10,11
 -152 1320 -152 1320 -202 1369 c 0,12,13
 -248 1413 -248 1413 -311 1413 c 0,14,15
 -373 1413 -373 1413 -414 1384 c 0,16,17
 -459 1353 -459 1353 -459 1298 c 0,18,19
 -459 1230 -459 1230 -401 1233 c 1,20,21
 -401 1319 -401 1319 -344 1319 c 0,22,23
 -283 1319 -283 1319 -283 1249 c 0,24,25
 -283 1176 -283 1176 -389 1176 c 0,26,27
 -496 1176 -496 1176 -496 1294 c 0,28,29
 -496 1377 -496 1377 -434 1424 c 0,30,31
 -378 1466 -378 1466 -295 1466 c 0,32,33
 -203 1466 -203 1466 -138 1400 c 0,34,35
 -66 1327 -66 1327 -66 1202 c 0,0,1
303 -401 m 0,36,37
 303 -529 303 -529 241 -624 c 0,38,39
 169 -733 169 -733 49 -733 c 0,40,41
 -87 -733 -87 -733 -169 -622 c 0,42,43
 -242 -523 -242 -523 -242 -389 c 0,44,45
 -242 -288 -242 -288 -198 -222 c 0,46,47
 -150 -150 -150 -150 -70 -150 c 0,48,49
 -2 -150 -2 -150 36 -199 c 0,50,51
 70 -242 70 -242 70 -305 c 0,52,53
 70 -364 70 -364 32 -408 c 0,54,55
 -9 -455 -9 -455 -74 -455 c 0,56,57
 -147 -455 -147 -455 -207 -373 c 1,58,59
 -207 -479 -207 -479 -142 -555 c 128,-1,60
 -77 -631 -77 -631 4 -631 c 0,61,62
 90 -631 90 -631 160.5 -552.5 c 128,-1,63
 231 -474 231 -474 231 -367 c 0,64,65
 231 -164 231 -164 -2 4 c 1,66,67
 73 103 73 103 74 186 c 0,68,69
 75 271 75 271 14 354 c 1,70,71
 80 350 80 350 116 301 c 1,72,73
 150 257 150 257 150 193 c 0,74,75
 150 62 150 62 78 10 c 1,76,77
 81 14 81 14 135 -30 c 0,78,79
 203 -86 203 -86 244 -161 c 0,80,81
 303 -268 303 -268 303 -401 c 0,36,37
27 -315 m 0,82,83
 27 -280 27 -280 0 -252.5 c 128,-1,84
 -27 -225 -27 -225 -74 -225 c 0,85,86
 -157 -225 -157 -225 -186 -315 c 1,87,88
 -186 -347 -186 -347 -146 -370 c 0,89,90
 -111 -389 -111 -389 -78 -389 c 0,91,92
 27 -389 27 -389 27 -315 c 0,82,83
EndSplineSet
Validated: 37
EndChar

StartChar: grave
Encoding: 89 3274 99
Width: 1425
GlyphClass: 4
Flags: W
LayerCount: 2
Fore
SplineSet
1303 483 m 0,0,1
 1303 217 1303 217 1214.5 100.5 c 128,-1,2
 1126 -16 1126 -16 934 -16 c 0,3,4
 799 -16 799 -16 712 110 c 0,5,6
 631 226 631 226 631 383 c 0,7,8
 631 498 631 498 694 562 c 0,9,10
 747 616 747 616 825 618 c 1,11,12
 894 621 894 621 946 578 c 128,-1,13
 998 535 998 535 997 465 c 0,14,15
 997 410 997 410 963 379 c 1,16,17
 934 351 934 351 892 351 c 0,18,19
 803 351 803 351 803 434 c 0,20,21
 803 484 803 484 852 518 c 1,22,23
 834 532 834 532 806 532 c 0,24,25
 760 532 760 532 726 500 c 0,26,27
 686 462 686 462 686 395 c 0,28,29
 686 311 686 311 759.5 246.5 c 128,-1,30
 833 182 833 182 930 182 c 0,31,32
 1051 182 1051 182 1148 266 c 0,33,34
 1253 357 1253 357 1253 487 c 0,35,36
 1253 724 1253 724 1118 855 c 0,37,38
 996 973 996 973 803 973 c 0,39,40
 654 973 654 973 547 864 c 0,41,42
 438 752 438 752 438 591 c 0,43,44
 438 561 438 561 442 530 c 0,45,46
 479 269 479 269 479 266 c 0,47,48
 479 148 479 148 421 72 c 0,49,50
 355 -14 355 -14 231 -14 c 0,51,52
 74 -14 74 -14 -34 127 c 0,53,54
 -125 247 -125 247 -125 367 c 1,55,56
 -23 182 -23 182 164 182 c 0,57,58
 289 182 289 182 343 215 c 1,59,60
 408 253 408 253 408 355 c 0,61,62
 408 397 408 397 397 453 c 0,63,64
 379 546 379 546 379 632 c 0,65,66
 379 859 379 859 497 996 c 0,67,68
 609 1126 609 1126 784 1126 c 0,69,70
 1006 1126 1006 1126 1151 955 c 0,71,72
 1303 775 1303 775 1303 483 c 0,0,1
-66 1202 m 0,73,74
 -66 1055 -66 1055 -165 970 c 0,75,76
 -248 899 -248 899 -352 899 c 2,77,-1
 -496 899 l 1,78,-1
 -496 1071 l 1,79,-1
 -352 1071 l 2,80,81
 -264 1071 -264 1071 -208 1117.5 c 128,-1,82
 -152 1164 -152 1164 -152 1239 c 0,83,84
 -152 1320 -152 1320 -202 1369 c 0,85,86
 -248 1413 -248 1413 -311 1413 c 0,87,88
 -373 1413 -373 1413 -414 1384 c 0,89,90
 -459 1353 -459 1353 -459 1298 c 0,91,92
 -459 1230 -459 1230 -401 1233 c 1,93,94
 -401 1319 -401 1319 -344 1319 c 0,95,96
 -283 1319 -283 1319 -283 1249 c 0,97,98
 -283 1176 -283 1176 -389 1176 c 0,99,100
 -496 1176 -496 1176 -496 1294 c 0,101,102
 -496 1377 -496 1377 -434 1424 c 0,103,104
 -378 1466 -378 1466 -295 1466 c 0,105,106
 -203 1466 -203 1466 -138 1400 c 0,107,108
 -66 1327 -66 1327 -66 1202 c 0,73,74
EndSplineSet
Validated: 33
EndChar

StartChar: a
Encoding: 90 3275 100
Width: 2200
GlyphClass: 4
Flags: W
LayerCount: 2
Fore
SplineSet
2101 0 m 1,0,-1
 1761 0 l 1,1,2
 1619 91 1619 91 1541 268 c 0,3,4
 1470 429 1470 429 1470 614 c 0,5,6
 1470 817 1470 817 1553 950 c 0,7,8
 1642 1094 1642 1094 1794 1094 c 0,9,10
 1909 1094 1909 1094 1973 1016 c 1,11,12
 2028 947 2028 947 2028 844 c 0,13,14
 2027 738 2027 738 1970 659 c 1,15,16
 1910 573 1910 573 1819 573 c 0,17,18
 1726 573 1726 573 1677 647 c 0,19,20
 1634 712 1634 712 1634 813 c 0,21,22
 1634 836 1634 836 1636 877 c 1,23,24
 1532 772 1532 772 1532 614 c 0,25,26
 1532 429 1532 429 1669 265 c 0,27,28
 1824 79 1824 79 2101 0 c 1,0,-1
1303 483 m 0,29,30
 1303 217 1303 217 1214.5 100.5 c 128,-1,31
 1126 -16 1126 -16 934 -16 c 0,32,33
 799 -16 799 -16 712 110 c 0,34,35
 631 226 631 226 631 383 c 0,36,37
 631 498 631 498 694 562 c 0,38,39
 747 616 747 616 825 618 c 1,40,41
 894 621 894 621 946 578 c 128,-1,42
 998 535 998 535 997 465 c 0,43,44
 997 410 997 410 963 379 c 1,45,46
 934 351 934 351 892 351 c 0,47,48
 803 351 803 351 803 434 c 0,49,50
 803 484 803 484 852 518 c 1,51,52
 834 532 834 532 806 532 c 0,53,54
 760 532 760 532 726 500 c 0,55,56
 686 462 686 462 686 395 c 0,57,58
 686 311 686 311 759.5 246.5 c 128,-1,59
 833 182 833 182 930 182 c 0,60,61
 1051 182 1051 182 1148 266 c 0,62,63
 1253 357 1253 357 1253 487 c 0,64,65
 1253 724 1253 724 1118 855 c 0,66,67
 996 973 996 973 803 973 c 0,68,69
 654 973 654 973 547 864 c 0,70,71
 438 752 438 752 438 591 c 0,72,73
 438 561 438 561 442 530 c 0,74,75
 479 269 479 269 479 266 c 0,76,77
 479 148 479 148 421 72 c 0,78,79
 355 -14 355 -14 231 -14 c 0,80,81
 74 -14 74 -14 -34 127 c 0,82,83
 -125 247 -125 247 -125 367 c 1,84,85
 -23 182 -23 182 164 182 c 0,86,87
 289 182 289 182 343 215 c 1,88,89
 408 253 408 253 408 355 c 0,90,91
 408 397 408 397 397 453 c 0,92,93
 379 546 379 546 379 632 c 0,94,95
 379 859 379 859 497 996 c 0,96,97
 609 1126 609 1126 784 1126 c 0,98,99
 1006 1126 1006 1126 1151 955 c 0,100,101
 1303 775 1303 775 1303 483 c 0,29,30
-66 1202 m 0,102,103
 -66 1055 -66 1055 -165 970 c 0,104,105
 -248 899 -248 899 -352 899 c 2,106,-1
 -496 899 l 1,107,-1
 -496 1071 l 1,108,-1
 -352 1071 l 2,109,110
 -264 1071 -264 1071 -208 1117.5 c 128,-1,111
 -152 1164 -152 1164 -152 1239 c 0,112,113
 -152 1320 -152 1320 -202 1369 c 0,114,115
 -248 1413 -248 1413 -311 1413 c 0,116,117
 -373 1413 -373 1413 -414 1384 c 0,118,119
 -459 1353 -459 1353 -459 1298 c 0,120,121
 -459 1230 -459 1230 -401 1233 c 1,122,123
 -401 1319 -401 1319 -344 1319 c 0,124,125
 -283 1319 -283 1319 -283 1249 c 0,126,127
 -283 1176 -283 1176 -389 1176 c 0,128,129
 -496 1176 -496 1176 -496 1294 c 0,130,131
 -496 1377 -496 1377 -434 1424 c 0,132,133
 -378 1466 -378 1466 -295 1466 c 0,134,135
 -203 1466 -203 1466 -138 1400 c 0,136,137
 -66 1327 -66 1327 -66 1202 c 0,102,103
1974 836 m 0,138,139
 1974 958 1974 958 1823 958 c 0,140,141
 1752 958 1752 958 1683 913 c 1,142,143
 1683 711 1683 711 1839 711 c 0,144,145
 1897 711 1897 711 1937 750 c 0,146,147
 1974 787 1974 787 1974 836 c 0,138,139
EndSplineSet
Validated: 33
EndChar

StartChar: b
Encoding: 91 3276 101
Width: 1044
GlyphClass: 4
Flags: W
LayerCount: 2
Fore
SplineSet
922 801 m 0,0,1
 922 559 922 559 815 390 c 0,2,3
 715 231 715 231 588 231 c 0,4,5
 422 231 422 231 329 354 c 0,6,7
 248 462 248 462 248 625 c 0,8,9
 248 747 248 747 316.5 823 c 128,-1,10
 385 899 385 899 489 899 c 0,11,12
 555 899 555 899 611 838 c 0,13,14
 672 771 672 771 672 674 c 0,15,16
 672 615 672 615 633 575.5 c 128,-1,17
 594 536 594 536 549 537 c 0,18,19
 455 538 455 538 455 627 c 0,20,21
 455 711 455 711 528 711 c 0,22,23
 559 711 559 711 594 690 c 1,24,25
 590 823 590 823 489 823 c 0,26,27
 419 823 419 823 363 764 c 128,-1,28
 307 705 307 705 307 627 c 0,29,30
 307 533 307 533 373 462 c 0,31,32
 448 381 448 381 573 381 c 0,33,34
 683 381 683 381 772 487 c 0,35,36
 868 601 868 601 868 764 c 0,37,38
 868 1251 868 1251 342 1251 c 2,39,-1
 106 1251 l 1,40,41
 106 1093 106 1093 29 996 c 128,-1,42
 -48 899 -48 899 -180 899 c 2,43,-1
 -385 899 l 1,44,-1
 -385 1071 l 1,45,-1
 -180 1071 l 2,46,47
 22 1071 22 1071 22 1212 c 0,48,49
 22 1221 22 1221 21 1235 c 128,-1,50
 20 1249 20 1249 20 1253 c 1,51,-1
 -279 1253 l 1,52,-1
 -279 1425 l 1,53,-1
 352 1425 l 2,54,55
 611 1425 611 1425 760 1275 c 0,56,57
 922 1112 922 1112 922 801 c 0,0,1
EndSplineSet
Validated: 33
EndChar

StartChar: c
Encoding: 92 3277 102
Width: 827
GlyphClass: 4
Flags: W
LayerCount: 2
Fore
SplineSet
764 1069 m 0,0,1
 764 1023 764 1023 725 995 c 1,2,3
 725 1053 725 1053 666 1104 c 0,4,5
 597 1163 597 1163 487 1163 c 0,6,7
 274 1163 274 1163 217 1071 c 1,8,9
 359 1071 359 1071 447 1010 c 0,10,11
 561 931 561 931 561 764 c 0,12,13
 561 647 561 647 494 569 c 0,14,15
 431 496 431 496 344 496 c 0,16,17
 248 496 248 496 184 581 c 1,18,19
 111 680 111 680 111 860 c 0,20,21
 111 889 111 889 113 899 c 1,22,-1
 -426 899 l 1,23,-1
 -426 1071 l 1,24,-1
 139 1071 l 1,25,26
 139 1188 139 1188 243 1253 c 0,27,28
 331 1307 331 1307 455 1307 c 256,29,30
 579 1307 579 1307 668 1242 c 1,31,32
 764 1174 764 1174 764 1069 c 0,0,1
336 651 m 0,33,34
 411 651 411 651 456 687 c 0,35,36
 496 720 496 720 496 768 c 0,37,38
 496 820 496 820 448 858 c 0,39,40
 395 899 395 899 305 899 c 2,41,-1
 172 899 l 1,42,43
 171 885 171 885 171 866 c 0,44,45
 171 651 171 651 336 651 c 0,33,34
EndSplineSet
Validated: 1
EndChar

StartChar: d
Encoding: 93 3285 103
Width: 838
GlyphClass: 4
Flags: W
LayerCount: 2
Fore
SplineSet
739 0 m 1,0,-1
 401 0 l 1,1,2
 258 91 258 91 180 268 c 0,3,4
 109 429 109 429 109 614 c 0,5,6
 109 817 109 817 191 950 c 0,7,8
 280 1094 280 1094 432 1094 c 0,9,10
 549 1094 549 1094 611 1016 c 0,11,12
 666 947 666 947 666 844 c 0,13,14
 665 737 665 737 609 659 c 1,15,16
 549 573 549 573 457 573 c 0,17,18
 366 573 366 573 316 647 c 0,19,20
 272 712 272 712 272 813 c 0,21,22
 272 836 272 836 274 877 c 1,23,24
 170 772 170 772 170 614 c 0,25,26
 170 429 170 429 307 265 c 0,27,28
 463 79 463 79 739 0 c 1,0,-1
612 836 m 0,29,30
 612 958 612 958 463 958 c 0,31,32
 391 958 391 958 322 913 c 1,33,34
 322 711 322 711 477 711 c 0,35,36
 535 711 535 711 575 750 c 0,37,38
 612 787 612 787 612 836 c 0,29,30
EndSplineSet
Validated: 1
EndChar

StartChar: e
Encoding: 94 3286 104
Width: 377
GlyphClass: 4
Flags: W
LayerCount: 2
Fore
SplineSet
303 -401 m 0,0,1
 303 -529 303 -529 241 -624 c 0,2,3
 169 -733 169 -733 49 -733 c 0,4,5
 -87 -733 -87 -733 -169 -622 c 0,6,7
 -242 -523 -242 -523 -242 -389 c 0,8,9
 -242 -288 -242 -288 -198 -222 c 0,10,11
 -150 -150 -150 -150 -70 -150 c 0,12,13
 -2 -150 -2 -150 36 -199 c 0,14,15
 70 -242 70 -242 70 -305 c 0,16,17
 70 -364 70 -364 32 -408 c 0,18,19
 -9 -455 -9 -455 -74 -455 c 0,20,21
 -147 -455 -147 -455 -207 -373 c 1,22,23
 -207 -479 -207 -479 -142 -555 c 128,-1,24
 -77 -631 -77 -631 4 -631 c 0,25,26
 90 -631 90 -631 160.5 -552.5 c 128,-1,27
 231 -474 231 -474 231 -367 c 0,28,29
 231 -164 231 -164 -2 4 c 1,30,31
 73 103 73 103 74 186 c 0,32,33
 75 271 75 271 14 354 c 1,34,35
 80 350 80 350 116 301 c 1,36,37
 150 257 150 257 150 193 c 0,38,39
 150 62 150 62 78 10 c 1,40,41
 81 14 81 14 135 -30 c 0,42,43
 203 -86 203 -86 244 -161 c 0,44,45
 303 -268 303 -268 303 -401 c 0,0,1
27 -315 m 0,46,47
 27 -280 27 -280 0 -252.5 c 128,-1,48
 -27 -225 -27 -225 -74 -225 c 0,49,50
 -157 -225 -157 -225 -186 -315 c 1,51,52
 -186 -347 -186 -347 -146 -370 c 0,53,54
 -111 -389 -111 -389 -78 -389 c 0,55,56
 27 -389 27 -389 27 -315 c 0,46,47
EndSplineSet
Validated: 37
EndChar

StartChar: f
Encoding: 95 3294 105
Width: 1460
GlyphClass: 2
Flags: W
LayerCount: 2
Fore
SplineSet
1378 582 m 0,0,1
 1378 336 1378 336 1290 173 c 0,2,3
 1189 -14 1189 -14 1004 -14 c 0,4,5
 804 -14 804 -14 735 233 c 1,6,7
 658 -16 658 -16 455 -16 c 0,8,9
 290 -16 290 -16 193 187 c 0,10,11
 109 365 109 365 109 612 c 0,12,13
 109 805 109 805 180 936 c 0,14,15
 257 1077 257 1077 385 1077 c 0,16,17
 477 1077 477 1077 528 1006 c 0,18,19
 573 942 573 942 573 848 c 0,20,21
 573 746 573 746 521 672 c 1,22,23
 463 592 463 592 373 592 c 0,24,25
 253 592 253 592 233 735 c 1,26,27
 164 643 164 643 164 504 c 0,28,29
 164 371 164 371 232 286 c 0,30,31
 309 188 309 188 455 188 c 0,32,33
 683 188 683 188 741 428 c 1,34,35
 778 188 778 188 1020 188 c 0,36,37
 1177 188 1177 188 1255 282 c 0,38,39
 1323 364 1323 364 1323 504 c 0,40,41
 1323 626 1323 626 1270 721 c 1,42,43
 1234 610 1234 610 1118 610 c 0,44,45
 1028 610 1028 610 968 695 c 0,46,47
 913 772 913 772 913 872 c 0,48,49
 913 959 913 959 957 1016 c 0,50,51
 1005 1079 1005 1079 1094 1079 c 0,52,53
 1221 1079 1221 1079 1302 926 c 0,54,55
 1378 782 1378 782 1378 582 c 0,0,1
1214 813 m 1,56,57
 1198 920 1198 920 1090 920 c 0,58,59
 1039 920 1039 920 1007 893 c 1,60,61
 979 868 979 868 979 834 c 0,62,63
 979 792 979 792 1010 763 c 0,64,65
 1045 729 1045 729 1108 729 c 0,66,67
 1207 729 1207 729 1214 813 c 1,56,57
516 825 m 0,68,69
 516 920 516 920 401 920 c 0,70,71
 312 920 312 920 281 809 c 1,72,73
 317 723 317 723 385 723 c 0,74,75
 449 723 449 723 485 756 c 0,76,77
 516 784 516 784 516 825 c 0,68,69
EndSplineSet
Validated: 1
EndChar

StartChar: g
Encoding: 96 3296 106
Width: 3217
GlyphClass: 2
Flags: W
LayerCount: 2
Fore
SplineSet
3095 483 m 0,0,1
 3095 218 3095 218 3005 99 c 0,2,3
 2917 -16 2917 -16 2726 -16 c 0,4,5
 2590 -16 2590 -16 2503 110 c 0,6,7
 2423 226 2423 226 2423 383 c 0,8,9
 2423 498 2423 498 2485 562 c 0,10,11
 2538 616 2538 616 2617 618 c 1,12,13
 2686 621 2686 621 2738 578 c 128,-1,14
 2790 535 2790 535 2789 465 c 0,15,16
 2789 410 2789 410 2755 379 c 1,17,18
 2726 351 2726 351 2684 351 c 0,19,20
 2595 351 2595 351 2595 434 c 0,21,22
 2595 484 2595 484 2644 518 c 1,23,24
 2626 532 2626 532 2597 532 c 0,25,26
 2551 532 2551 532 2518 500 c 0,27,28
 2478 462 2478 462 2478 395 c 0,29,30
 2478 311 2478 311 2551 246.5 c 128,-1,31
 2624 182 2624 182 2720 182 c 0,32,33
 2842 182 2842 182 2940 266 c 0,34,35
 3045 357 3045 357 3045 487 c 0,36,37
 3045 724 3045 724 2910 855 c 0,38,39
 2788 973 2788 973 2595 973 c 0,40,41
 2446 973 2446 973 2339 864 c 0,42,43
 2230 752 2230 752 2230 591 c 0,44,45
 2230 561 2230 561 2234 530 c 0,46,47
 2271 269 2271 269 2271 266 c 0,48,49
 2271 148 2271 148 2213 72 c 0,50,51
 2147 -14 2147 -14 2023 -14 c 0,52,53
 1897 -14 1897 -14 1800 79 c 0,54,55
 1717 158 1717 158 1683 270 c 1,56,57
 1655 120 1655 120 1555 45 c 0,58,59
 1473 -16 1473 -16 1366 -16 c 0,60,61
 1235 -16 1235 -16 1118 81 c 0,62,63
 988 190 988 190 930 379 c 1,64,65
 903 262 903 262 849 179 c 0,66,67
 720 -20 720 -20 479 -20 c 0,68,69
 344 -20 344 -20 260 76 c 1,70,71
 184 161 184 161 184 274 c 0,72,73
 184 358 184 358 229 412 c 0,74,75
 278 471 278 471 365 471 c 0,76,77
 440 471 440 471 486 424 c 0,78,79
 528 381 528 381 528 319 c 1,80,81
 529 258 529 258 495 216 c 0,82,83
 457 170 457 170 391 170 c 0,84,85
 315 170 315 170 270 242 c 1,86,87
 267 228 267 228 267 213 c 0,88,89
 267 143 267 143 327.5 89 c 128,-1,90
 388 35 388 35 463 35 c 0,91,92
 604 35 604 35 689 192 c 0,93,94
 762 327 762 327 762 502 c 0,95,96
 762 1030 762 1030 481 1030 c 0,97,98
 410 1030 410 1030 363 990 c 1,99,100
 328 962 328 962 310 918 c 1,101,102
 304 899 304 899 299 881 c 1,103,104
 331 901 331 901 389 901 c 0,105,106
 448 901 448 901 491 863 c 0,107,108
 541 818 541 818 541 741 c 0,109,110
 541 669 541 669 494.5 629.5 c 128,-1,111
 448 590 448 590 383 592 c 0,112,113
 304 595 304 595 248 651 c 0,114,115
 184 714 184 714 184 815 c 0,116,117
 184 928 184 928 282 1006 c 0,118,119
 376 1081 376 1081 508 1081 c 0,120,121
 683 1081 683 1081 798 962 c 0,122,123
 936 819 936 819 936 541 c 1,124,125
 1053 186 1053 186 1317 186 c 0,126,127
 1426 186 1426 186 1495.5 251.5 c 128,-1,128
 1565 317 1565 317 1565 420 c 0,129,130
 1565 535 1565 535 1480 655 c 0,131,132
 1384 790 1384 790 1200 899 c 1,133,-1
 983 899 l 1,134,-1
 983 1071 l 1,135,-1
 1415 1071 l 2,136,137
 1515 1071 1515 1071 1566 1126 c 0,138,139
 1610 1172 1610 1172 1610 1245 c 0,140,141
 1610 1317 1610 1317 1524 1393 c 1,142,143
 1571 1441 1571 1441 1571 1438 c 1,144,145
 1704 1310 1704 1310 1704 1192 c 0,146,147
 1704 1078 1704 1078 1647 994 c 0,148,149
 1584 900 1584 900 1483 899 c 2,150,-1
 1276 897 l 1,151,152
 1694 680 1694 680 1694 391 c 0,153,154
 1694 346 1694 346 1692 328 c 1,155,156
 1794 182 1794 182 1956 182 c 0,157,158
 2081 182 2081 182 2135 215 c 1,159,160
 2200 253 2200 253 2200 355 c 0,161,162
 2200 397 2200 397 2189 453 c 0,163,164
 2171 546 2171 546 2171 632 c 0,165,166
 2171 859 2171 859 2289 996 c 0,167,168
 2401 1126 2401 1126 2576 1126 c 0,169,170
 2798 1126 2798 1126 2943 955 c 0,171,172
 3095 775 3095 775 3095 483 c 0,0,1
453 760 m 0,173,174
 453 833 453 833 371 846 c 1,175,176
 336 848 336 848 295 836 c 1,177,178
 285 784 285 784 285 786 c 1,179,180
 285 664 285 664 369 664 c 0,181,182
 400 664 400 664 424 688 c 0,183,184
 453 716 453 716 453 760 c 0,173,174
459 317 m 0,185,186
 459 426 459 426 369 426 c 0,187,188
 329 426 329 426 300.5 383 c 128,-1,189
 272 340 272 340 279 295 c 1,190,191
 286 237 286 237 373 236 c 1,192,193
 459 234 459 234 459 317 c 0,185,186
EndSplineSet
Validated: 33
EndChar

StartChar: h
Encoding: 97 3302 107
Width: 1229
GlyphClass: 2
Flags: W
LayerCount: 2
Fore
SplineSet
1098 537 m 0,0,1
 1098 273 1098 273 943 121 c 0,2,3
 805 -14 805 -14 604 -14 c 0,4,5
 410 -14 410 -14 271 130 c 1,6,7
 121 287 121 287 121 539 c 0,8,9
 121 776 121 776 259.5 939 c 128,-1,10
 398 1102 398 1102 598 1102 c 0,11,12
 832 1102 832 1102 971 928 c 0,13,14
 1098 770 1098 770 1098 537 c 0,0,1
1044 530 m 0,15,16
 1044 670 1044 670 945 787 c 0,17,18
 821 934 821 934 604 934 c 0,19,20
 405 934 405 934 286 804 c 0,21,22
 182 689 182 689 182 530 c 0,23,24
 182 356 182 356 313 252 c 1,25,26
 432 156 432 156 604 156 c 0,27,28
 783 156 783 156 907 250 c 0,29,30
 1044 355 1044 355 1044 530 c 0,15,16
EndSplineSet
Validated: 1
EndChar

StartChar: i
Encoding: 98 3303 108
Width: 1229
GlyphClass: 2
Flags: W
LayerCount: 2
Fore
SplineSet
1159 514 m 0,0,1
 1159 327 1159 327 1046 150 c 0,2,3
 947 -4 947 -4 889 -4 c 0,4,5
 788 -4 788 -4 788 70 c 1,6,7
 788 65 788 65 871 138 c 1,8,9
 965 223 965 223 1024 307 c 0,10,11
 1106 426 1106 426 1106 532 c 0,12,13
 1106 703 1106 703 955 804 c 0,14,15
 818 895 818 895 614 895 c 0,16,17
 413 895 413 895 275 804 c 0,18,19
 123 703 123 703 123 532 c 0,20,21
 123 426 123 426 206 307 c 0,22,23
 264 223 264 223 360 138 c 0,24,25
 442 65 442 65 442 70 c 1,26,27
 442 -4 442 -4 342 -4 c 0,28,29
 284 -4 284 -4 185 150 c 0,30,31
 72 327 72 327 72 514 c 0,32,33
 72 778 72 778 241 933 c 0,34,35
 393 1073 393 1073 614 1073 c 0,36,37
 839 1073 839 1073 991 933 c 0,38,39
 1159 779 1159 779 1159 514 c 0,0,1
EndSplineSet
Validated: 33
EndChar

StartChar: j
Encoding: 99 3304 109
Width: 1229
GlyphClass: 2
Flags: W
LayerCount: 2
Fore
SplineSet
1141 600 m 0,0,1
 1141 358 1141 358 1044 191 c 0,2,3
 933 0 933 0 735 0 c 2,4,-1
 84 0 l 1,5,-1
 84 188 l 1,6,-1
 774 188 l 2,7,8
 912 188 912 188 1000 315 c 1,9,10
 1079 431 1079 431 1079 588 c 0,11,12
 1079 730 1079 730 998 821 c 0,13,14
 906 924 906 924 739 924 c 0,15,16
 633 924 633 924 571 869 c 0,17,18
 516 821 516 821 516 754 c 0,19,20
 516 704 516 704 550 670.5 c 128,-1,21
 584 637 584 637 643 637 c 0,22,23
 741 637 741 637 741 709 c 0,24,25
 741 735 741 735 715 797 c 1,26,-1
 754 797 l 2,27,28
 792 797 792 797 816 759 c 0,29,30
 838 725 838 725 838 676 c 0,31,32
 838 613 838 613 795 570 c 0,33,34
 744 520 744 520 649 520 c 0,35,36
 560 520 560 520 507 593 c 0,37,38
 458 660 458 660 457 760 c 0,39,40
 455 890 455 890 535 991 c 0,41,42
 624 1102 624 1102 764 1102 c 0,43,44
 945 1102 945 1102 1048 948 c 0,45,46
 1141 809 1141 809 1141 600 c 0,0,1
EndSplineSet
Validated: 33
EndChar

StartChar: k
Encoding: 100 3305 110
Width: 1229
GlyphClass: 2
Flags: W
LayerCount: 2
Fore
SplineSet
1110 164 m 0,0,1
 1110 89 1110 89 1057.5 37.5 c 128,-1,2
 1005 -14 1005 -14 934 -14 c 0,3,4
 810 -14 810 -14 739 143 c 1,5,6
 708 214 708 214 655 279 c 1,7,8
 546 37 546 37 352 37 c 0,9,10
 232 37 232 37 167 102 c 0,11,12
 109 159 109 159 109 248 c 0,13,14
 109 345 109 345 180 416 c 0,15,16
 258 494 258 494 379 494 c 0,17,18
 510 494 510 494 637 391 c 1,19,20
 672 509 672 509 672 573 c 0,21,22
 672 772 672 772 567 862 c 0,23,24
 489 930 489 930 365 930 c 0,25,26
 286 930 286 930 236 899 c 1,27,28
 180 866 180 866 180 809 c 0,29,30
 180 764 180 764 213 735 c 0,31,32
 242 710 242 710 281 709 c 0,33,34
 346 707 346 707 346 764 c 0,35,36
 346 796 346 796 340 827 c 1,37,38
 426 818 426 818 426 729 c 0,39,40
 426 625 426 625 307 625 c 0,41,42
 235 625 235 625 181 676 c 0,43,44
 119 734 119 734 119 831 c 0,45,46
 119 938 119 938 194 1021 c 128,-1,47
 269 1104 269 1104 369 1104 c 0,48,49
 505 1104 505 1104 610 978 c 0,50,51
 729 834 729 834 729 600 c 0,52,53
 729 473 729 473 688 340 c 1,54,55
 713 319 713 319 784 229 c 1,56,57
 826 167 826 167 876 148 c 0,58,59
 905 137 905 137 967 137 c 0,60,61
 1049 137 1049 137 1081 219 c 0,62,63
 1088 237 1088 237 1090 274 c 1,64,65
 1110 217 1110 217 1110 164 c 0,0,1
606 324 m 1,66,67
 518 426 518 426 385 426 c 0,68,69
 298 426 298 426 245 384 c 0,70,71
 197 346 197 346 197 293 c 0,72,73
 197 184 197 184 358 184 c 0,74,75
 526 184 526 184 606 324 c 1,66,67
EndSplineSet
Validated: 33
EndChar

StartChar: l
Encoding: 101 3306 111
Width: 1229
GlyphClass: 2
Flags: W
LayerCount: 2
Fore
SplineSet
1145 772 m 0,0,1
 1145 556 1145 556 948 467 c 0,2,3
 866 430 866 430 752 422 c 1,4,5
 872 338 872 338 872 211 c 0,6,7
 872 110 872 110 810 47 c 0,8,9
 753 -10 753 -10 672 -10 c 0,10,11
 585 -10 585 -10 525 41 c 1,12,13
 459 99 459 99 459 199 c 0,14,15
 459 318 459 318 532 383 c 1,16,17
 494 385 494 385 475 385 c 0,18,19
 310 385 310 385 211 461 c 0,20,21
 102 544 102 544 102 700 c 0,22,23
 102 895 102 895 182 1004 c 0,24,25
 256 1106 256 1106 379 1106 c 0,26,27
 474 1106 474 1106 544 1031 c 128,-1,28
 614 956 614 956 614 844 c 0,29,30
 614 752 614 752 560 699 c 0,31,32
 512 652 512 652 442 653 c 0,33,34
 383 654 383 654 343 689 c 0,35,36
 299 728 299 728 299 795 c 0,37,38
 299 855 299 855 354 883 c 1,39,40
 354 822 354 822 391 789 c 1,41,42
 423 759 423 759 469 760 c 0,43,44
 565 762 565 762 565 848 c 0,45,46
 565 967 565 967 428 967 c 0,47,48
 329 967 329 967 247 900 c 0,49,50
 156 827 156 827 156 721 c 0,51,52
 156 595 156 595 237 545 c 0,53,54
 298 508 298 508 422 508 c 0,55,56
 561 508 561 508 647 465 c 1,57,58
 759 467 759 467 842 498 c 0,59,60
 1036 570 1036 570 1036 760 c 0,61,62
 1036 862 1036 862 973 901 c 1,63,64
 913 920 913 920 854 940 c 0,65,66
 791 961 791 961 791 1022 c 0,67,68
 791 1108 791 1108 922 1108 c 0,69,70
 1032 1108 1032 1108 1094 991 c 0,71,72
 1145 896 1145 896 1145 772 c 0,0,1
813 231 m 0,73,74
 813 359 813 359 662 401 c 1,75,76
 543 343 543 343 543 221 c 0,77,78
 543 167 543 167 585 132 c 0,79,80
 623 100 623 100 676 100 c 0,81,82
 730 100 730 100 769 133 c 0,83,84
 813 170 813 170 813 231 c 0,73,74
EndSplineSet
Validated: 33
EndChar

StartChar: m
Encoding: 102 3307 112
Width: 1229
GlyphClass: 2
Flags: W
LayerCount: 2
Fore
SplineSet
1145 823 m 0,0,1
 1145 732 1145 732 1083 658 c 0,2,3
 1040 606 1040 606 970 567 c 0,4,5
 915 537 915 537 911 539 c 1,6,7
 994 480 994 480 1062 375 c 0,8,9
 1139 257 1139 257 1139 160 c 0,10,11
 1139 78 1139 78 1100.5 31 c 128,-1,12
 1062 -16 1062 -16 999 -16 c 0,13,14
 951 -16 951 -16 909 19 c 0,15,16
 871 51 871 51 881 57 c 1,17,18
 985 106 985 106 985 221 c 0,19,20
 985 327 985 327 929 433 c 0,21,22
 879 527 879 527 870 518 c 1,23,24
 804 502 804 502 715 495 c 0,25,26
 643 490 643 490 643 489 c 0,27,28
 643 247 643 247 528 110 c 0,29,30
 430 -7 430 -7 293 -8 c 0,31,32
 205 -9 205 -9 146 43 c 0,33,34
 84 99 84 99 84 193 c 0,35,36
 84 330 84 330 225 432 c 0,37,38
 362 532 362 532 539 532 c 2,39,-1
 592 532 l 1,40,41
 590 520 590 520 590 625 c 0,42,43
 590 795 590 795 502 878 c 0,44,45
 431 944 431 944 319 944 c 0,46,47
 247 944 247 944 191 901.5 c 128,-1,48
 135 859 135 859 135 807 c 0,49,50
 135 760 135 760 171.5 724 c 128,-1,51
 208 688 208 688 262 688 c 0,52,53
 370 688 370 688 370 811 c 0,54,55
 370 825 370 825 369 836 c 1,56,57
 375 832 375 832 398 806 c 0,58,59
 430 769 430 769 430 741 c 0,60,61
 430 680 430 680 387 636 c 128,-1,62
 344 592 344 592 281 592 c 0,63,64
 204 592 204 592 147 651 c 0,65,66
 84 716 84 716 84 819 c 0,67,68
 84 947 84 947 156 1029 c 1,69,70
 225 1106 225 1106 324 1106 c 0,71,72
 450 1106 450 1106 542 984 c 0,73,74
 647 844 647 844 647 606 c 0,75,76
 647 537 647 537 647 537 c 2,77,78
 647 532 647 532 732 542 c 128,-1,79
 817 552 817 552 836 561 c 1,80,81
 729 687 729 687 729 860 c 0,82,83
 729 973 729 973 791 1042 c 0,84,85
 849 1106 849 1106 932 1106 c 256,86,87
 1015 1106 1015 1106 1078 1029 c 0,88,89
 1145 947 1145 947 1145 823 c 0,0,1
1096 791 m 0,90,91
 1096 864 1096 864 1043 908 c 0,92,93
 996 946 996 946 932 946 c 0,94,95
 871 946 871 946 830 906 c 0,96,97
 784 862 784 862 784 786 c 0,98,99
 784 674 784 674 883 575 c 1,100,101
 890 572 890 572 940 593 c 0,102,103
 1002 619 1002 619 1041 660 c 0,104,105
 1096 716 1096 716 1096 791 c 0,90,91
588 489 m 1,106,107
 581 490 581 490 569 489 c 0,108,109
 545 487 545 487 537 487 c 0,110,111
 399 487 399 487 286 416 c 1,112,113
 164 338 164 338 164 223 c 0,114,115
 164 113 164 113 293 113 c 0,116,117
 349 113 349 113 450 200 c 0,118,119
 588 318 588 318 588 489 c 1,106,107
EndSplineSet
Validated: 37
EndChar

StartChar: n
Encoding: 103 3308 113
Width: 1229
GlyphClass: 2
Flags: W
LayerCount: 2
Fore
SplineSet
1096 0 m 1,0,-1
 453 0 l 2,1,2
 282 0 282 0 187 116 c 0,3,4
 102 220 102 220 102 379 c 0,5,6
 102 571 102 571 242 711 c 1,7,8
 240 747 240 747 272 860 c 1,9,10
 285 888 285 888 285 909 c 0,11,12
 285 953 285 953 226 964 c 0,13,14
 208 967 208 967 123 967 c 0,15,16
 121 967 121 967 121 997 c 0,17,18
 121 1090 121 1090 236 1090 c 0,19,20
 291 1090 291 1090 329 1053 c 1,21,22
 373 1012 373 1012 373 942 c 0,23,24
 373 901 373 901 334 841 c 0,25,26
 298 785 298 785 303 745 c 1,27,28
 303 747 303 747 346 764 c 0,29,30
 400 786 400 786 446 786 c 0,31,32
 554 786 554 786 614 731 c 0,33,34
 668 681 668 681 668 606 c 0,35,36
 668 535 668 535 621 483 c 0,37,38
 570 426 570 426 487 426 c 0,39,40
 297 426 297 426 256 637 c 1,41,42
 158 562 158 562 158 416 c 0,43,44
 158 319 158 319 217 258 c 0,45,46
 286 188 286 188 414 188 c 2,47,-1
 1096 188 l 1,48,-1
 1096 0 l 1,0,-1
625 600 m 0,49,50
 625 644 625 644 580 675 c 0,51,52
 529 711 529 711 442 711 c 0,53,54
 389 711 389 711 348 693 c 0,55,56
 320 680 320 680 315 672 c 1,57,58
 320 506 320 506 489 506 c 0,59,60
 554 506 554 506 591 535 c 0,61,62
 625 561 625 561 625 600 c 0,49,50
EndSplineSet
Validated: 33
EndChar

StartChar: o
Encoding: 104 3309 114
Width: 1229
GlyphClass: 2
Flags: W
LayerCount: 2
Fore
SplineSet
1118 0 m 1,0,-1
 293 0 l 2,1,2
 82 0 82 0 82 201 c 0,3,4
 82 348 82 348 226 438 c 1,5,6
 359 502 359 502 493 567 c 1,7,8
 637 647 637 647 637 770 c 0,9,10
 637 828 637 828 592 864 c 0,11,12
 551 897 551 897 496 897 c 0,13,14
 442 897 442 897 408 867 c 0,15,16
 369 834 369 834 369 774 c 0,17,18
 369 727 369 727 434 680 c 1,19,-1
 410 674 l 1,20,21
 281 712 281 712 281 864 c 0,22,23
 281 968 281 968 349 1029 c 0,24,25
 411 1084 411 1084 500 1083 c 1,26,27
 594 1083 594 1083 660 1020 c 1,28,29
 735 950 735 950 735 834 c 0,30,31
 735 663 735 663 595 561 c 0,32,33
 579 550 579 550 335 428 c 0,34,35
 195 359 195 359 195 266 c 0,36,37
 195 188 195 188 295 188 c 2,38,-1
 1118 188 l 1,39,-1
 1118 0 l 1,0,-1
EndSplineSet
Validated: 33
EndChar

StartChar: p
Encoding: 105 3310 115
Width: 1229
GlyphClass: 2
Flags: W
LayerCount: 2
Fore
SplineSet
1114 899 m 1,0,-1
 930 899 l 2,1,2
 813 899 813 899 813 819 c 0,3,4
 813 773 813 773 889 696 c 0,5,6
 1012 573 1012 573 1030 550 c 0,7,8
 1106 453 1106 453 1106 356 c 0,9,10
 1106 187 1106 187 967 82 c 1,11,12
 839 -16 839 -16 655 -16 c 0,13,14
 434 -16 434 -16 282 134 c 0,15,16
 106 307 106 307 106 616 c 0,17,18
 106 842 106 842 195 970 c 1,19,20
 272 1083 272 1083 383 1083 c 0,21,22
 473 1083 473 1083 533 1007 c 0,23,24
 598 924 598 924 598 784 c 0,25,26
 598 678 598 678 541 612 c 0,27,28
 489 551 489 551 418 551 c 0,29,30
 351 551 351 551 307 600 c 0,31,32
 258 655 258 655 256 754 c 0,33,34
 255 818 255 818 283 907 c 1,35,36
 158 816 158 816 158 623 c 0,37,38
 158 399 158 399 303 270 c 1,39,40
 431 158 431 158 614 158 c 0,41,42
 768 158 768 158 874 227 c 1,43,44
 987 302 987 302 987 426 c 0,45,46
 987 513 987 513 922 585 c 1,47,48
 861 648 861 648 801 710 c 1,49,50
 735 791 735 791 735 899 c 0,51,52
 735 980 735 980 787 1027 c 0,53,54
 836 1071 836 1071 911 1071 c 2,55,-1
 1114 1071 l 1,56,-1
 1114 899 l 1,0,-1
551 788 m 0,57,58
 551 936 551 936 342 936 c 1,59,60
 305 858 305 858 309 809 c 0,61,62
 321 678 321 678 428 678 c 0,63,64
 478 678 478 678 514.5 709 c 128,-1,65
 551 740 551 740 551 788 c 0,57,58
EndSplineSet
Validated: 33
EndChar

StartChar: q
Encoding: 106 3311 116
Width: 1229
GlyphClass: 2
Flags: W
LayerCount: 2
Fore
SplineSet
1106 899 m 1,0,-1
 381 899 l 2,1,2
 306 899 306 899 239 847 c 0,3,4
 164 789 164 789 164 709 c 0,5,6
 164 652 164 652 193 600 c 1,7,8
 303 729 303 729 459 729 c 0,9,10
 568 729 568 729 631 672 c 0,11,12
 686 622 686 622 686 549 c 256,13,14
 686 476 686 476 628 424 c 1,15,16
 565 369 565 369 465 369 c 0,17,18
 315 369 315 369 188 494 c 1,19,20
 168 437 168 437 168 391 c 0,21,22
 168 275 168 275 246 210 c 0,23,24
 317 150 317 150 432 150 c 0,25,26
 535 150 535 150 578 176 c 1,27,28
 604 145 604 145 604 109 c 0,29,30
 604 60 604 60 548.5 22 c 128,-1,31
 493 -16 493 -16 420 -16 c 0,32,33
 300 -16 300 -16 214 60 c 1,34,35
 113 151 113 151 113 315 c 0,36,37
 113 475 113 475 162 537 c 1,38,39
 98 633 98 633 98 739 c 0,40,41
 98 880 98 880 202 974 c 1,42,43
 312 1071 312 1071 489 1071 c 2,44,-1
 1106 1071 l 1,45,-1
 1106 899 l 1,0,-1
616 575 m 0,46,47
 616 616 616 616 580 644 c 0,48,49
 539 676 539 676 467 676 c 0,50,51
 292 676 292 676 217 543 c 1,52,53
 282 477 282 477 438 477 c 0,54,55
 521 477 521 477 571 508 c 0,56,57
 616 536 616 536 616 575 c 0,46,47
EndSplineSet
Validated: 1
EndChar

StartChar: s
Encoding: 120 -1 118
Width: 901
GlyphClass: 2
Flags: W
LayerCount: 2
Fore
SplineSet
590 487 m 0,0,1
 590 275 590 275 503 139 c 0,2,3
 404 -16 404 -16 221 -16 c 0,4,5
 27 -16 27 -16 -69 188 c 0,6,7
 -108 273 -108 273 -125 393 c 1,8,9
 -115 366 -115 366 -104 339 c 1,10,11
 -71 277 -71 277 -4 240 c 1,12,13
 89 186 89 186 238 186 c 0,14,15
 357 186 357 186 442 253 c 0,16,17
 541 331 541 331 541 465 c 0,18,19
 541 675 541 675 350 800 c 0,20,21
 222 884 222 884 90 899 c 1,22,-1
 90 1071 l 1,23,-1
 385 1071 l 1,24,-1
 385 899 l 1,25,26
 590 725 590 725 590 487 c 0,0,1
EndSplineSet
Validated: 1
EndChar

StartChar: t
Encoding: 121 -1 119
Width: 324
GlyphClass: 2
Flags: W
LayerCount: 2
Fore
SplineSet
201 346 m 0,0,1
 201 54 201 54 104 -135 c 1,2,3
 -10 -360 -10 -360 -231 -360 c 0,4,5
 -375 -360 -375 -360 -499 -236 c 0,6,7
 -614 -121 -614 -121 -668 49 c 1,8,9
 -483 -197 -483 -197 -283 -197 c 0,10,11
 -115 -197 -115 -197 0 -56 c 128,-1,12
 115 85 115 85 115 295 c 0,13,14
 115 559 115 559 -74 815 c 0,15,16
 -89 836 -89 836 -89 863 c 0,17,18
 -89 942 -89 942 -12 942 c 0,19,20
 76 942 76 942 140 759 c 0,21,22
 201 582 201 582 201 346 c 0,0,1
EndSplineSet
Validated: 1
EndChar

StartChar: v
Encoding: 82 3265 121
Width: 750
GlyphClass: 4
Flags: W
LayerCount: 2
Fore
SplineSet
570 487 m 0,0,1
 570 275 570 275 483 139 c 0,2,3
 384 -16 384 -16 201 -16 c 0,4,5
 7 -16 7 -16 -89 188 c 0,6,7
 -128 273 -128 273 -145 393 c 1,8,9
 -135 366 -135 366 -124 339 c 1,10,11
 -91 277 -91 277 -24 240 c 1,12,13
 69 186 69 186 218 186 c 0,14,15
 337 186 337 186 422 253 c 0,16,17
 521 331 521 331 521 465 c 0,18,19
 521 779 521 779 78 901 c 0,20,21
 -11 926 -11 926 -11 998 c 0,22,23
 -11 1035 -11 1035 15.5 1062.5 c 128,-1,24
 42 1090 42 1090 82 1090 c 0,25,26
 242 1090 242 1090 400 913 c 0,27,28
 570 722 570 722 570 487 c 0,0,1
EndSplineSet
Validated: 1
Substitution2: "Single Substitution lookup 19 subtable" Y
EndChar

StartChar: w
Encoding: 123 -1 122
Width: 1065
GlyphClass: 4
Flags: W
LayerCount: 2
Fore
SplineSet
942 440 m 0,0,1
 942 223 942 223 841 97 c 0,2,3
 752 -14 752 -14 625 -14 c 0,4,5
 468 -14 468 -14 390 125 c 1,6,7
 330 235 330 235 330 397 c 0,8,9
 330 500 330 500 401 566 c 1,10,11
 466 625 466 625 551 625 c 0,12,13
 617 625 617 625 666 585 c 128,-1,14
 715 545 715 545 715 487 c 0,15,16
 715 404 715 404 683 375 c 0,17,18
 660 354 660 354 606 354 c 0,19,20
 567 354 567 354 543 382 c 0,21,22
 522 406 522 406 522 440 c 0,23,24
 522 508 522 508 590 508 c 2,25,-1
 625 508 l 1,26,27
 626 523 626 523 593.5 536.5 c 128,-1,28
 561 550 561 550 518 551 c 0,29,30
 463 552 463 552 424 518 c 0,31,32
 379 478 379 478 379 410 c 0,33,34
 379 325 379 325 435 259 c 0,35,36
 499 184 499 184 600 184 c 0,37,38
 885 184 885 184 885 453 c 0,39,40
 885 671 885 671 753 826 c 0,41,42
 628 973 628 973 469 973 c 0,43,44
 331 973 331 973 238 869 c 0,45,46
 135 754 135 754 135 555 c 0,47,48
 135 470 135 470 160.5 320 c 128,-1,49
 186 170 186 170 186 70 c 0,50,51
 186 -120 186 -120 67 -249 c 0,52,53
 -45 -371 -45 -371 -195 -371 c 0,54,55
 -338 -371 -338 -371 -464 -264 c 0,56,57
 -604 -146 -604 -146 -680 70 c 1,58,59
 -474 -205 -474 -205 -268 -205 c 0,60,61
 -140 -205 -140 -205 -17 -91 c 0,62,63
 115 31 115 31 115 180 c 0,64,65
 115 234 115 234 93.5 350 c 128,-1,66
 72 466 72 466 72 586 c 0,67,68
 72 854 72 854 175 997 c 0,69,70
 268 1126 268 1126 420 1126 c 0,71,72
 616 1126 616 1126 772 941 c 0,73,74
 942 739 942 739 942 440 c 0,0,1
EndSplineSet
Validated: 33
EndChar

StartChar: x
Encoding: 124 -1 123
Width: 1622
GlyphClass: 2
Flags: W
LayerCount: 2
Fore
SplineSet
1499 455 m 0,0,1
 1499 258 1499 258 1410 127 c 0,2,3
 1312 -16 1312 -16 1145 -16 c 0,4,5
 848 -16 848 -16 848 332 c 0,6,7
 848 457 848 457 918 527 c 0,8,9
 982 592 982 592 1085 592 c 0,10,11
 1162 592 1162 592 1208 537 c 0,12,13
 1249 487 1249 487 1249 420 c 0,14,15
 1249 369 1249 369 1219 336 c 1,16,17
 1187 299 1187 299 1133 299 c 0,18,19
 1036 299 1036 299 1036 389 c 0,20,21
 1036 420 1036 420 1058 442.5 c 128,-1,22
 1080 465 1080 465 1114 465 c 0,23,24
 1139 465 1139 465 1162 455 c 0,25,26
 1178 449 1178 449 1178 451 c 0,27,28
 1186 530 1186 530 1081 530 c 0,29,30
 1015 530 1015 530 962 481 c 0,31,32
 905 429 905 429 905 352 c 0,33,34
 905 267 905 267 950 210 c 0,35,36
 1012 131 1012 131 1147 131 c 0,37,38
 1291 131 1291 131 1374 229 c 0,39,40
 1450 318 1450 318 1450 453 c 0,41,42
 1450 618 1450 618 1321 756 c 0,43,44
 1187 899 1187 899 1010 899 c 2,45,-1
 385 899 l 1,46,47
 590 725 590 725 590 487 c 0,48,49
 590 275 590 275 503 139 c 0,50,51
 404 -16 404 -16 221 -16 c 0,52,53
 27 -16 27 -16 -69 188 c 0,54,55
 -108 273 -108 273 -125 393 c 1,56,57
 -115 366 -115 366 -104 339 c 1,58,59
 -71 277 -71 277 -4 240 c 1,60,61
 89 186 89 186 238 186 c 0,62,63
 357 186 357 186 442 253 c 0,64,65
 541 331 541 331 541 465 c 0,66,67
 541 675 541 675 350 800 c 0,68,69
 222 884 222 884 90 899 c 1,70,-1
 90 1071 l 1,71,-1
 932 1071 l 2,72,73
 1166 1071 1166 1071 1337 873 c 0,74,75
 1499 686 1499 686 1499 455 c 0,0,1
EndSplineSet
Validated: 33
EndChar

StartChar: z
Encoding: 126 -1 125
Width: 274
GlyphClass: 2
Flags: W
LayerCount: 2
Fore
SplineSet
233 -223 m 0,0,1
 233 -430 233 -430 160 -554 c 0,2,3
 73 -700 73 -700 -102 -700 c 0,4,5
 -244 -700 -244 -700 -328 -598 c 0,6,7
 -401 -508 -401 -508 -401 -383 c 0,8,9
 -401 -287 -401 -287 -351 -221 c 0,10,11
 -296 -150 -296 -150 -207 -150 c 0,12,13
 -144 -150 -144 -150 -105 -191 c 1,14,15
 -70 -230 -70 -230 -70 -283 c 0,16,17
 -70 -346 -70 -346 -103 -391 c 0,18,19
 -140 -442 -140 -442 -205 -442 c 0,20,21
 -285 -442 -285 -442 -344 -360 c 1,22,23
 -344 -467 -344 -467 -276 -533 c 0,24,25
 -215 -592 -215 -592 -133 -592 c 0,26,27
 13 -592 13 -592 90 -472 c 0,28,29
 160 -364 160 -364 160 -186 c 0,30,31
 160 120 160 120 -14 336 c 1,32,33
 8 359 8 359 31 359 c 0,34,35
 38 359 38 359 45 356 c 0,36,37
 116 320 116 320 174 146 c 0,38,39
 233 -33 233 -33 233 -223 c 0,0,1
-115 -305 m 0,40,41
 -115 -270 -115 -270 -141 -243.5 c 128,-1,42
 -167 -217 -167 -217 -209 -217 c 0,43,44
 -258 -217 -258 -217 -294 -250 c 1,45,46
 -328 -279 -328 -279 -328 -311 c 0,47,48
 -328 -324 -328 -324 -302 -353 c 0,49,50
 -267 -391 -267 -391 -219 -391 c 0,51,52
 -115 -391 -115 -391 -115 -305 c 0,40,41
EndSplineSet
Validated: 1
EndChar

StartChar: braceleft
Encoding: 127 -1 126
Width: 279
GlyphClass: 2
Flags: W
LayerCount: 2
Fore
SplineSet
274 -422 m 1,0,1
 275 -524 275 -524 222 -600 c 0,2,3
 166 -680 166 -680 84 -680 c 0,4,5
 -78 -680 -78 -680 -78 -489 c 0,6,7
 -78 -396 -78 -396 -8 -293 c 1,8,9
 -203 -292 -203 -292 -395 -293 c 1,10,11
 -235 -389 -235 -389 -231 -678 c 0,12,13
 -230 -803 -230 -803 -293 -882 c 1,14,15
 -364 -969 -364 -969 -494 -969 c 0,16,17
 -630 -969 -630 -969 -713 -866 c 0,18,19
 -787 -774 -787 -774 -788 -647 c 1,20,21
 -790 -545 -790 -545 -746 -479 c 0,22,23
 -698 -406 -698 -406 -610 -406 c 0,24,25
 -547 -406 -547 -406 -509 -452 c 0,26,27
 -475 -493 -475 -493 -475 -553 c 0,28,29
 -475 -614 -475 -614 -510 -656 c 0,30,31
 -548 -702 -548 -702 -614 -702 c 0,32,33
 -696 -702 -696 -702 -741 -612 c 1,34,35
 -753 -850 -753 -850 -508 -850 c 0,36,37
 -406 -850 -406 -850 -345 -789 c 0,38,39
 -288 -731 -288 -731 -287 -639 c 0,40,41
 -285 -391 -285 -391 -496 -274 c 1,42,-1
 -496 -152 l 1,43,44
 -494 -150 -494 -150 -14 -152 c 0,45,46
 130 -152 130 -152 207 -238 c 1,47,48
 274 -311 274 -311 274 -422 c 1,0,1
127 -291 m 2,49,-1
 35 -291 l 1,50,51
 -13 -342 -13 -342 -13 -419 c 0,52,53
 -13 -551 -13 -551 109 -551 c 0,54,55
 167 -551 167 -551 199 -510 c 0,56,57
 228 -473 228 -473 228 -420 c 0,58,59
 228 -368 228 -368 202 -331 c 0,60,61
 173 -291 173 -291 127 -291 c 2,49,-1
-612 -475 m 0,62,63
 -694 -475 -694 -475 -723 -561 c 1,64,65
 -687 -639 -687 -639 -623 -639 c 0,66,67
 -574 -639 -574 -639 -545 -612 c 0,68,69
 -519 -588 -519 -588 -519 -553 c 0,70,71
 -519 -475 -519 -475 -612 -475 c 0,62,63
EndSplineSet
Validated: 33
EndChar

StartChar: bar
Encoding: 128 -1 127
Width: 260
GlyphClass: 2
Flags: W
LayerCount: 2
Fore
SplineSet
-66 1202 m 0,0,1
 -66 1055 -66 1055 -165 970 c 0,2,3
 -248 899 -248 899 -352 899 c 2,4,-1
 -496 899 l 1,5,-1
 -496 1071 l 1,6,-1
 -352 1071 l 2,7,8
 -264 1071 -264 1071 -208 1117.5 c 128,-1,9
 -152 1164 -152 1164 -152 1239 c 0,10,11
 -152 1320 -152 1320 -202 1369 c 0,12,13
 -248 1413 -248 1413 -311 1413 c 0,14,15
 -373 1413 -373 1413 -414 1384 c 0,16,17
 -459 1353 -459 1353 -459 1298 c 0,18,19
 -459 1230 -459 1230 -401 1233 c 1,20,21
 -401 1319 -401 1319 -344 1319 c 0,22,23
 -283 1319 -283 1319 -283 1249 c 0,24,25
 -283 1176 -283 1176 -389 1176 c 0,26,27
 -496 1176 -496 1176 -496 1294 c 0,28,29
 -496 1377 -496 1377 -434 1424 c 0,30,31
 -378 1466 -378 1466 -295 1466 c 0,32,33
 -203 1466 -203 1466 -138 1400 c 0,34,35
 -66 1327 -66 1327 -66 1202 c 0,0,1
162 623 m 0,36,37
 162 471 162 471 20 469 c 0,38,39
 -46 468 -46 468 -113 516 c 1,40,-1
 -164 629 l 1,41,42
 -115 601 -115 601 -35 598 c 0,43,44
 66 595 66 595 66 649 c 0,45,46
 66 699 66 699 -14 797 c 0,47,48
 -18 802 -18 802 -18 808 c 0,49,50
 -18 821 -18 821 -3 832.5 c 128,-1,51
 12 844 12 844 29 844 c 0,52,53
 41 844 41 844 49 838 c 0,54,55
 162 753 162 753 162 623 c 0,36,37
EndSplineSet
Validated: 33
EndChar

StartChar: braceright
Encoding: 129 -1 128
Width: 377
GlyphClass: 2
Flags: W
LayerCount: 2
Fore
SplineSet
-66 1202 m 0,0,1
 -66 1055 -66 1055 -165 970 c 0,2,3
 -248 899 -248 899 -352 899 c 2,4,-1
 -496 899 l 1,5,-1
 -496 1071 l 1,6,-1
 -352 1071 l 2,7,8
 -264 1071 -264 1071 -208 1117.5 c 128,-1,9
 -152 1164 -152 1164 -152 1239 c 0,10,11
 -152 1320 -152 1320 -202 1369 c 0,12,13
 -248 1413 -248 1413 -311 1413 c 0,14,15
 -373 1413 -373 1413 -414 1384 c 0,16,17
 -459 1353 -459 1353 -459 1298 c 0,18,19
 -459 1230 -459 1230 -401 1233 c 1,20,21
 -401 1319 -401 1319 -344 1319 c 0,22,23
 -283 1319 -283 1319 -283 1249 c 0,24,25
 -283 1176 -283 1176 -389 1176 c 0,26,27
 -496 1176 -496 1176 -496 1294 c 0,28,29
 -496 1377 -496 1377 -434 1424 c 0,30,31
 -378 1466 -378 1466 -295 1466 c 0,32,33
 -203 1466 -203 1466 -138 1400 c 0,34,35
 -66 1327 -66 1327 -66 1202 c 0,0,1
162 623 m 0,36,37
 162 471 162 471 20 469 c 0,38,39
 -46 468 -46 468 -113 516 c 1,40,-1
 -164 629 l 1,41,42
 -115 601 -115 601 -35 598 c 0,43,44
 66 595 66 595 66 649 c 0,45,46
 66 699 66 699 -14 797 c 0,47,48
 -18 802 -18 802 -18 808 c 0,49,50
 -18 821 -18 821 -3 832.5 c 128,-1,51
 12 844 12 844 29 844 c 0,52,53
 41 844 41 844 49 838 c 0,54,55
 162 753 162 753 162 623 c 0,36,37
303 -401 m 0,56,57
 303 -529 303 -529 241 -624 c 0,58,59
 169 -733 169 -733 49 -733 c 0,60,61
 -87 -733 -87 -733 -169 -622 c 0,62,63
 -242 -523 -242 -523 -242 -389 c 0,64,65
 -242 -288 -242 -288 -198 -222 c 0,66,67
 -150 -150 -150 -150 -70 -150 c 0,68,69
 -2 -150 -2 -150 36 -199 c 0,70,71
 70 -242 70 -242 70 -305 c 0,72,73
 70 -364 70 -364 32 -408 c 0,74,75
 -9 -455 -9 -455 -74 -455 c 0,76,77
 -147 -455 -147 -455 -207 -373 c 1,78,79
 -207 -479 -207 -479 -142 -555 c 128,-1,80
 -77 -631 -77 -631 4 -631 c 0,81,82
 90 -631 90 -631 160.5 -552.5 c 128,-1,83
 231 -474 231 -474 231 -367 c 0,84,85
 231 -164 231 -164 -2 4 c 1,86,87
 73 103 73 103 74 186 c 0,88,89
 75 271 75 271 14 354 c 1,90,91
 80 350 80 350 116 301 c 1,92,93
 150 257 150 257 150 193 c 0,94,95
 150 62 150 62 78 10 c 1,96,97
 81 14 81 14 135 -30 c 0,98,99
 203 -86 203 -86 244 -161 c 0,100,101
 303 -268 303 -268 303 -401 c 0,56,57
27 -315 m 0,102,103
 27 -280 27 -280 0 -252.5 c 128,-1,104
 -27 -225 -27 -225 -74 -225 c 0,105,106
 -157 -225 -157 -225 -186 -315 c 1,107,108
 -186 -347 -186 -347 -146 -370 c 0,109,110
 -111 -389 -111 -389 -78 -389 c 0,111,112
 27 -389 27 -389 27 -315 c 0,102,103
EndSplineSet
Validated: 37
EndChar

StartChar: asciitilde
Encoding: 130 -1 129
Width: 1425
GlyphClass: 2
Flags: W
LayerCount: 2
Fore
SplineSet
1303 483 m 0,0,1
 1303 217 1303 217 1214.5 100.5 c 128,-1,2
 1126 -16 1126 -16 934 -16 c 0,3,4
 799 -16 799 -16 712 110 c 0,5,6
 631 226 631 226 631 383 c 0,7,8
 631 498 631 498 694 562 c 0,9,10
 747 616 747 616 825 618 c 1,11,12
 894 621 894 621 946 578 c 128,-1,13
 998 535 998 535 997 465 c 0,14,15
 997 410 997 410 963 379 c 1,16,17
 934 351 934 351 892 351 c 0,18,19
 803 351 803 351 803 434 c 0,20,21
 803 484 803 484 852 518 c 1,22,23
 834 532 834 532 806 532 c 0,24,25
 760 532 760 532 726 500 c 0,26,27
 686 462 686 462 686 395 c 0,28,29
 686 311 686 311 759.5 246.5 c 128,-1,30
 833 182 833 182 930 182 c 0,31,32
 1051 182 1051 182 1148 266 c 0,33,34
 1253 357 1253 357 1253 487 c 0,35,36
 1253 724 1253 724 1118 855 c 0,37,38
 996 973 996 973 803 973 c 0,39,40
 654 973 654 973 547 864 c 0,41,42
 438 752 438 752 438 591 c 0,43,44
 438 561 438 561 442 530 c 0,45,46
 479 269 479 269 479 266 c 0,47,48
 479 148 479 148 421 72 c 0,49,50
 355 -14 355 -14 231 -14 c 0,51,52
 74 -14 74 -14 -34 127 c 0,53,54
 -125 247 -125 247 -125 367 c 1,55,56
 -23 182 -23 182 164 182 c 0,57,58
 289 182 289 182 343 215 c 1,59,60
 408 253 408 253 408 355 c 0,61,62
 408 397 408 397 397 453 c 0,63,64
 379 546 379 546 379 632 c 0,65,66
 379 859 379 859 497 996 c 0,67,68
 609 1126 609 1126 784 1126 c 0,69,70
 1006 1126 1006 1126 1151 955 c 0,71,72
 1303 775 1303 775 1303 483 c 0,0,1
-66 1202 m 0,73,74
 -66 1055 -66 1055 -165 970 c 0,75,76
 -248 899 -248 899 -352 899 c 2,77,-1
 -496 899 l 1,78,-1
 -496 1071 l 1,79,-1
 -352 1071 l 2,80,81
 -264 1071 -264 1071 -208 1117.5 c 128,-1,82
 -152 1164 -152 1164 -152 1239 c 0,83,84
 -152 1320 -152 1320 -202 1369 c 0,85,86
 -248 1413 -248 1413 -311 1413 c 0,87,88
 -373 1413 -373 1413 -414 1384 c 0,89,90
 -459 1353 -459 1353 -459 1298 c 0,91,92
 -459 1230 -459 1230 -401 1233 c 1,93,94
 -401 1319 -401 1319 -344 1319 c 0,95,96
 -283 1319 -283 1319 -283 1249 c 0,97,98
 -283 1176 -283 1176 -389 1176 c 0,99,100
 -496 1176 -496 1176 -496 1294 c 0,101,102
 -496 1377 -496 1377 -434 1424 c 0,103,104
 -378 1466 -378 1466 -295 1466 c 0,105,106
 -203 1466 -203 1466 -138 1400 c 0,107,108
 -66 1327 -66 1327 -66 1202 c 0,73,74
162 623 m 0,109,110
 162 471 162 471 20 469 c 0,111,112
 -46 468 -46 468 -113 516 c 1,113,-1
 -164 629 l 1,114,115
 -115 601 -115 601 -35 598 c 0,116,117
 66 595 66 595 66 649 c 0,118,119
 66 699 66 699 -14 797 c 0,120,121
 -18 802 -18 802 -18 808 c 0,122,123
 -18 821 -18 821 -3 832.5 c 128,-1,124
 12 844 12 844 29 844 c 0,125,126
 41 844 41 844 49 838 c 0,127,128
 162 753 162 753 162 623 c 0,109,110
EndSplineSet
Validated: 33
EndChar

StartChar: M_c.rphf
Encoding: 131 -1 130
Width: 1251
GlyphClass: 2
Flags: W
LayerCount: 2
Fore
SplineSet
1128 899 m 1,0,-1
 414 899 l 2,1,2
 338 899 338 899 274.5 846.5 c 128,-1,3
 211 794 211 794 211 735 c 0,4,5
 211 683 211 683 252.5 640.5 c 128,-1,6
 294 598 294 598 348 598 c 2,7,-1
 668 598 l 1,8,-1
 668 420 l 1,9,-1
 369 420 l 2,10,11
 305 420 305 420 255 372.5 c 128,-1,12
 205 325 205 325 205 268 c 0,13,14
 205 221 205 221 238 190 c 0,15,16
 273 156 273 156 332 156 c 0,17,18
 430 156 430 156 430 70 c 0,19,20
 430 38 430 38 404.5 15 c 128,-1,21
 379 -8 379 -8 340 -8 c 0,22,23
 272 -8 272 -8 204 53 c 0,24,25
 121 126 121 126 121 236 c 0,26,27
 121 452 121 452 342 512 c 1,28,29
 123 568 123 568 123 791 c 0,30,31
 123 899 123 899 215.5 985 c 128,-1,32
 308 1071 308 1071 428 1071 c 2,33,-1
 1128 1071 l 1,34,-1
 1128 899 l 1,0,-1
EndSplineSet
Validated: 1
Substitution2: "Single Substitution lookup 15 subtable" threequarters
Ligature2: "'rphf' Reph Form in Kannada lookup 0 subtable" M c
EndChar

StartChar: glyph131
Encoding: 132 -1 131
Width: 1008
GlyphClass: 2
Flags: W
LayerCount: 2
Fore
SplineSet
936 598 m 1,0,-1
 717 598 l 1,1,2
 772 567 772 567 817 500 c 0,3,4
 872 417 872 417 872 322 c 0,5,6
 872 159 872 159 767 66 c 0,7,8
 673 -16 673 -16 537 -16 c 0,9,10
 399 -16 399 -16 306 66 c 0,11,12
 201 158 201 158 201 322 c 0,13,14
 201 417 201 417 256 500 c 0,15,16
 301 567 301 567 356 598 c 1,17,-1
 123 598 l 1,18,-1
 123 733 l 1,19,-1
 518 733 l 1,20,21
 555 758 555 758 555 815 c 0,22,23
 555 866 555 866 514 899 c 1,24,-1
 123 899 l 1,25,-1
 123 1071 l 1,26,-1
 735 1071 l 1,27,-1
 735 899 l 1,28,-1
 612 899 l 1,29,30
 655 865 655 865 655 815 c 0,31,32
 655 766 655 766 627 733 c 1,33,-1
 936 733 l 1,34,-1
 936 598 l 1,0,-1
772 391 m 0,35,36
 772 487 772 487 713 550 c 0,37,38
 648 618 648 618 537 618 c 0,39,40
 436 618 436 618 365.5 550.5 c 128,-1,41
 295 483 295 483 295 391 c 0,42,43
 295 286 295 286 370 228 c 0,44,45
 437 176 437 176 537 176 c 0,46,47
 633 176 633 176 698 228 c 0,48,49
 772 286 772 286 772 391 c 0,35,36
EndSplineSet
Validated: 1
EndChar

StartChar: glyph132
Encoding: 133 -1 132
Width: 1683
GlyphClass: 2
Flags: W
LayerCount: 2
Fore
SplineSet
1556 469 m 0,0,1
 1556 260 1556 260 1464 133 c 0,2,3
 1355 -16 1355 -16 1139 -16 c 0,4,5
 949 -16 949 -16 788 244 c 1,6,7
 609 -16 609 -16 383 -16 c 0,8,9
 262 -16 262 -16 188 75 c 0,10,11
 125 153 125 153 125 250 c 0,12,13
 125 352 125 352 190 419 c 0,14,15
 269 500 269 500 422 500 c 0,16,17
 591 500 591 500 752 356 c 1,18,19
 836 457 836 457 836 641 c 0,20,21
 836 769 836 769 763 861 c 1,22,23
 684 963 684 963 553 963 c 0,24,25
 344 963 344 963 344 821 c 0,26,27
 344 771 344 771 390 739 c 0,28,29
 431 711 431 711 479 711 c 1,30,31
 459 721 459 721 459 772 c 0,32,33
 459 806 459 806 484 827 c 128,-1,34
 509 848 509 848 543 848 c 0,35,36
 643 848 643 848 643 748 c 0,37,38
 643 690 643 690 599 656 c 0,39,40
 559 625 559 625 500 625 c 0,41,42
 414 625 414 625 344 695.5 c 128,-1,43
 274 766 274 766 274 846 c 0,44,45
 274 949 274 949 333 1025 c 0,46,47
 403 1116 403 1116 530 1116 c 0,48,49
 699 1116 699 1116 803 955 c 0,50,51
 895 814 895 814 895 629 c 0,52,53
 895 426 895 426 819 322 c 1,54,55
 927 188 927 188 1106 188 c 0,56,57
 1306 188 1306 188 1409 289 c 0,58,59
 1499 376 1499 376 1499 518 c 0,60,61
 1499 684 1499 684 1386 794 c 0,62,63
 1277 899 1277 899 1122 899 c 2,64,-1
 944 899 l 1,65,-1
 944 1071 l 1,66,-1
 1399 1071 l 1,67,-1
 1399 899 l 1,68,-1
 1372 899 l 1,69,70
 1445 859 1445 859 1500.5 728.5 c 128,-1,71
 1556 598 1556 598 1556 469 c 0,0,1
702 297 m 1,72,73
 567 442 567 442 406 442 c 0,74,75
 199 442 199 442 199 305 c 0,76,77
 199 264 199 264 232 229 c 0,78,79
 271 188 271 188 336 188 c 0,80,81
 556 188 556 188 702 297 c 1,72,73
EndSplineSet
Validated: 1
EndChar

StartChar: glyph133
Encoding: 134 -1 133
Width: 1237
GlyphClass: 2
Flags: W
LayerCount: 2
Fore
SplineSet
1116 0 m 1,0,-1
 946 0 l 1,1,2
 946 455 946 455 869 671 c 0,3,4
 788 899 788 899 610 899 c 0,5,6
 270 899 270 899 270 0 c 1,7,-1
 100 0 l 1,8,9
 100 380 100 380 168 559 c 0,10,11
 225 709 225 709 416 899 c 1,12,-1
 100 899 l 1,13,-1
 100 1071 l 1,14,-1
 930 1071 l 1,15,-1
 930 899 l 1,16,-1
 803 899 l 1,17,18
 993 709 993 709 1049 559 c 0,19,20
 1116 381 1116 381 1116 0 c 1,0,-1
EndSplineSet
Validated: 1
EndChar

StartChar: glyph134
Encoding: 135 -1 134
Width: 1765
GlyphClass: 2
Flags: W
LayerCount: 2
Fore
SplineSet
1438 899 m 1,0,-1
 98 899 l 1,1,-1
 98 1071 l 1,2,-1
 1438 1071 l 1,3,-1
 1438 899 l 1,0,-1
811 690 m 0,4,5
 811 641 811 641 776 607 c 128,-1,6
 741 573 741 573 690 573 c 0,7,8
 641 573 641 573 607 607 c 128,-1,9
 573 641 573 641 573 690 c 0,10,11
 573 741 573 741 607 776 c 128,-1,12
 641 811 641 811 690 811 c 0,13,14
 741 811 741 811 776 776 c 128,-1,15
 811 741 811 741 811 690 c 0,4,5
1450 838 m 0,16,17
 1564 758 1564 758 1564 618 c 0,18,19
 1564 470 1564 470 1421 469 c 0,20,21
 1355 468 1355 468 1288 516 c 1,22,23
 1316 452 1316 452 1316 367 c 0,24,25
 1316 218 1316 218 1239 109 c 0,26,27
 1150 -16 1150 -16 999 -16 c 0,28,29
 882 -16 882 -16 777 102 c 1,30,31
 734 161 734 161 692 221 c 1,32,33
 597 -14 597 -14 393 -14 c 0,34,35
 233 -14 233 -14 149 118 c 0,36,37
 82 223 82 223 82 371 c 0,38,39
 82 499 82 499 158 574 c 0,40,41
 225 641 225 641 320 641 c 0,42,43
 402 641 402 641 456 590 c 1,44,45
 517 534 517 534 516 438 c 0,46,47
 516 380 516 380 462 337 c 1,48,49
 415 301 415 301 367 301 c 0,50,51
 328 301 328 301 328 330 c 1,52,53
 419 356 419 356 418 434 c 0,54,55
 417 483 417 483 376 515 c 0,56,57
 338 544 338 544 285 544 c 0,58,59
 227 544 227 544 188 506 c 0,60,61
 143 462 143 462 143 381 c 0,62,63
 143 193 143 193 389 193 c 0,64,65
 563 193 563 193 642 301 c 0,66,67
 688 364 688 364 688 416 c 1,68,69
 688 371 688 371 744 302 c 0,70,71
 834 193 834 193 1004 193 c 0,72,73
 1221 193 1221 193 1221 333 c 0,74,75
 1221 445 1221 445 1065 575 c 0,76,77
 1001 629 1001 629 1001 679 c 0,78,79
 1001 708 1001 708 1023 728 c 0,80,81
 1042 746 1042 746 1065 745 c 0,82,83
 1114 744 1114 744 1185 672 c 128,-1,84
 1256 600 1256 600 1366 598 c 0,85,86
 1466 596 1466 596 1466 650 c 0,87,88
 1466 699 1466 699 1386 797 c 0,89,90
 1384 799 1384 799 1405 819.5 c 128,-1,91
 1426 840 1426 840 1441 840 c 0,92,93
 1446 840 1446 840 1450 838 c 0,16,17
823 -295 m 0,94,95
 823 -353 823 -353 787 -386 c 0,96,97
 755 -414 755 -414 709 -414 c 256,98,99
 663 -414 663 -414 632 -385 c 0,100,101
 598 -353 598 -353 598 -303 c 0,102,103
 598 -246 598 -246 709 -4 c 1,104,105
 823 -242 823 -242 823 -295 c 0,94,95
EndSplineSet
Validated: 33
EndChar

StartChar: glyph135
Encoding: 136 -1 135
Width: 1460
GlyphClass: 2
Flags: W
LayerCount: 2
Fore
SplineSet
920 690 m 256,0,1
 920 642 920 642 886 608.5 c 128,-1,2
 852 575 852 575 803 575 c 0,3,4
 755 575 755 575 721.5 609 c 128,-1,5
 688 643 688 643 688 690 c 0,6,7
 688 738 688 738 721.5 772.5 c 128,-1,8
 755 807 755 807 803 807 c 0,9,10
 852 807 852 807 886 772.5 c 128,-1,11
 920 738 920 738 920 690 c 256,0,1
1378 317 m 0,12,13
 1378 189 1378 189 1301 92 c 0,14,15
 1214 -16 1214 -16 1073 -16 c 0,16,17
 914 -16 914 -16 818 117 c 0,18,19
 754 207 754 207 754 254 c 1,20,21
 754 242 754 242 718 182 c 0,22,23
 670 103 670 103 608 53 c 0,24,25
 522 -16 522 -16 422 -16 c 0,26,27
 296 -16 296 -16 209.5 66.5 c 128,-1,28
 123 149 123 149 123 272 c 0,29,30
 123 396 123 396 212 496 c 1,31,32
 294 569 294 569 376 642 c 0,33,34
 465 722 465 722 465 795 c 0,35,36
 465 973 465 973 319 973 c 0,37,38
 180 973 180 973 180 836 c 0,39,40
 180 746 180 746 295 702 c 1,41,42
 258 696 258 696 248 696 c 0,43,44
 182 696 182 696 131 740 c 0,45,46
 70 792 70 792 70 885 c 0,47,48
 70 995 70 995 134 1061.5 c 128,-1,49
 198 1128 198 1128 303 1128 c 0,50,51
 406 1128 406 1128 481 1062 c 0,52,53
 561 992 561 992 561 883 c 1,54,55
 805 1126 805 1126 1028 1126 c 0,56,57
 1194 1126 1194 1126 1280 1036 c 0,58,59
 1352 961 1352 961 1352 848 c 0,60,61
 1352 765 1352 765 1311 710 c 128,-1,62
 1270 655 1270 655 1212 655 c 1,63,64
 1239 715 1239 715 1239 774 c 0,65,66
 1239 971 1239 971 967 971 c 0,67,68
 743 971 743 971 549 776 c 1,69,70
 525 705 525 705 441 634 c 0,71,72
 307 519 307 519 304 515 c 0,73,74
 236 442 236 442 236 352 c 0,75,76
 236 188 236 188 463 188 c 0,77,78
 661 188 661 188 752 442 c 1,79,80
 746 436 746 436 768 376 c 0,81,82
 796 301 796 301 849 254 c 0,83,84
 922 188 922 188 1034 188 c 0,85,86
 1152 188 1152 188 1226 249 c 0,87,88
 1294 304 1294 304 1294 379 c 0,89,90
 1294 441 1294 441 1249 480 c 0,91,92
 1199 524 1199 524 1106 524 c 0,93,94
 1097 524 1097 524 1116.5 544.5 c 128,-1,95
 1136 565 1136 565 1169 565 c 0,96,97
 1269 565 1269 565 1327 487 c 0,98,99
 1378 418 1378 418 1378 317 c 0,12,13
EndSplineSet
Validated: 37
EndChar

StartChar: glyph136
Encoding: 137 -1 136
Width: 1460
GlyphClass: 2
Flags: W
LayerCount: 2
Fore
SplineSet
1403 592 m 1,0,-1
 1204 592 l 2,1,2
 1247 592 1247 592 1310 501 c 0,3,4
 1378 403 1378 403 1378 317 c 0,5,6
 1378 189 1378 189 1301 92 c 0,7,8
 1214 -16 1214 -16 1073 -16 c 0,9,10
 906 -16 906 -16 814 117 c 0,11,12
 754 203 754 203 754 254 c 1,13,14
 754 243 754 243 715 182 c 0,15,16
 665 103 665 103 603 53 c 0,17,18
 518 -16 518 -16 422 -16 c 0,19,20
 296 -16 296 -16 209.5 66.5 c 128,-1,21
 123 149 123 149 123 272 c 0,22,23
 123 396 123 396 212 496 c 1,24,25
 294 569 294 569 376 642 c 0,26,27
 465 722 465 722 465 795 c 0,28,29
 465 973 465 973 319 973 c 0,30,31
 180 973 180 973 180 836 c 0,32,33
 180 746 180 746 295 702 c 1,34,35
 258 696 258 696 248 696 c 0,36,37
 182 696 182 696 131 740 c 0,38,39
 70 792 70 792 70 885 c 0,40,41
 70 995 70 995 134 1061.5 c 128,-1,42
 198 1128 198 1128 303 1128 c 0,43,44
 411 1128 411 1128 484 1055 c 0,45,46
 561 979 561 979 561 858 c 0,47,48
 561 752 561 752 477 667 c 1,49,50
 398 600 398 600 320 533 c 1,51,52
 236 451 236 451 236 352 c 0,53,54
 236 186 236 186 463 186 c 0,55,56
 674 186 674 186 752 442 c 1,57,58
 745 436 745 436 766 375 c 0,59,60
 792 300 792 300 845 252 c 0,61,62
 919 186 919 186 1034 186 c 0,63,64
 1152 186 1152 186 1226 248 c 0,65,66
 1294 304 1294 304 1294 379 c 0,67,68
 1294 430 1294 430 1222 514 c 0,69,70
 1155 592 1155 592 1128 592 c 2,71,-1
 852 592 l 1,72,-1
 852 764 l 1,73,-1
 1147 764 l 2,74,75
 1214 764 1214 764 1214 833 c 0,76,77
 1214 899 1214 899 1155 899 c 2,78,-1
 860 899 l 1,79,-1
 860 1071 l 1,80,-1
 1083 1071 l 1,81,82
 1141 1034 1141 1034 1206 967 c 0,83,84
 1299 870 1299 870 1299 801 c 0,85,86
 1299 781 1299 781 1290 764 c 1,87,-1
 1403 764 l 1,88,-1
 1403 592 l 1,0,-1
EndSplineSet
Validated: 37
EndChar

StartChar: glyph137
Encoding: 138 -1 137
Width: 1485
GlyphClass: 2
Flags: W
LayerCount: 2
Fore
SplineSet
1374 365 m 0,0,1
 1373 205 1373 205 1303 99 c 0,2,3
 1226 -16 1226 -16 1096 -16 c 256,4,5
 966 -16 966 -16 851 118 c 0,6,7
 777 203 777 203 760 256 c 1,8,9
 632 -16 632 -16 440 -16 c 0,10,11
 284 -16 284 -16 191 163 c 1,12,13
 109 325 109 325 109 555 c 0,14,15
 109 774 109 774 183 922 c 0,16,17
 265 1085 265 1085 408 1085 c 0,18,19
 502 1085 502 1085 556 1004 c 0,20,21
 604 932 604 932 604 823 c 0,22,23
 604 717 604 717 556 644 c 0,24,25
 502 563 502 563 410 563 c 0,26,27
 339 563 339 563 295 612 c 0,28,29
 264 646 264 646 248 702 c 0,30,31
 235 747 235 747 236 748 c 1,32,33
 157 653 157 653 160 504 c 0,34,35
 162 372 162 372 230 287 c 0,36,37
 309 188 309 188 455 188 c 0,38,39
 683 188 683 188 760 393 c 1,40,41
 771 366 771 366 782 339 c 1,42,43
 815 279 815 279 866 241 c 0,44,45
 938 188 938 188 1040 188 c 0,46,47
 1186 188 1186 188 1248.5 233 c 128,-1,48
 1311 278 1311 278 1311 383 c 0,49,50
 1311 667 1311 667 1081 812 c 0,51,52
 986 872 986 872 852 899 c 1,53,-1
 852 1071 l 1,54,-1
 1106 1071 l 1,55,-1
 1171 899 l 1,56,-1
 1020 899 l 1,57,58
 1187 864 1187 864 1286 699 c 0,59,60
 1375 549 1375 549 1374 365 c 0,0,1
846 -297 m 0,61,62
 846 -355 846 -355 810 -387 c 1,63,64
 779 -417 779 -417 733 -416 c 0,65,66
 686 -415 686 -415 654 -387 c 0,67,68
 618 -356 618 -356 618 -305 c 0,69,70
 618 -246 618 -246 729 -4 c 1,71,72
 846 -246 846 -246 846 -297 c 0,61,62
549 827 m 0,73,74
 549 869 549 869 520 899 c 1,75,76
 488 930 488 930 438 930 c 0,77,78
 317 930 317 930 285 844 c 1,79,80
 285 717 285 717 408 717 c 0,81,82
 475 717 475 717 514 752 c 0,83,84
 549 783 549 783 549 827 c 0,73,74
EndSplineSet
Validated: 37
EndChar

StartChar: glyph138
Encoding: 139 -1 138
Width: 1509
GlyphClass: 2
Flags: W
LayerCount: 2
Fore
SplineSet
1378 317 m 0,0,1
 1378 189 1378 189 1301 92 c 0,2,3
 1214 -16 1214 -16 1073 -16 c 0,4,5
 926 -16 926 -16 825 117 c 0,6,7
 754 212 754 212 754 254 c 1,8,9
 754 243 754 243 714 182 c 0,10,11
 662 103 662 103 600 53 c 0,12,13
 514 -16 514 -16 422 -16 c 0,14,15
 296 -16 296 -16 209.5 66.5 c 128,-1,16
 123 149 123 149 123 272 c 0,17,18
 123 396 123 396 212 496 c 1,19,20
 294 569 294 569 376 642 c 0,21,22
 465 722 465 722 465 795 c 0,23,24
 465 973 465 973 319 973 c 0,25,26
 180 973 180 973 180 836 c 0,27,28
 180 746 180 746 295 702 c 1,29,-1
 248 696 l 1,30,31
 182 696 182 696 131 740 c 0,32,33
 70 792 70 792 70 885 c 0,34,35
 70 995 70 995 134 1061.5 c 128,-1,36
 198 1128 198 1128 303 1128 c 0,37,38
 464 1128 464 1128 530 985 c 1,39,40
 598 919 598 919 665 854 c 1,41,42
 787 751 787 751 895 748 c 0,43,44
 1040 743 1040 743 1120 784 c 128,-1,45
 1200 825 1200 825 1200 899 c 1,46,-1
 946 899 l 1,47,-1
 946 1071 l 1,48,-1
 1227 1071 l 1,49,50
 1248 1032 1248 1032 1263 995 c 0,51,52
 1299 904 1299 904 1300 834 c 0,53,54
 1303 714 1303 714 1189 652 c 0,55,56
 1101 604 1101 604 987 604 c 0,57,58
 872 604 872 604 719 735 c 1,59,60
 638 814 638 814 557 893 c 1,61,62
 561 883 561 883 561 858 c 0,63,64
 561 752 561 752 477 667 c 1,65,66
 398 600 398 600 320 533 c 1,67,68
 236 451 236 451 236 352 c 0,69,70
 236 186 236 186 463 186 c 0,71,72
 661 186 661 186 752 442 c 1,73,74
 746 437 746 437 769 375 c 0,75,76
 798 300 798 300 851 252 c 0,77,78
 925 186 925 186 1034 186 c 0,79,80
 1152 186 1152 186 1226 248 c 0,81,82
 1294 304 1294 304 1294 379 c 0,83,84
 1294 441 1294 441 1249 480 c 0,85,86
 1199 524 1199 524 1106 524 c 0,87,88
 1097 524 1097 524 1116.5 544.5 c 128,-1,89
 1136 565 1136 565 1169 565 c 0,90,91
 1269 565 1269 565 1327 487 c 0,92,93
 1378 418 1378 418 1378 317 c 0,0,1
EndSplineSet
Validated: 37
EndChar

StartChar: glyph139
Encoding: 140 -1 139
Width: 2595
GlyphClass: 2
Flags: W
LayerCount: 2
Fore
SplineSet
2472 487 m 0,0,1
 2472 275 2472 275 2385 139 c 0,2,3
 2286 -16 2286 -16 2103 -16 c 0,4,5
 1846 -16 1846 -16 1772 309 c 1,6,7
 1700 -16 1700 -16 1421 -16 c 0,8,9
 1268 -16 1268 -16 1174 112 c 0,10,11
 1110 200 1110 200 1083 330 c 1,12,13
 1035 179 1035 179 906 83.5 c 128,-1,14
 777 -12 777 -12 614 -12 c 0,15,16
 411 -12 411 -12 267 132.5 c 128,-1,17
 123 277 123 277 123 481 c 0,18,19
 123 735 123 735 348 899 c 1,20,-1
 121 899 l 1,21,-1
 121 1071 l 1,22,-1
 795 1071 l 2,23,24
 1016 1071 1016 1071 1016 1245 c 0,25,26
 1016 1317 1016 1317 930 1393 c 1,27,-1
 973 1438 l 1,28,29
 1106 1310 1106 1310 1106 1192 c 0,30,31
 1106 951 1106 951 870 899 c 1,32,33
 1108 782 1108 782 1108 481 c 0,34,35
 1108 417 1108 417 1092 348 c 1,36,37
 1167 186 1167 186 1438 186 c 0,38,39
 1556 186 1556 186 1641 253 c 0,40,41
 1741 331 1741 331 1741 465 c 0,42,43
 1741 780 1741 780 1298 901 c 0,44,45
 1209 926 1209 926 1209 998 c 0,46,47
 1209 1034 1209 1034 1235.5 1062 c 128,-1,48
 1262 1090 1262 1090 1303 1090 c 0,49,50
 1462 1090 1462 1090 1620 913 c 0,51,52
 1790 722 1790 722 1790 487 c 0,53,54
 1790 436 1790 436 1778 342 c 1,55,56
 1855 186 1855 186 2122 186 c 0,57,58
 2239 186 2239 186 2324 253 c 0,59,60
 2423 331 2423 331 2423 465 c 0,61,62
 2423 675 2423 675 2232 800 c 0,63,64
 2105 884 2105 884 1974 899 c 1,65,-1
 1974 1071 l 1,66,-1
 2269 1071 l 1,67,-1
 2269 899 l 1,68,69
 2472 727 2472 727 2472 487 c 0,0,1
1894 -315 m 0,70,71
 1894 -378 1894 -378 1859 -413 c 0,72,73
 1828 -444 1828 -444 1780 -444 c 0,74,75
 1734 -444 1734 -444 1703 -412 c 0,76,77
 1669 -377 1669 -377 1669 -315 c 0,78,79
 1669 -243 1669 -243 1780 45 c 1,80,81
 1894 -243 1894 -243 1894 -315 c 0,70,71
991 539 m 0,82,83
 991 694 991 694 882 796.5 c 128,-1,84
 773 899 773 899 614 899 c 0,85,86
 458 899 458 899 350 796.5 c 128,-1,87
 242 694 242 694 242 539 c 256,88,89
 242 384 242 384 350 280 c 128,-1,90
 458 176 458 176 614 176 c 0,91,92
 772 176 772 176 881.5 280.5 c 128,-1,93
 991 385 991 385 991 539 c 0,82,83
EndSplineSet
Validated: 1
EndChar

StartChar: glyph140
Encoding: 141 -1 140
Width: 2060
GlyphClass: 2
Flags: W
LayerCount: 2
Fore
SplineSet
1962 819 m 0,0,1
 1962 695 1962 695 1897 600.5 c 128,-1,2
 1832 506 1832 506 1743 506 c 0,3,4
 1668 506 1668 506 1668 571 c 0,5,6
 1668 585 1668 585 1671 590 c 1,7,8
 1784 590 1784 590 1848 649 c 1,9,10
 1903 702 1903 702 1903 778 c 0,11,12
 1903 850 1903 850 1841 900 c 0,13,14
 1775 954 1775 954 1669 954 c 0,15,16
 1479 954 1479 954 1376 741 c 1,17,18
 1376 585 1376 585 1282 475 c 1,19,20
 1294 449 1294 449 1294 421 c 0,21,22
 1294 379 1294 379 1256.5 292 c 128,-1,23
 1219 205 1219 205 1219 156 c 0,24,25
 1219 128 1219 128 1250 110 c 0,26,27
 1276 94 1276 94 1303 94 c 0,28,29
 1332 94 1332 94 1368.5 129.5 c 128,-1,30
 1405 165 1405 165 1405 209 c 1,31,32
 1438 192 1438 192 1438 186 c 2,33,-1
 1438 145 l 2,34,35
 1438 85 1438 85 1375 35 c 0,36,37
 1318 -10 1318 -10 1264 -10 c 0,38,39
 1202 -10 1202 -10 1153 26 c 0,40,41
 1096 67 1096 67 1096 135 c 0,42,43
 1096 206 1096 206 1196 391 c 1,44,45
 1068 293 1068 293 987 293 c 0,46,47
 886 293 886 293 828 344 c 1,48,49
 774 390 774 390 774 459 c 0,50,51
 774 533 774 533 832 584 c 0,52,53
 896 641 896 641 1006 641 c 0,54,55
 1070 641 1070 641 1134 616 c 0,56,57
 1178 598 1178 598 1220 568 c 0,58,59
 1256 543 1256 543 1253 543 c 1,60,61
 1272 572 1272 572 1286 600 c 0,62,63
 1318 665 1318 665 1319 709 c 0,64,65
 1321 803 1321 803 1235 878.5 c 128,-1,66
 1149 954 1149 954 1047 954 c 0,67,68
 943 954 943 954 851 901 c 0,69,70
 739 836 739 836 739 733 c 1,71,72
 739 770 739 770 683 843 c 0,73,74
 596 956 596 956 444 956 c 0,75,76
 338 956 338 956 261 893 c 0,77,78
 188 833 188 833 188 760 c 0,79,80
 188 606 188 606 432 606 c 1,81,82
 442 588 442 588 442 561 c 0,83,84
 442 500 442 500 371 500 c 0,85,86
 255 500 255 500 186 592 c 0,87,88
 123 677 123 677 123 799 c 0,89,90
 123 930 123 930 199 1022 c 0,91,92
 285 1126 285 1126 432 1126 c 0,93,94
 629 1126 629 1126 739 883 c 1,95,96
 739 1000 739 1000 852 1069 c 0,97,98
 944 1126 944 1126 1055 1126 c 0,99,100
 1164 1126 1164 1126 1262 1058 c 1,101,102
 1372 980 1372 980 1372 870 c 1,103,104
 1470 1128 1470 1128 1679 1128 c 0,105,106
 1808 1128 1808 1128 1887 1034 c 0,107,108
 1962 945 1962 945 1962 819 c 0,0,1
1212 477 m 1,109,110
 1149 590 1149 590 1032 590 c 0,111,112
 979 590 979 590 946.5 559 c 128,-1,113
 914 528 914 528 913 487 c 0,114,115
 911 393 911 393 1024 393 c 0,116,117
 1130 393 1130 393 1212 477 c 1,109,110
EndSplineSet
Validated: 37
EndChar

StartChar: glyph141
Encoding: 142 -1 141
Width: 1460
GlyphClass: 2
Flags: W
LayerCount: 2
Fore
SplineSet
1378 342 m 0,0,1
 1378 199 1378 199 1290 94 c 0,2,3
 1197 -16 1197 -16 1059 -16 c 0,4,5
 960 -16 960 -16 874 55 c 1,6,7
 813 107 813 107 764 189 c 1,8,9
 746 226 746 226 727 262 c 1,10,11
 714 226 714 226 701 189 c 1,12,13
 667 106 667 106 616 55 c 0,14,15
 545 -16 545 -16 453 -16 c 0,16,17
 270 -16 270 -16 182 123 c 0,18,19
 110 238 110 238 109 426 c 0,20,21
 108 567 108 567 158 679 c 0,22,23
 216 807 216 807 307 807 c 1,24,25
 283 807 283 807 209 858 c 0,26,27
 109 928 109 928 109 1020 c 0,28,29
 109 1104 109 1104 169 1153 c 0,30,31
 222 1196 222 1196 295 1196 c 0,32,33
 373 1196 373 1196 410 1147 c 1,34,35
 410 1149 410 1149 368 1140 c 0,36,37
 320 1130 320 1130 291 1105 c 0,38,39
 250 1071 250 1071 250 1010 c 0,40,41
 250 882 250 882 422 819 c 1,42,43
 447 819 447 819 490 771 c 0,44,45
 551 704 551 704 551 600 c 0,46,47
 551 516 551 516 505 455 c 0,48,49
 458 391 458 391 389 391 c 256,50,51
 320 391 320 391 276.5 438 c 128,-1,52
 233 485 233 485 233 563 c 0,53,54
 233 620 233 620 231 616 c 1,55,56
 164 543 164 543 164 426 c 0,57,58
 164 322 164 322 229 259 c 0,59,60
 301 188 301 188 438 188 c 0,61,62
 657 188 657 188 725 410 c 1,63,64
 816 188 816 188 1061 188 c 0,65,66
 1190 188 1190 188 1256 249 c 0,67,68
 1315 303 1315 303 1315 391 c 0,69,70
 1315 477 1315 477 1262 538 c 0,71,72
 1203 606 1203 606 1104 606 c 2,73,-1
 946 606 l 1,74,-1
 946 750 l 1,75,-1
 1139 750 l 2,76,77
 1210 750 1210 750 1210 810 c 0,78,79
 1210 844 1210 844 1185 871.5 c 128,-1,80
 1160 899 1160 899 1122 899 c 2,81,-1
 727 899 l 1,82,-1
 727 1071 l 1,83,-1
 1065 1071 l 1,84,85
 1292 866 1292 866 1292 815 c 0,86,87
 1292 749 1292 749 1238 717 c 0,88,89
 1207 698 1207 698 1188 698 c 1,90,91
 1277 698 1277 698 1331 579 c 0,92,93
 1378 476 1378 476 1378 342 c 0,0,1
500 616 m 0,94,95
 500 657 500 657 469 687 c 128,-1,96
 438 717 438 717 385 717 c 0,97,98
 310 717 310 717 281 668 c 1,99,100
 277 655 277 655 277 632 c 0,101,102
 277 518 277 518 373 518 c 0,103,104
 433 518 433 518 468 549 c 1,105,106
 500 576 500 576 500 616 c 0,94,95
EndSplineSet
Validated: 37
EndChar

StartChar: glyph142
Encoding: 143 -1 142
Width: 1253
GlyphClass: 2
Flags: W
LayerCount: 2
Fore
SplineSet
1108 481 m 0,0,1
 1108 277 1108 277 963.5 132.5 c 128,-1,2
 819 -12 819 -12 614 -12 c 0,3,4
 411 -12 411 -12 267 132.5 c 128,-1,5
 123 277 123 277 123 481 c 0,6,7
 123 735 123 735 348 899 c 1,8,-1
 121 899 l 1,9,-1
 121 1071 l 1,10,-1
 926 1071 l 1,11,-1
 926 899 l 1,12,-1
 870 899 l 1,13,14
 1108 782 1108 782 1108 481 c 0,0,1
991 539 m 0,15,16
 991 694 991 694 882 796.5 c 128,-1,17
 773 899 773 899 614 899 c 0,18,19
 458 899 458 899 350 796.5 c 128,-1,20
 242 694 242 694 242 539 c 256,21,22
 242 384 242 384 350 280 c 128,-1,23
 458 176 458 176 614 176 c 0,24,25
 772 176 772 176 881.5 280.5 c 128,-1,26
 991 385 991 385 991 539 c 0,15,16
733 563 m 256,27,28
 733 516 733 516 698 483.5 c 128,-1,29
 663 451 663 451 614 451 c 0,30,31
 567 451 567 451 533.5 483.5 c 128,-1,32
 500 516 500 516 500 563 c 0,33,34
 500 611 500 611 533.5 644.5 c 128,-1,35
 567 678 567 678 614 678 c 0,36,37
 662 678 662 678 697.5 644 c 128,-1,38
 733 610 733 610 733 563 c 256,27,28
EndSplineSet
Validated: 1
EndChar

StartChar: glyph143
Encoding: 144 -1 143
Width: 1485
GlyphClass: 2
Flags: W
LayerCount: 2
Fore
SplineSet
1350 344 m 0,0,1
 1350 192 1350 192 1282 96 c 1,2,3
 1201 -16 1201 -16 1044 -16 c 0,4,5
 873 -16 873 -16 733 229 c 1,6,7
 625 -16 625 -16 442 -16 c 0,8,9
 314 -16 314 -16 224 79 c 0,10,11
 123 186 123 186 123 369 c 0,12,13
 123 576 123 576 236 721 c 0,14,15
 331 842 331 842 487 899 c 1,16,-1
 145 899 l 1,17,-1
 145 1071 l 1,18,-1
 1169 1071 l 1,19,-1
 1169 899 l 1,20,-1
 1047 899 l 1,21,22
 1128 863 1128 863 1186.5 789.5 c 128,-1,23
 1245 716 1245 716 1245 653 c 0,24,25
 1245 612 1245 612 1253 604 c 1,26,27
 1276 604 1276 604 1312 512 c 0,28,29
 1350 416 1350 416 1350 344 c 0,0,1
1184 614 m 1,30,31
 1121 655 1121 655 1049 655 c 0,32,33
 989 655 989 655 951 629 c 128,-1,34
 913 603 913 603 913 567 c 0,35,36
 913 492 913 492 1010 492 c 0,37,38
 1126 492 1126 492 1184 614 c 1,30,31
1278 389 m 0,39,40
 1278 441 1278 441 1267 495 c 0,41,42
 1253 561 1253 561 1233 561 c 1,43,44
 1144 414 1144 414 993 414 c 0,45,46
 916 414 916 414 870.5 456 c 128,-1,47
 825 498 825 498 825 555 c 0,48,49
 825 618 825 618 870 661 c 0,50,51
 921 711 921 711 1010 711 c 0,52,53
 1079 711 1079 711 1137 686 c 0,54,55
 1180 667 1180 667 1180 664 c 1,56,57
 1180 754 1180 754 1056 824 c 0,58,59
 923 899 923 899 729 899 c 0,60,61
 501 899 501 899 367 787 c 0,62,63
 223 667 223 667 223 444 c 0,64,65
 223 188 223 188 467 188 c 0,66,67
 634 188 634 188 733 401 c 1,68,69
 838 188 838 188 1024 188 c 0,70,71
 1278 188 1278 188 1278 389 c 0,39,40
EndSplineSet
Validated: 1
EndChar

StartChar: glyph144
Encoding: 145 -1 144
Width: 1485
GlyphClass: 2
Flags: W
LayerCount: 2
Fore
SplineSet
1350 344 m 0,0,1
 1350 192 1350 192 1282 96 c 1,2,3
 1201 -16 1201 -16 1044 -16 c 0,4,5
 873 -16 873 -16 733 229 c 1,6,7
 625 -16 625 -16 442 -16 c 0,8,9
 314 -16 314 -16 224 79 c 0,10,11
 123 186 123 186 123 369 c 0,12,13
 123 576 123 576 236 721 c 0,14,15
 331 842 331 842 487 899 c 1,16,-1
 145 899 l 1,17,-1
 145 1071 l 1,18,-1
 1169 1071 l 1,19,-1
 1169 899 l 1,20,-1
 1047 899 l 1,21,22
 1128 863 1128 863 1186.5 789.5 c 128,-1,23
 1245 716 1245 716 1245 653 c 0,24,25
 1245 612 1245 612 1253 604 c 1,26,27
 1276 604 1276 604 1312 512 c 0,28,29
 1350 416 1350 416 1350 344 c 0,0,1
850 -295 m 0,30,31
 853 -354 853 -354 816 -387 c 0,32,33
 784 -416 784 -416 735 -414 c 1,34,35
 689 -411 689 -411 658 -383 c 0,36,37
 624 -353 624 -353 625 -303 c 0,38,39
 626 -246 626 -246 735 -4 c 1,40,41
 768 -73 768 -73 792 -128 c 0,42,43
 848 -259 848 -259 850 -295 c 0,30,31
1184 614 m 1,44,45
 1121 655 1121 655 1049 655 c 0,46,47
 989 655 989 655 951 629 c 128,-1,48
 913 603 913 603 913 567 c 0,49,50
 913 492 913 492 1010 492 c 0,51,52
 1126 492 1126 492 1184 614 c 1,44,45
1278 389 m 0,53,54
 1278 441 1278 441 1267 495 c 0,55,56
 1253 561 1253 561 1233 561 c 1,57,58
 1144 414 1144 414 993 414 c 0,59,60
 916 414 916 414 870.5 456 c 128,-1,61
 825 498 825 498 825 555 c 0,62,63
 825 618 825 618 870 661 c 0,64,65
 921 711 921 711 1010 711 c 0,66,67
 1079 711 1079 711 1137 686 c 0,68,69
 1180 667 1180 667 1180 664 c 1,70,71
 1180 754 1180 754 1056 824 c 0,72,73
 923 899 923 899 729 899 c 0,74,75
 501 899 501 899 367 787 c 0,76,77
 223 667 223 667 223 444 c 0,78,79
 223 188 223 188 467 188 c 0,80,81
 634 188 634 188 733 401 c 1,82,83
 838 188 838 188 1024 188 c 0,84,85
 1278 188 1278 188 1278 389 c 0,53,54
EndSplineSet
Validated: 33
EndChar

StartChar: glyph145
Encoding: 146 -1 145
Width: 1536
GlyphClass: 2
Flags: W
LayerCount: 2
Fore
SplineSet
1141 899 m 1,0,-1
 100 899 l 1,1,-1
 100 1071 l 1,2,-1
 1141 1071 l 1,3,-1
 1141 899 l 1,0,-1
1436 383 m 0,4,5
 1436 221 1436 221 1348 107 c 0,6,7
 1252 -16 1252 -16 1096 -16 c 0,8,9
 959 -16 959 -16 881 70 c 0,10,11
 812 147 812 147 813 260 c 0,12,13
 814 357 814 357 867 423 c 0,14,15
 925 496 925 496 1022 496 c 0,16,17
 1110 496 1110 496 1165 436 c 0,18,19
 1214 383 1214 383 1214 315 c 0,20,21
 1214 180 1214 180 1110 180 c 0,22,23
 1087 180 1087 180 1069 197 c 1,24,25
 1134 197 1134 197 1134 282 c 0,26,27
 1134 332 1134 332 1105 368 c 0,28,29
 1072 410 1072 410 1016 410 c 0,30,31
 950 410 950 410 910 370 c 128,-1,32
 870 330 870 330 870 274 c 0,33,34
 870 204 870 204 924 157 c 1,35,36
 987 100 987 100 1106 100 c 0,37,38
 1236 100 1236 100 1314 183 c 1,39,40
 1384 259 1384 259 1384 369 c 0,41,42
 1384 486 1384 486 1300 568 c 0,43,44
 1206 659 1206 659 1042 659 c 0,45,46
 772 659 772 659 709 467 c 1,47,48
 616 659 616 659 391 659 c 0,49,50
 322 659 322 659 280 622 c 1,51,52
 242 587 242 587 242 537 c 0,53,54
 242 424 242 424 426 377 c 1,55,56
 231 342 231 342 231 213 c 0,57,58
 231 165 231 165 272 137 c 128,-1,59
 313 109 313 109 371 111 c 1,60,61
 437 112 437 112 499 130.5 c 128,-1,62
 561 149 561 149 561 164 c 2,63,-1
 563 106 l 2,64,65
 565 49 565 49 502 15 c 0,66,67
 443 -16 443 -16 356 -16 c 0,68,69
 258 -16 258 -16 178 45 c 0,70,71
 94 109 94 109 94 193 c 0,72,73
 94 364 94 364 285 383 c 1,74,75
 100 427 100 427 100 573 c 0,76,77
 100 667 100 667 169 736 c 0,78,79
 246 813 246 813 371 813 c 0,80,81
 639 813 639 813 700 590 c 1,82,83
 774 819 774 819 1065 819 c 0,84,85
 1243 819 1243 819 1345 682 c 0,86,87
 1436 561 1436 561 1436 383 c 0,4,5
EndSplineSet
Validated: 33
EndChar

StartChar: glyph146
Encoding: 147 -1 146
Width: 1229
GlyphClass: 2
Flags: W
LayerCount: 2
Fore
SplineSet
1130 389 m 0,0,1
 1130 194 1130 194 975 83 c 0,2,3
 837 -16 837 -16 631 -16 c 0,4,5
 431 -16 431 -16 290 78 c 0,6,7
 137 181 137 181 137 346 c 0,8,9
 137 467 137 467 223 514 c 1,10,-1
 223 434 l 2,11,12
 223 311 223 311 360 241 c 0,13,14
 479 180 479 180 651 180 c 0,15,16
 821 180 821 180 928 239 c 0,17,18
 1055 308 1055 308 1055 442 c 0,19,20
 1055 490 1055 490 1022 540 c 0,21,22
 999 576 999 576 987 582 c 1,23,24
 840 395 840 395 629 395 c 0,25,26
 526 395 526 395 459 450 c 0,27,28
 395 502 395 502 395 573 c 0,29,30
 395 653 395 653 459 709 c 0,31,32
 534 774 534 774 668 774 c 0,33,34
 738 774 738 774 816 754 c 0,35,36
 881 738 881 738 881 737 c 1,37,38
 884 747 884 747 884 759 c 0,39,40
 884 808 884 808 843 851 c 0,41,42
 798 899 798 899 735 899 c 2,43,-1
 145 899 l 1,44,-1
 145 1071 l 1,45,-1
 905 1071 l 1,46,-1
 905 899 l 1,47,-1
 874 899 l 1,48,49
 999 811 999 811 999 664 c 1,50,51
 999 667 999 667 1033 636 c 0,52,53
 1073 599 1073 599 1097 549 c 0,54,55
 1130 479 1130 479 1130 389 c 0,0,1
874 666 m 1,56,57
 865 675 865 675 827 690 c 0,58,59
 767 713 767 713 700 713 c 0,60,61
 622 713 622 713 572 680 c 0,62,63
 528 652 528 652 524 612 c 0,64,65
 521 579 521 579 546 552 c 0,66,67
 575 520 575 520 625 520 c 0,68,69
 741 520 741 520 819 591 c 0,70,71
 883 649 883 649 874 666 c 1,56,57
EndSplineSet
Validated: 33
EndChar

